<svg xmlns="http://www.w3.org/2000/svg" viewBox="0 0 364.1 364.1" enable-background="new 0 0 364.1 364.1"><style type="text/css">.st0{fill:#A5896F;} .st1{fill:#CDAB88;} .st2{fill:#4991A9;} .st3{fill:#DCEBEB;} .st4{clip-path:url(#SVGID_2_);} .st5{fill:#EEB7AC;} .st6{opacity:0.1;adobe-blending-mode:multiply;} .st7{fill:#FCD5C8;} .st8{fill:#216384;} .st9{fill:#EAEAEA;} .st10{adobe-blending-mode:overlay;} .st11{fill:#7DADA8;} .st12{fill:#B7DBDA;} .st13{fill:#6D9E9C;} .st14{fill:#FFFFFF;} .st15{fill:#BC918A;} .st16{fill:#E5B5A8;} .st17{fill:#878787;} .st18{fill:#B7B7B7;} .st19{fill:#383838;} .st20{clip-path:url(#SVGID_4_);} .st21{fill:#DDB98A;adobe-blending-mode:multiply;} .st22{fill:#EFEFEF;} .st23{fill:#32768A;} .st24{clip-path:url(#SVGID_6_);} .st25{clip-path:url(#SVGID_8_);} .st26{fill:#AD7F59;} .st27{fill:#544A41;} .st28{fill:#F7EDD7;} .st29{fill:#5E5747;} .st30{fill:none;stroke:#3F403F;stroke-width:2;stroke-miterlimit:10;} .st31{fill:#F7C534;} .st32{opacity:0.62;fill:#FFFFFF;adobe-blending-mode:overlay;} .st33{opacity:0.48;adobe-blending-mode:multiply;} .st34{fill:#AEA38C;adobe-blending-mode:normal;} .st35{fill:#CDAB88;adobe-blending-mode:multiply;} .st36{fill:#757065;} .st37{clip-path:url(#SVGID_10_);} .st38{clip-path:url(#SVGID_12_);} .st39{fill:#4D8A3F;} .st40{fill:none;} .st41{fill:#7CC24D;} .st42{fill:#5BA545;} .st43{fill:#3F6731;} .st44{fill:#1F9ED1;} .st45{fill:#0584C4;} .st46{fill:#303030;} .st47{fill:#010101;} .st48{fill:#DDEDED;} .st49{clip-path:url(#SVGID_14_);} .st50{fill:#4297AB;} .st51{opacity:0.5;adobe-blending-mode:multiply;} .st52{fill:#4297AB;adobe-blending-mode:normal;} .st53{clip-path:url(#SVGID_14_);fill:#F05124;} .st54{clip-path:url(#SVGID_14_);fill:#4297AB;} .st55{fill:#7B7B7B;} .st56{fill:#5D7F3F;} .st57{fill:#3B5126;} .st58{fill:#C4342C;} .st59{fill:#E04541;} .st60{fill:#F04B4C;} .st61{opacity:0.46;fill:#FFFFFF;} .st62{opacity:0.82;fill:#FFFFFF;} .st63{fill:#7A1718;} .st64{fill:#A02B27;} .st65{clip-path:url(#SVGID_16_);} .st66{fill:#4A4F3A;} .st67{fill:#5F634C;} .st68{fill:#8C8E6E;} .st69{fill:#642D10;} .st70{fill:#A7A07B;} .st71{fill:#D8D2A7;} .st72{fill:#C4952C;} .st73{fill:#BFBAA5;} .st74{fill:#E2DDBF;} .st75{fill:#4C1416;} .st76{fill:#661218;} .st77{fill:#DDBD92;} .st78{fill:#897154;} .st79{fill:#337D9C;}</style><circle class="st79" cx="182.1" cy="182.1" r="182.1"/><path class="st14" d="M209.1 139.6c0-16.1-13.1-29.2-29.2-29.2s-29.2 13.1-29.2 29.2c0 10.1 5.1 18.9 12.8 24.2L113.8 351c5 2 10.1 3.8 15.3 5.4l4.9-21.1 35.7 8.1-.6 20.4c4.3.3 8.6.5 12.9.5 4.6 0 9.1-.2 13.7-.5l-1.1-19.6 34.2-8.5 5.3 21.1c4.2-1.2 8.3-2.6 12.3-4.2l-50.6-188.3c8-5.4 13.3-14.4 13.3-24.7zm-33.8 28.8l-1.2 36.3-9.8-1.3 8.2-35.6c1 .3 1.9.5 2.8.6zm-13 44.2l11.6 1.5-1.4 44-20.1-2.6 9.9-42.9zm-23.2 100.8l10.1-43.8 22.9 3-1.5 47.9-31.5-7.1zm54.3 8l-2.7-49.3 21.5-3.1 11.2 44.9-30 7.5zm-3.4-63.7l-2.4-43.9 10.4-1.5 10.7 42.7-18.7 2.7zm5.8-54.5l-8.7 1.2-1.9-36.1c.6-.1 1.2-.2 1.8-.4l8.8 35.3zM220.2 139.8c0 9.7-3.9 18.4-10.3 24.8l-.7.7 7 8.2c.4-.4.9-.8 1.3-1.3 8.3-8.3 13.4-19.8 13.4-32.4 0-12.6-5.1-24.1-13.4-32.4-1.2-1.2-2.5-2.3-3.8-3.4l-7 8.2c1.1.9 2.2 1.8 3.2 2.9 6.4 6.3 10.3 15 10.3 24.7zM244.9 139.8c0 16.5-6.7 31.4-17.5 42.3-.7.7-1.4 1.3-2.1 2l7 8.2c.9-.8 1.8-1.7 2.7-2.5 12.8-12.7 20.7-30.4 20.7-49.9S247.8 102.8 235 90c-1.7-1.7-3.4-3.2-5.2-4.7l-7 8.2c1.6 1.3 3.1 2.7 4.6 4.1 10.8 10.8 17.5 25.7 17.5 42.2zM252.2 72.7c-2.1-2.1-4.3-4.1-6.6-6l-7 8.2c2.1 1.7 4.1 3.5 6 5.4 15.2 15.2 24.6 36.3 24.6 59.5 0 23.3-9.4 44.3-24.6 59.5-1.1 1.1-2.3 2.2-3.4 3.2l7 8.2c1.4-1.2 2.7-2.5 4-3.8 17.2-17.2 27.8-40.9 27.8-67.1 0-26.2-10.6-49.9-27.8-67.1zM142.6 172.2c.4.4.9.8 1.3 1.3l7-8.2-.7-.7c-6.4-6.4-10.3-15.1-10.3-24.8 0-9.7 3.9-18.4 10.3-24.8 1-1 2.1-2 3.2-2.9l-7-8.2c-1.3 1.1-2.6 2.2-3.8 3.4-8.3 8.3-13.4 19.8-13.4 32.4 0 12.8 5.1 24.3 13.4 32.5zM125.1 189.7c.9.9 1.8 1.7 2.7 2.5l7-8.2c-.7-.6-1.4-1.3-2.1-2-10.8-10.8-17.5-25.7-17.5-42.3 0-16.5 6.7-31.4 17.5-42.3 1.5-1.5 3-2.8 4.6-4.1l-7-8.2c-1.8 1.5-3.6 3.1-5.2 4.7-12.8 12.7-20.7 30.4-20.7 49.9.1 19.6 8 37.2 20.7 50zM115.5 199.3c-15.2-15.2-24.6-36.3-24.6-59.5 0-23.3 9.4-44.3 24.6-59.5 1.9-1.9 3.9-3.7 6-5.4l-7-8.2c-2.3 1.9-4.5 3.9-6.6 6-17.2 17.2-27.8 40.9-27.8 67.1 0 26.2 10.6 50 27.8 67.1 1.3 1.3 2.7 2.6 4 3.8l7-8.2c-1.1-1-2.3-2.1-3.4-3.2z"/></svg>