<svg xmlns="http://www.w3.org/2000/svg" xmlns:xlink="http://www.w3.org/1999/xlink" viewBox="0 0 246.5 246.5" enable-background="new 0 0 246.5 246.5"><style type="text/css">.st0{fill:#A5896F;}.st1{fill:#CDAB88;}.st2{fill:#4991A9;}.st3{fill:#DCEBEB;}.st4{clip-path:url(#SVGID_2_);}.st5{fill:#EEB7AC;}.st6{opacity:0.1;adobe-blending-mode:multiply;}.st7{fill:#FCD5C8;}.st8{fill:#216384;}.st9{fill:#EAEAEA;}.st10{adobe-blending-mode:overlay;}.st11{fill:#7DADA8;}.st12{fill:#B7DBDA;}.st13{fill:#6D9E9C;}.st14{fill:#FFFFFF;}.st15{fill:#BC918A;}.st16{fill:#E5B5A8;}.st17{fill:#878787;}.st18{fill:#B7B7B7;}.st19{fill:#383838;}.st20{clip-path:url(#SVGID_4_);}.st21{fill:#DDB98A;adobe-blending-mode:multiply;}.st22{fill:#EFEFEF;}.st23{fill:#32768A;}.st24{clip-path:url(#SVGID_6_);}.st25{clip-path:url(#SVGID_8_);}.st26{fill:#CDAB88;adobe-blending-mode:multiply;}.st27{fill:#544A41;}.st28{fill:#F7EDD7;}.st29{fill:#5E5747;}.st30{fill:none;stroke:#3F403F;stroke-width:2;stroke-miterlimit:10;}.st31{fill:#F7C534;}.st32{opacity:0.62;fill:#FFFFFF;adobe-blending-mode:overlay;}.st33{opacity:0.48;adobe-blending-mode:multiply;}.st34{fill:#757065;}.st35{clip-path:url(#SVGID_10_);}.st36{clip-path:url(#SVGID_12_);}.st37{fill:#4D8A3F;}.st38{fill:none;}.st39{fill:#7CC24D;}.st40{fill:#5BA545;}.st41{fill:#3F6731;}.st42{fill:#1F9ED1;}.st43{fill:#0584C4;}.st44{fill:#303030;}.st45{fill:#010101;}.st46{fill:#DDEDED;}.st47{clip-path:url(#SVGID_14_);}.st48{fill:#4297AB;}.st49{opacity:0.5;adobe-blending-mode:multiply;}.st50{fill:#4297AB;adobe-blending-mode:normal;}.st51{clip-path:url(#SVGID_14_);fill:#F05124;}.st52{clip-path:url(#SVGID_14_);fill:#4297AB;}.st53{fill:#7B7B7B;}.st54{fill:#5D7F3F;}.st55{fill:#3B5126;}.st56{fill:#C4342C;}.st57{fill:#E04541;}.st58{fill:#F04B4C;}.st59{opacity:0.46;fill:#FFFFFF;}.st60{opacity:0.82;fill:#FFFFFF;}.st61{fill:#7A1718;}.st62{fill:#A02B27;}.st63{clip-path:url(#SVGID_16_);}.st64{fill:#4A4F3A;}.st65{fill:#5F634C;}.st66{fill:#8C8E6E;}.st67{fill:#642D10;}.st68{fill:#A7A07B;}.st69{fill:#D8D2A7;}.st70{fill:#C4952C;}.st71{fill:#BFBAA5;}.st72{fill:#E2DDBF;}.st73{fill:#4C1416;}.st74{fill:#661218;}.st75{fill:#DDBD92;}.st76{fill:#897154;}</style><defs><circle id="SVGID_15_" cx="123.2" cy="123.2" r="123.2"/></defs><clipPath id="SVGID_2_"><use xlink:href="#SVGID_15_" overflow="visible"/></clipPath><g class="st4"><path class="st64" d="M410.4-47.4H188.8l221.6 165z"/><path class="st65" d="M187.8-46.3h-72.6l294.2 216.4v-51.4zM46.4-46.3l363 266.8v-50.4L115.2-46.3z"/><path class="st66" d="M-51.7-46.3v292.8h461.1v-26L46.4-46.3z"/><path class="st67" d="M31.6 172.7h194.6v-2.3c0-.6-.4-1-1-1H29.9c-.6 0-1 .4-1 1v28.5c0 .6.4 1 1 1h195.4c.6 0 1-.4 1-1v-2.3H31.6v-23.9z"/><path class="st68" d="M31.6 172.7h190.6v8H31.6z"/><path class="st69" d="M222.3 186.4v-5.7H31.6v15.8h190.7v-8l-13.6-2.1z"/><path class="st70" d="M38.5 141.7H215v-2.3c0-.6-.4-1-1-1H36.7c-.6 0-1 .4-1 1v28.5c0 .6.4 1 1 1H214c.6 0 1-.4 1-1v-2.3H38.5v-23.9z"/><path class="st71" d="M38.5 141.7H211v8H38.5z"/><path class="st72" d="M211 155.4v-5.7H38.5v15.8H211v-7.9l-13.6-2.2z"/><path class="st54" d="M122 50c.4.1.7.1 1.1.2.9-2.8 2.1-5.6 3.5-7.8 3.9-6 12.8-8.5 16.5-9.2l-1-1.7s-8.6 1.2-15.1 7.4c-2.7 2.6-4.4 7-5.4 11.3h.1c.1-.2.2-.2.3-.2z"/><path class="st55" d="M126.6 42.4c-1.5 2.2-2.6 5-3.5 7.8.5.1.9.2 1.4.3.6-1.5 1.1-2.9 1.6-3.9 1.9-4 3.8-6.1 7.4-8.1 4.3-2.4 11-2.9 11-2.9l-1.4-2.5c-3.7.8-12.6 3.3-16.5 9.3z"/><path class="st56" d="M149.6 75.8c0-9.3-2.5-18.1-6.8-25.7-1.9-.2-3.9-.3-6.1-.1-2.3.2-4.7.5-7.4 1.2 2.1 5.2 3.2 11 3.2 16.9 0 25.4-20.6 46.1-46 46.2 2.3 5 4.9 9.7 7.5 13.5 1.1.1 2.3.1 3.4.1 28.9 0 52.2-23.3 52.2-52.1z"/><path class="st57" d="M132.7 68.1c0-6-1.1-11.7-3.2-16.9-.6.1-1.2.3-1.9.5-1-.5-2-.9-3.1-1.2-.5 1.2-.9 2.5-1.4 3.8-.4-.1-.8-.1-1.2-.2-.4 0-.7-.1-1.1-.1.2-1.3.5-2.6.8-4h-.2c-1.5.1-2.9.5-4.3 1 .2 1.8.4 3.6.4 5.5 0 21.3-15.8 38.9-36.4 41.6 1.2 5.5 3.2 11.1 5.5 16.2 25.5-.1 46.1-20.7 46.1-46.2zM121.9 54.1c.3-1.3.7-2.6 1.1-3.9-.4-.1-.7-.1-1.1-.1h-.4c-.3 1.4-.6 2.7-.8 4 .5-.1.9-.1 1.2 0zM121.9 54.1c.4 0 .8.1 1.2.2.4-1.3.9-2.6 1.4-3.8-.5-.1-.9-.2-1.4-.3-.5 1.3-.9 2.6-1.2 3.9z"/><path class="st58" d="M117.5 56.5c0-1.9-.1-3.7-.4-5.5-.4.2-.9.4-1.3.6-3.4-.9-6.4-1.4-9.2-1.6-21.8-1.5-26.9 17.2-26.8 36.4 0 3.8.5 7.7 1.4 11.6 20.5-2.6 36.3-20.2 36.3-41.5zm-23.2 17c-4.2 0-7.7-3.4-7.7-7.7 0-4.2 3.4-7.7 7.7-7.7 4.2 0 7.7 3.4 7.7 7.7 0 4.2-3.5 7.7-7.7 7.7zM94.3 58.1c-4.2 0-7.7 3.4-7.7 7.7 0 4.2 3.4 7.7 7.7 7.7 4.2 0 7.7-3.4 7.7-7.7 0-4.2-3.5-7.7-7.7-7.7zM93 67.9c-1.7 0-3.1-1.4-3.1-3.1s1.4-3.1 3.1-3.1c1.7 0 3.1 1.4 3.1 3.1s-1.4 3.1-3.1 3.1z"/><path class="st59" d="M94.3 58.1c-4.2 0-7.7 3.4-7.7 7.7 0 4.2 3.4 7.7 7.7 7.7 4.2 0 7.7-3.4 7.7-7.7 0-4.2-3.5-7.7-7.7-7.7zM93 67.9c-1.7 0-3.1-1.4-3.1-3.1s1.4-3.1 3.1-3.1c1.7 0 3.1 1.4 3.1 3.1s-1.4 3.1-3.1 3.1z"/><circle class="st58" cx="93" cy="64.8" r="3.1"/><circle class="st59" cx="93" cy="64.8" r="3.1"/><circle class="st60" cx="93" cy="64.8" r="3.1"/><path class="st61" d="M163.4 79c-1.1 22.1-13.3 41.2-31.1 52h14.6c7.8-10.1 16.7-28.6 16.8-44.6 0-2.4-.1-4.9-.3-7.4z"/><path class="st73" d="M117.6 137.7c1.2.5 2.4.7 3.6.9v.1h1v-.1c2.4-.2 4.8-1.1 6.9-2.6 2.4 1.2 5 2.1 7.3 2.5.5.1 1 .1 1.5.1 1.4 0 3.4-1.3 5.6-3.5 1.1-1.1 2.2-2.4 3.4-4h-14.6c-4.5 2.8-9.5 5-14.7 6.6z"/><path class="st62" d="M163.4 79c-1.1-14.5-6.2-27.1-20.5-28.9 4.3 7.6 6.8 16.3 6.8 25.7 0 28.8-23.3 52.1-52.1 52.1-1.2 0-2.3 0-3.4-.1.8 1.2 1.6 2.3 2.4 3.3h35.8c17.7-10.9 29.9-30 31-52.1z"/><path class="st74" d="M96.5 131.1c1.2 1.5 2.3 2.9 3.4 4 2.2 2.3 4.2 3.5 5.6 3.5.5 0 1 0 1.5-.1 2.3-.3 4.9-1.3 7.3-2.5 1.1.7 2.2 1.3 3.3 1.7 5.2-1.6 10.2-3.8 14.7-6.6H96.5z"/><path class="st75" d="M-51.7 199.9h461.1v27.7H-51.7z"/><path class="st76" d="M-51.7 227.6h461.1v18.9H-51.7z"/></g></svg>