<svg xmlns="http://www.w3.org/2000/svg" xmlns:xlink="http://www.w3.org/1999/xlink" viewBox="0 0 246.5 246.5" enable-background="new 0 0 246.5 246.5"><style type="text/css">.st0{fill:#A5896F;}.st1{fill:#CDAB88;}.st2{fill:#4991A9;}.st3{fill:#DCEBEB;}.st4{clip-path:url(#SVGID_2_);}.st5{fill:#EEB7AC;}.st6{opacity:0.1;adobe-blending-mode:multiply;}.st7{fill:#FCD5C8;}.st8{fill:#216384;}.st9{fill:#EAEAEA;}.st10{adobe-blending-mode:overlay;}.st11{fill:#7DADA8;}.st12{fill:#B7DBDA;}.st13{fill:#6D9E9C;}.st14{fill:#FFFFFF;}.st15{fill:#BC918A;}.st16{fill:#E5B5A8;}.st17{fill:#878787;}.st18{fill:#B7B7B7;}.st19{fill:#383838;}.st20{clip-path:url(#SVGID_4_);}.st21{fill:#DDB98A;adobe-blending-mode:multiply;}.st22{fill:#EFEFEF;}.st23{fill:#32768A;}.st24{clip-path:url(#SVGID_6_);}.st25{clip-path:url(#SVGID_8_);}.st26{fill:#AD7F59;}.st27{fill:#544A41;}.st28{fill:#F7EDD7;}.st29{fill:#5E5747;}.st30{fill:none;stroke:#3F403F;stroke-width:2;stroke-miterlimit:10;}.st31{fill:#F7C534;}.st32{opacity:0.62;fill:#FFFFFF;adobe-blending-mode:overlay;}.st33{opacity:0.48;adobe-blending-mode:multiply;}.st34{fill:#AEA38C;adobe-blending-mode:normal;}.st35{fill:#CDAB88;adobe-blending-mode:multiply;}.st36{fill:#757065;}.st37{clip-path:url(#SVGID_10_);}.st38{clip-path:url(#SVGID_12_);}.st39{fill:#4D8A3F;}.st40{fill:none;}.st41{fill:#7CC24D;}.st42{fill:#5BA545;}.st43{fill:#3F6731;}.st44{fill:#1F9ED1;}.st45{fill:#0584C4;}.st46{fill:#303030;}.st47{fill:#010101;}.st48{fill:#DDEDED;}.st49{clip-path:url(#SVGID_14_);}.st50{fill:#4297AB;}.st51{opacity:0.5;adobe-blending-mode:multiply;}.st52{fill:#4297AB;adobe-blending-mode:normal;}.st53{clip-path:url(#SVGID_14_);fill:#F05124;}.st54{clip-path:url(#SVGID_14_);fill:#4297AB;}.st55{fill:#7B7B7B;}.st56{fill:#5D7F3F;}.st57{fill:#3B5126;}.st58{fill:#C4342C;}.st59{fill:#E04541;}.st60{fill:#F04B4C;}.st61{opacity:0.46;fill:#FFFFFF;}.st62{opacity:0.82;fill:#FFFFFF;}.st63{fill:#7A1718;}.st64{fill:#A02B27;}.st65{clip-path:url(#SVGID_16_);}.st66{fill:#4A4F3A;}.st67{fill:#5F634C;}.st68{fill:#8C8E6E;}.st69{fill:#642D10;}.st70{fill:#A7A07B;}.st71{fill:#D8D2A7;}.st72{fill:#C4952C;}.st73{fill:#BFBAA5;}.st74{fill:#E2DDBF;}.st75{fill:#4C1416;}.st76{fill:#661218;}.st77{fill:#DDBD92;}.st78{fill:#897154;}</style><circle class="st1" cx="123.2" cy="123.2" r="123.2"/><defs><circle id="SVGID_7_" cx="123.2" cy="123.2" r="123.2"/></defs><clipPath id="SVGID_2_"><use xlink:href="#SVGID_7_" overflow="visible"/></clipPath><g class="st4"><path class="st26" d="M212.1 57.5H40l-8.2 8.1V189H204l8.1-8.1z"/><path class="st27" d="M40 57.5h172.1v123.4H40z"/><path class="st28" d="M57 73.2h138.2v92.1H57z"/><path class="st29" d="M76.4 92.2H176v-2.5H76.4M76.4 104.6H176v-2.5H76.4M87.1 151.5h78.3v-2.6H87.1"/><path class="st30" d="M98.7 145.6s-5.6-4.7-5.7-9.4c-.1-4.6 2.7-5.7 4-5.3 1.3.4 7.7 3.4 2.6 17.1l-5.1 13.6s-2.8-10.8 2.7-13.3 7.8-4.3 7.8-4.3 3.2-2 4.9 1.2 7.2.5 7.2.5M126.9 139.4l-2.4 14.1s13.5.2 15.1-7.1c1.5-7.3-17.3-11.8-17.3-11.8M125.1 150.4s1.2-3 6.3-4.1 15.6 0 15.6 0 2.1.8 8.2-.5 8.2-6.8 8.2-6.8"/><path class="st31" d="M125.1 111.7l2.9-1.4 1.5 2.9 3.3.5-.5 3.3 2.3 2.4-2.3 2.3.5 3.3-3.3.5-1.5 2.9-2.9-1.4-3 1.4-1.5-2.9-3.3-.5.5-3.3-2.3-2.3 2.3-2.4-.5-3.3 3.3-.5 1.5-2.9z"/><path class="st32" d="M57.1 165.4V73.3h138.2z"/><path class="st34" d="M195.2 73.2H57v3h135.7v89.1h2.5z"/></g><defs><circle id="SVGID_13_" cx="840.4" cy="123.2" r="123.2"/></defs><clipPath id="SVGID_4_"><use xlink:href="#SVGID_13_" overflow="visible"/></clipPath></svg>