<svg xmlns="http://www.w3.org/2000/svg" viewBox="0 0 364.1 364.1" enable-background="new 0 0 364.1 364.1"><style type="text/css">.st0{fill:#A5896F;} .st1{fill:#CDAB88;} .st2{fill:#4991A9;} .st3{fill:#DCEBEB;} .st4{clip-path:url(#SVGID_2_);} .st5{fill:#EEB7AC;} .st6{opacity:0.1;adobe-blending-mode:multiply;} .st7{fill:#FCD5C8;} .st8{fill:#216384;} .st9{fill:#EAEAEA;} .st10{adobe-blending-mode:overlay;} .st11{fill:#7DADA8;} .st12{fill:#B7DBDA;} .st13{fill:#6D9E9C;} .st14{fill:#FFFFFF;} .st15{fill:#BC918A;} .st16{fill:#E5B5A8;} .st17{fill:#878787;} .st18{fill:#B7B7B7;} .st19{fill:#383838;} .st20{clip-path:url(#SVGID_4_);} .st21{fill:#DDB98A;adobe-blending-mode:multiply;} .st22{fill:#EFEFEF;} .st23{fill:#32768A;} .st24{clip-path:url(#SVGID_6_);} .st25{clip-path:url(#SVGID_8_);} .st26{fill:#AD7F59;} .st27{fill:#544A41;} .st28{fill:#F7EDD7;} .st29{fill:#5E5747;} .st30{fill:none;stroke:#3F403F;stroke-width:2;stroke-miterlimit:10;} .st31{fill:#F7C534;} .st32{opacity:0.62;fill:#FFFFFF;adobe-blending-mode:overlay;} .st33{opacity:0.48;adobe-blending-mode:multiply;} .st34{fill:#AEA38C;adobe-blending-mode:normal;} .st35{fill:#CDAB88;adobe-blending-mode:multiply;} .st36{fill:#757065;} .st37{clip-path:url(#SVGID_10_);} .st38{clip-path:url(#SVGID_12_);} .st39{fill:#4D8A3F;} .st40{fill:none;} .st41{fill:#7CC24D;} .st42{fill:#5BA545;} .st43{fill:#3F6731;} .st44{fill:#1F9ED1;} .st45{fill:#0584C4;} .st46{fill:#303030;} .st47{fill:#010101;} .st48{fill:#DDEDED;} .st49{clip-path:url(#SVGID_14_);} .st50{fill:#4297AB;} .st51{opacity:0.5;adobe-blending-mode:multiply;} .st52{fill:#4297AB;adobe-blending-mode:normal;} .st53{clip-path:url(#SVGID_14_);fill:#F05124;} .st54{clip-path:url(#SVGID_14_);fill:#4297AB;} .st55{fill:#7B7B7B;} .st56{fill:#5D7F3F;} .st57{fill:#3B5126;} .st58{fill:#C4342C;} .st59{fill:#E04541;} .st60{fill:#F04B4C;} .st61{opacity:0.46;fill:#FFFFFF;} .st62{opacity:0.82;fill:#FFFFFF;} .st63{fill:#7A1718;} .st64{fill:#A02B27;} .st65{clip-path:url(#SVGID_16_);} .st66{fill:#4A4F3A;} .st67{fill:#5F634C;} .st68{fill:#8C8E6E;} .st69{fill:#642D10;} .st70{fill:#A7A07B;} .st71{fill:#D8D2A7;} .st72{fill:#C4952C;} .st73{fill:#BFBAA5;} .st74{fill:#E2DDBF;} .st75{fill:#4C1416;} .st76{fill:#661218;} .st77{fill:#DDBD92;} .st78{fill:#897154;} .st79{fill:#337D9C;}</style><circle class="st79" cx="182.1" cy="182.1" r="182.1"/><path class="st14" d="M215.1 225.9c0 2.8-2.2 5-5 5l-120-30c-2.8 0-5-2.2-5-5v-30c0-2.8 2.2-5 5-5l120-30c2.8 0 5 2.2 5 5v90zM157.4 220.5c-2.7 6.8-9.3 11.6-17 11.6-10.1 0-18.2-8.2-18.2-18.2 0-.7.1-1.4.1-2.1l-7.4-1.8c-.2 1.3-.3 2.6-.3 3.9 0 14.3 11.6 25.8 25.8 25.8 11.3 0 20.8-7.2 24.4-17.3l-7.4-1.9zM82.1 200.3v-40.2l-3 .8c-2.8 0-5 2.2-5 5v30c0 2.8 2.2 5 5 5l3.1.8c-.1-.5-.1-1-.1-1.4zM232.6 137.3l40.2-24.1 4.9 8.7zM242.5 178.4l46.5-6.3 1 10zM232.7 224.8l45.4 12.1-2.9 9.6z"/></svg>