<svg xmlns="http://www.w3.org/2000/svg" viewBox="0 0 457.5 158.4" enable-background="new 0 0 457.5 158.4"><style type="text/css">.st0{fill:#A5896F;}.st1{fill:#CDAB88;}.st2{fill:#4991A9;}.st3{fill:#DCEBEB;}.st4{clip-path:url(#SVGID_2_);}.st5{fill:#EEB7AC;}.st6{opacity:0.1;adobe-blending-mode:multiply;}.st7{fill:#FCD5C8;}.st8{fill:#216384;}.st9{fill:#EAEAEA;}.st10{adobe-blending-mode:overlay;}.st11{fill:#7DADA8;}.st12{fill:#B7DBDA;}.st13{fill:#6D9E9C;}.st14{fill:#FFFFFF;}.st15{fill:#BC918A;}.st16{fill:#E5B5A8;}.st17{fill:#878787;}.st18{fill:#B7B7B7;}.st19{fill:#383838;}.st20{clip-path:url(#SVGID_4_);}.st21{fill:#DDB98A;adobe-blending-mode:multiply;}.st22{fill:#EFEFEF;}.st23{fill:#32768A;}.st24{clip-path:url(#SVGID_6_);}.st25{clip-path:url(#SVGID_8_);}.st26{fill:#AD7F59;}.st27{fill:#544A41;}.st28{fill:#F7EDD7;}.st29{fill:#5E5747;}.st30{fill:none;stroke:#3F403F;stroke-width:2;stroke-miterlimit:10;}.st31{fill:#F7C534;}.st32{opacity:0.62;fill:#FFFFFF;adobe-blending-mode:overlay;}.st33{opacity:0.48;adobe-blending-mode:multiply;}.st34{fill:#AEA38C;adobe-blending-mode:normal;}.st35{fill:#CDAB88;adobe-blending-mode:multiply;}.st36{fill:#757065;}.st37{clip-path:url(#SVGID_10_);}.st38{clip-path:url(#SVGID_12_);}.st39{fill:#4D8A3F;}.st40{fill:none;}.st41{fill:#7CC24D;}.st42{fill:#5BA545;}.st43{fill:#3F6731;}.st44{fill:#1F9ED1;}.st45{fill:#0584C4;}.st46{fill:#303030;}.st47{fill:#010101;}.st48{fill:#DDEDED;}.st49{clip-path:url(#SVGID_14_);}.st50{fill:#4297AB;}.st51{opacity:0.5;adobe-blending-mode:multiply;}.st52{fill:#4297AB;adobe-blending-mode:normal;}.st53{clip-path:url(#SVGID_14_);fill:#F05124;}.st54{clip-path:url(#SVGID_14_);fill:#4297AB;}.st55{fill:#7B7B7B;}.st56{fill:#5D7F3F;}.st57{fill:#3B5126;}.st58{fill:#C4342C;}.st59{fill:#E04541;}.st60{fill:#F04B4C;}.st61{opacity:0.46;fill:#FFFFFF;}.st62{opacity:0.82;fill:#FFFFFF;}.st63{fill:#7A1718;}.st64{fill:#A02B27;}.st65{clip-path:url(#SVGID_16_);}.st66{fill:#4A4F3A;}.st67{fill:#5F634C;}.st68{fill:#8C8E6E;}.st69{fill:#642D10;}.st70{fill:#A7A07B;}.st71{fill:#D8D2A7;}.st72{fill:#C4952C;}.st73{fill:#BFBAA5;}.st74{fill:#E2DDBF;}.st75{fill:#4C1416;}.st76{fill:#661218;}.st77{fill:#DDBD92;}.st78{fill:#897154;}.st79{fill:#337D9C;}</style><path class="st14" d="M24 75.7c0 1.4-.3 2.8-.8 4.1-.6 1.3-1.3 2.5-2.2 3.5-.9 1-2 1.8-3.3 2.4-1.3.6-2.6 1-4.1 1.1l-3.2.2c-1.4.1-2.8-.1-4.1-.6-1.3-.5-2.4-1.1-3.3-2-.9-.9-1.7-1.9-2.2-3.2C.3 80 0 78.7 0 77.3V39.1c0-1.4.3-2.8.8-4.1.6-1.3 1.3-2.5 2.2-3.5.9-1 2-1.8 3.3-2.4 1.3-.6 2.6-1 4.1-1.1l3.1-.2c1.4-.1 2.8.1 4.1.6 1.3.5 2.4 1.1 3.3 2 .9.9 1.7 1.9 2.2 3.2.5 1.2.8 2.6.8 4v38.1zm-9.7-37.1c0-.5-.2-1-.6-1.4-.4-.4-.9-.5-1.4-.5h-.7c-.6 0-1 .3-1.4.7-.4.4-.6.9-.6 1.4v37.4c0 .6.2 1 .6 1.4.4.4.9.5 1.4.5h.7c.6 0 1-.3 1.4-.7.4-.4.6-.9.6-1.4V38.6zM53.8 26.9v46.9c0 1.4-.3 2.8-.8 4.1-.6 1.3-1.3 2.5-2.2 3.5-.9 1-2 1.8-3.3 2.4-1.3.6-2.6 1-4.1 1.1l-3.1.2c-1.4.1-2.8-.1-4.1-.6-1.3-.5-2.4-1.1-3.3-2-.9-.9-1.7-1.9-2.2-3.2-.6-1.2-.8-2.6-.8-4V28.5c0-.8.4-1.2 1.2-1.2l7.4-.5c.8 0 1.2.3 1.2 1.1v46.5c0 .6.2 1 .6 1.4.4.4.9.5 1.4.5h.7c.6 0 1-.3 1.4-.7.4-.4.6-.9.6-1.4V27.6c0-.8.4-1.2 1.2-1.2l7.4-.5c.4-.1.8.3.8 1zM86 80.4c.2.8-.1 1.2-.8 1.2l-7.5.5c-.3 0-.6-.1-1-.3-.3-.2-.5-.5-.6-.8l-6-19.9v21.4l-.1-.7c-.1.6-.5.9-1.1.9l-7.4.5c-.8 0-1.2-.3-1.2-1.1V26.5c0-.8.4-1.2 1.2-1.2l12.4-.8c1.4-.1 2.8.1 4.1.6 1.3.5 2.4 1.1 3.3 2 .9.9 1.7 1.9 2.2 3.2.5 1.2.8 2.6.8 4v13.5c0 2-.5 3.9-1.6 5.6-1 1.7-2.4 3-4.1 4l7.4 23zM70 50.2l2.6-.2c.6 0 1-.3 1.4-.7.4-.4.6-.9.6-1.4V35.3c0-.5-.2-1-.6-1.4-.4-.4-.9-.5-1.4-.5l-2.6.2v16.6zM124.2 45.9c-.7.8-1.5 1.4-2.4 1.8.9.3 1.7.7 2.4 1.3.5.5.9 1.2 1.3 2.1.3 1.2.4 2.4.4 3.5v14.6c0 1.4-.3 2.8-.8 4.1-.6 1.3-1.3 2.5-2.2 3.5-.9 1-2 1.8-3.3 2.4-1.3.6-2.6 1-4.1 1.1l-3.1.2c-1.4.1-2.8-.1-4.1-.6-1.3-.5-2.4-1.1-3.3-2-.9-.9-1.7-1.9-2.2-3.2-.6-1.2-.8-2.6-.8-4V56.1c0-1.2.1-2.4.4-3.6.2-.5.3-.9.5-1.2.2-.4.5-.7.8-1 .7-.7 1.5-1.2 2.4-1.6-.9-.3-1.7-.8-2.4-1.5-.8-.8-1.3-1.9-1.6-3.2-.1-.3-.1-.7-.1-1V32.6c0-1.4.3-2.8.8-4.1.6-1.3 1.3-2.5 2.2-3.5.9-1 2-1.8 3.3-2.4 1.3-.6 2.6-1 4.1-1.1l3.1-.2c1.4-.1 2.8.1 4.1.6 1.3.5 2.4 1.1 3.3 2 .9.9 1.7 1.9 2.2 3.2.6 1.2.8 2.6.8 4v10.4c0 .4-.1.7-.1 1-.3 1.3-.8 2.5-1.6 3.4zM116.3 32c0-.5-.2-1-.6-1.4-.4-.4-.9-.5-1.4-.5h-.7c-.6 0-1 .3-1.4.7-.4.4-.6.9-.6 1.4v9c0 .9.1 1.5.4 1.7.1.1.3.2.5.4s.6.3 1 .2l.8-.1c.4 0 .7-.1 1-.4l.5-.5c.3-.3.4-.9.4-1.8V32zm0 23.6c0-.4 0-.9-.1-1.3s-.2-.8-.3-1c-.1-.1-.3-.2-.5-.4s-.5-.2-1-.2l-.8.1c-.5 0-.8.1-1 .3-.2.2-.3.3-.5.4-.2.2-.3.6-.3 1-.1.4-.1.9-.1 1.3v13.8c0 .6.2 1 .6 1.4.4.4.9.5 1.4.5h.7c.5 0 1-.3 1.4-.7.4-.4.6-.9.6-1.4V55.6zM176.2 19.1v55.6c0 .8-.4 1.2-1.2 1.2l-7.9.5c-.8 0-1.2-.3-1.2-1.1V49.2l-5.5 21.7c-.1.3-.2.4-.4.4s-.3-.1-.4-.4l-5.5-21V76c0 .8-.4 1.2-1.2 1.2l-7.9.5c-.8 0-1.2-.3-1.2-1.1V21.2c0-.8.4-1.2 1.2-1.2l7-.4c.3 0 .6.1.9.3.2.2.4.5.5.8l6.5 29.2 6.5-30c.1-.3.3-.6.5-.8.2-.3.5-.4.9-.4l7-.4c1-.3 1.4 0 1.4.8zM193.3 73.6c0 .8-.4 1.2-1.2 1.2l-7.4.5c-.8 0-1.2-.3-1.2-1.1V18.6c0-.8.4-1.2 1.2-1.2l7.4-.5c.8 0 1.2.3 1.2 1.1v55.6zM222.2 64.4v7.4c0 .8-.4 1.2-1.2 1.2l-11.2.7H209.5l-7.4.5c-.8 0-1.2-.3-1.2-1.1V17.5c0-.8.4-1.2 1.2-1.2l7.4-.5c.8 0 1.2.3 1.2 1.1V64l10.3-.7c.8-.1 1.2.3 1.2 1.1zM249.5 62.6V70c0 .8-.4 1.2-1.2 1.2l-11.2.7H236.8l-7.4.5c-.8 0-1.2-.3-1.2-1.1V15.8c0-.8.4-1.2 1.2-1.2l7.4-.5c.8 0 1.2.3 1.2 1.1v47.1l10.3-.7c.8-.1 1.2.3 1.2 1zM265 69c0 .8-.4 1.2-1.2 1.2l-7.4.5c-.8 0-1.2-.3-1.2-1.1V14c0-.8.4-1.2 1.2-1.2l7.4-.5c.8 0 1.2.3 1.2 1.1V69zM295.6 58.4c0 1.4-.3 2.8-.8 4.1-.6 1.3-1.3 2.5-2.2 3.5-.9 1-2 1.8-3.3 2.4-1.3.6-2.6 1-4.1 1.1l-3.1.2c-1.4.1-2.8-.1-4.1-.6-1.3-.5-2.4-1.1-3.3-2-.9-.9-1.7-1.9-2.2-3.2-.6-1.2-.8-2.6-.8-4V21.7c0-1.4.3-2.8.8-4.1.6-1.3 1.3-2.5 2.2-3.5.9-1 2-1.8 3.3-2.4 1.3-.6 2.6-1 4.1-1.1l3.1-.2c1.4-.1 2.8.1 4.1.6 1.3.5 2.4 1.1 3.3 2 .9.9 1.7 1.9 2.2 3.2.5 1.2.8 2.6.8 4v38.2zm-9.7-37.2c0-.5-.2-1-.6-1.4-.4-.4-.9-.5-1.4-.5h-.7c-.6 0-1 .3-1.4.7-.4.4-.6.9-.6 1.4v37.4c0 .6.2 1 .6 1.4.4.4.9.5 1.4.5h.7c.6 0 1-.3 1.4-.7.4-.4.6-.9.6-1.4V21.2zM328.7 9.3v55.6c0 .8-.4 1.2-1.2 1.2l-5.3.3c-.3 0-.6-.1-1-.3-.3-.2-.5-.4-.6-.7l-8.8-26.8V66c0 .8-.4 1.2-1.2 1.2l-7.4.5c-.8 0-1.2-.3-1.2-1.1V11c0-.8.4-1.2 1.2-1.2l5.5-.3c.3 0 .6.1 1 .3.3.2.5.4.6.7l8.6 26V10c0-.8.4-1.2 1.2-1.2l7.4-.5c.8-.1 1.2.3 1.2 1zM367.3 6.9v7.4c0 .8-.4 1.2-1.2 1.2l-9.4.6V28l8.2-.5c.8 0 1.2.3 1.2 1.1V36c0 .8-.4 1.2-1.2 1.2l-8.2.5v25.5c0 .8-.4 1.2-1.2 1.2l-7.4.5c-.8 0-1.2-.3-1.2-1.1V8.2c0-.8.4-1.2 1.2-1.2L366 5.9c.9-.2 1.3.2 1.3 1zM395.4 60.6c.1.8-.2 1.2-1 1.2l-7.5.5c-.7 0-1.1-.3-1.2-1.1l-.7-8.9-5.1.3-.7 9c-.1.8-.5 1.2-1.2 1.2l-7.5.5c-.8 0-1.1-.3-1-1.1l6.2-56c.1-.8.5-1.2 1.3-1.2l10.9-.7c.8 0 1.2.3 1.3 1.1l6.2 55.2zm-11.1-17.4l-1.6-22.3h-.7l-1.6 22.5 3.9-.2zM427.3 3v55.6c0 .8-.4 1.2-1.2 1.2l-5.3.3c-.3 0-.6-.1-1-.3-.3-.2-.5-.4-.6-.7l-8.8-26.8v27.3c0 .8-.4 1.2-1.2 1.2l-7.4.5c-.8 0-1.2-.3-1.2-1.1V4.7c0-.8.4-1.2 1.2-1.2l5.5-.3c.3 0 .6.1 1 .3.3.2.5.4.6.7l8.6 26V3.6c0-.8.4-1.2 1.2-1.2l7.4-.5c.8 0 1.2.4 1.2 1.1zM451.2.6c1.3.5 2.4 1.1 3.3 2 .9.9 1.7 1.9 2.2 3.2.6 1.2.8 2.6.8 4v3.1c0 .8-.4 1.3-1.1 1.6l-7.5 2.5c-.7.3-1.1 0-1.1-.8v-5.4c0-.5-.2-1-.6-1.4-.4-.4-.9-.5-1.4-.5h-.7c-.6 0-1 .3-1.4.7-.4.4-.6.9-.6 1.4v7.5c.1.6.2 1.1.3 1.6.2.4.5.9.9 1.3l10.8 7.4c.9.7 1.4 1.5 1.7 2.2.2.8.4 1.7.5 2.7V48c0 1.4-.3 2.8-.8 4.1-.6 1.3-1.3 2.5-2.2 3.5-.9 1-2 1.8-3.3 2.4s-2.6 1-4.1 1.1l-3.1.2c-1.4.1-2.8-.1-4.1-.6-1.3-.5-2.4-1.1-3.3-2-.9-.9-1.7-1.9-2.2-3.2-.6-1.2-.8-2.6-.8-4v-7.9c0-.8.4-1.3 1.1-1.6l7.5-2.5c.7-.3 1.1 0 1.1.8v10.2c0 .6.2 1 .6 1.4.4.4.9.5 1.4.5h.7c.6 0 1-.3 1.4-.7.4-.4.6-.9.6-1.4v-11c-.1-.7-.2-1.3-.3-1.9-.2-.5-.5-1-1-1.4l-10.7-7.5c-.8-.7-1.4-1.5-1.8-2.2-.4-.7-.5-1.8-.5-3v-9.9c0-1.4.3-2.8.8-4.1.5-1.3 1.3-2.5 2.2-3.5.9-1 2-1.8 3.3-2.4 1.3-.6 2.6-1 4.1-1.1l3.1-.2c1.5-.2 2.9 0 4.2.5zM81.8 99.7v55.6c0 .8-.4 1.2-1.2 1.2l-7.9.5c-.8 0-1.2-.3-1.2-1.1v-26.1L66 151.5c-.1.3-.2.4-.4.4s-.3-.1-.4-.4l-5.5-21v26.1c0 .8-.4 1.2-1.2 1.2l-7.9.5c-.8 0-1.2-.3-1.2-1.1v-55.6c0-.8.4-1.2 1.2-1.2l7-.5c.3 0 .6.1.9.3.2.2.4.5.5.8l6.5 29.2 6.5-30c.1-.3.3-.6.5-.8.2-.3.5-.4.9-.4l7-.5c1 0 1.4.4 1.4 1.2zM109.5 146.1v7.4c0 .8-.4 1.2-1.2 1.2l-17.9 1.1c-.8 0-1.2-.3-1.2-1.1V99.2c0-.8.4-1.2 1.2-1.2l17.9-1.1c.8 0 1.2.3 1.2 1.1v7.4c0 .8-.4 1.2-1.2 1.2l-9.4.6V119l8.2-.5c.8 0 1.2.3 1.2 1.1v7.4c0 .8-.4 1.2-1.2 1.2l-8.2.5v17l9.4-.6c.8-.1 1.2.3 1.2 1zM140.5 151.5c.1.8-.2 1.2-1 1.2l-7.5.5c-.7 0-1.1-.3-1.2-1.1l-.7-8.9-5.1.3-.7 9c-.1.8-.5 1.2-1.2 1.2l-7.5.5c-.8 0-1.1-.3-1-1.1l6.2-56c.1-.8.6-1.2 1.3-1.2l10.9-.7c.8 0 1.2.3 1.3 1.1l6.2 55.2zM129.4 134l-1.6-22.3h-.7l-1.6 22.5 3.9-.2zM172.4 93.9v55.6c0 .8-.4 1.2-1.2 1.2l-5.3.3c-.3 0-.6-.1-1-.3-.3-.2-.5-.4-.6-.7l-8.8-26.8v27.3c0 .8-.4 1.2-1.2 1.2l-7.4.5c-.8 0-1.2-.3-1.2-1.1V95.6c0-.8.4-1.2 1.2-1.2l5.5-.3c.3 0 .6.1 1 .3.3.2.5.4.6.7l8.6 26V94.5c0-.8.4-1.2 1.2-1.2l7.4-.5c.8-.1 1.2.3 1.2 1.1zM212.4 119.2c.8.7 1.3 1.6 1.7 2.6.4 1 .6 2.2.6 3.4v12.2c0 1.4-.3 2.8-.8 4.1-.6 1.3-1.3 2.5-2.2 3.5-.9 1-2 1.8-3.3 2.4-1.3.6-2.6 1-4.1 1.1l-12.4.8c-.8 0-1.2-.3-1.2-1.1V92.7c0-.8.4-1.2 1.2-1.2l12.4-.8c1.4-.1 2.8.1 4.1.6 1.3.5 2.4 1.1 3.3 2 .9.9 1.7 1.9 2.2 3.2.6 1.2.8 2.6.8 4v8.3c0 2.5-.8 4.7-2.3 6.5-.8.9-1.8 1.7-3 2.3 1.3.3 2.3.9 3 1.6zm-7.3-17.7c0-.5-.2-1-.6-1.4-.4-.4-.9-.5-1.4-.5l-2.6.2v14.1l2.6-.2c.6 0 1-.3 1.4-.7.4-.4.6-.9.6-1.4v-10.1zm0 23c0-.5-.2-1-.6-1.4-.4-.4-.9-.5-1.4-.5l-2.6.2V140l2.6-.2c.6 0 1-.3 1.4-.7.4-.4.6-.9.6-1.4v-13.2zM244.1 89.3v46.9c0 1.4-.3 2.8-.8 4.1-.6 1.3-1.3 2.5-2.2 3.5-.9 1-2 1.8-3.3 2.4-1.3.6-2.6 1-4.1 1.1l-3.1.2c-1.4.1-2.8-.1-4.1-.6-1.3-.5-2.4-1.1-3.3-2-.9-.9-1.7-1.9-2.2-3.2-.6-1.2-.8-2.6-.8-4V90.8c0-.8.4-1.2 1.2-1.2l7.4-.5c.8 0 1.2.3 1.2 1.1v46.5c0 .6.2 1 .6 1.4.4.4.9.5 1.4.5h.7c.5 0 1-.3 1.4-.7.4-.4.6-.9.6-1.4V89.9c0-.8.4-1.2 1.2-1.2l7.4-.5c.4 0 .8.3.8 1.1zM267.1 86.9c1.3.5 2.4 1.1 3.3 2 .9.9 1.7 1.9 2.2 3.2.6 1.2.8 2.6.8 4v3.1c0 .8-.4 1.3-1.1 1.6l-7.5 2.5c-.7.3-1.1 0-1.1-.8v-5.4c0-.5-.2-1-.6-1.4-.4-.4-.9-.5-1.4-.5h-.7c-.6 0-1 .3-1.4.7-.4.4-.6.9-.6 1.4v7.5c.1.6.2 1.1.3 1.6.2.4.5.9.9 1.3l10.8 7.4c.9.7 1.4 1.5 1.7 2.2.2.8.4 1.7.5 2.7v14.2c0 1.4-.3 2.8-.8 4.1-.6 1.3-1.3 2.5-2.2 3.5-.9 1-2 1.8-3.3 2.4-1.3.6-2.6 1-4.1 1.1l-3.1.2c-1.4.1-2.8-.1-4.1-.6-1.3-.5-2.4-1.1-3.3-2-.9-.9-1.7-1.9-2.2-3.2-.6-1.2-.8-2.6-.8-4v-7.9c0-.8.4-1.3 1.1-1.6l7.5-2.5c.7-.3 1.1 0 1.1.8v10.2c0 .6.2 1 .6 1.4.4.4.9.5 1.4.5h.7c.6 0 1-.3 1.4-.7.4-.4.6-.9.6-1.4v-10.9c-.1-.7-.2-1.3-.3-1.9-.2-.5-.5-1-1-1.4l-10.7-7.5c-.8-.7-1.4-1.5-1.8-2.2-.4-.7-.5-1.8-.5-3v-9.9c0-1.4.3-2.8.8-4.1.5-1.3 1.3-2.5 2.2-3.5.9-1 2-1.8 3.3-2.4 1.3-.6 2.6-1 4.1-1.1l3.1-.2c1.6-.2 2.9 0 4.2.5zM289.3 142c0 .8-.4 1.2-1.2 1.2l-7.4.5c-.8 0-1.2-.3-1.2-1.1V87c0-.8.4-1.2 1.2-1.2l7.4-.5c.8 0 1.2.3 1.2 1.1V142zM323.2 84.2v55.6c0 .8-.4 1.2-1.2 1.2l-5.3.3c-.3 0-.6-.1-1-.3-.3-.2-.5-.4-.6-.7l-8.8-26.8v27.3c0 .8-.4 1.2-1.2 1.2l-7.4.5c-.8 0-1.2-.3-1.2-1.1V85.9c0-.8.4-1.2 1.2-1.2l5.5-.3c.3 0 .6.1 1 .3.3.2.5.4.6.7l8.6 26V84.8c0-.8.4-1.2 1.2-1.2l7.4-.5c.9 0 1.2.3 1.2 1.1zM351 130.7v7.4c0 .8-.4 1.2-1.2 1.2l-17.9 1.1c-.8 0-1.2-.3-1.2-1.1V83.7c0-.8.4-1.2 1.2-1.2l17.9-1.1c.8 0 1.2.3 1.2 1.1v7.4c0 .8-.4 1.2-1.2 1.2l-9.4.6v11.9l8.2-.5c.8 0 1.2.3 1.2 1.1v7.4c0 .8-.4 1.2-1.2 1.2l-8.2.5v17l9.4-.6c.8-.2 1.2.2 1.2 1zM373.5 80.1c1.3.5 2.4 1.1 3.3 2 .9.9 1.7 1.9 2.2 3.2.6 1.2.8 2.6.8 4v3.1c0 .8-.4 1.3-1.1 1.6l-7.5 2.5c-.7.3-1.1 0-1.1-.8v-5.4c0-.5-.2-1-.6-1.4-.4-.4-.9-.5-1.4-.5h-.7c-.6 0-1 .3-1.4.7-.4.4-.6.9-.6 1.4V98c.1.6.2 1.1.3 1.6.2.4.5.9.9 1.3l10.8 7.4c.9.7 1.4 1.5 1.7 2.2.2.8.4 1.7.5 2.7v14.2c0 1.4-.3 2.8-.8 4.1-.6 1.3-1.3 2.5-2.2 3.5-.9 1-2 1.8-3.3 2.4-1.3.6-2.6 1-4.1 1.1l-3.1.2c-1.4.1-2.8-.1-4.1-.6-1.3-.5-2.4-1.1-3.3-2-.9-.9-1.7-1.9-2.2-3.2-.6-1.2-.8-2.6-.8-4V121c0-.8.4-1.3 1.1-1.6l7.5-2.5c.7-.3 1.1 0 1.1.8V128c0 .6.2 1 .6 1.4.4.4.9.5 1.4.5h.7c.6 0 1-.3 1.4-.7.4-.4.6-.9.6-1.4v-10.9c-.1-.7-.2-1.3-.3-1.9-.2-.5-.5-1-1-1.4l-10.7-7.5c-.8-.7-1.4-1.5-1.8-2.2-.4-.7-.5-1.8-.5-3V91c0-1.4.3-2.8.8-4.1.5-1.3 1.3-2.5 2.2-3.5.9-1 2-1.8 3.3-2.4 1.3-.6 2.6-1 4.1-1.1l3.1-.2c1.6-.3 3-.1 4.2.4zM402.5 78.2c1.3.5 2.4 1.1 3.3 2 .9.9 1.7 1.9 2.2 3.2.6 1.2.8 2.6.8 4v3.1c0 .8-.4 1.3-1.1 1.6l-7.5 2.5c-.7.3-1.1 0-1.1-.8v-5.4c0-.5-.2-1-.6-1.4-.4-.4-.9-.5-1.4-.5h-.7c-.6 0-1 .3-1.4.7-.4.4-.6.9-.6 1.4v7.5c.1.6.2 1.1.3 1.6s.5.9.9 1.3l10.8 7.4c.9.7 1.4 1.5 1.7 2.2.2.8.4 1.7.5 2.7v14.2c0 1.4-.3 2.8-.8 4.1-.6 1.3-1.3 2.5-2.2 3.5-.9 1-2 1.8-3.3 2.4s-2.6 1-4.1 1.1l-3.1.2c-1.4.1-2.8-.1-4.1-.6-1.3-.5-2.4-1.1-3.3-2-.9-.9-1.7-1.9-2.2-3.2-.6-1.2-.8-2.6-.8-4v-7.9c0-.8.4-1.3 1.1-1.6l7.5-2.5c.7-.3 1.1 0 1.1.8V126c0 .6.2 1 .6 1.4.4.4.9.5 1.4.5h.7c.6 0 1-.3 1.4-.7.4-.4.6-.9.6-1.4v-10.9c-.1-.7-.2-1.3-.3-1.9-.2-.5-.5-1-1-1.4l-10.7-7.5c-.8-.7-1.4-1.5-1.8-2.2-.4-.7-.5-1.8-.5-3V89c0-1.4.3-2.8.8-4.1.5-1.3 1.3-2.5 2.2-3.5.9-1 2-1.8 3.3-2.4 1.3-.6 2.6-1 4.1-1.1l3.1-.2c1.6-.1 2.9.1 4.2.5z"/></svg>