<svg xmlns="http://www.w3.org/2000/svg" xmlns:xlink="http://www.w3.org/1999/xlink" viewBox="0 0 246.5 246.5" enable-background="new 0 0 246.5 246.5"><style type="text/css">.st0{fill:#A5896F;}.st1{fill:#CDAB88;}.st2{fill:#4991A9;}.st3{fill:#DCEBEB;}.st4{clip-path:url(#SVGID_2_);}.st5{fill:#EEB7AC;}.st6{opacity:0.1;adobe-blending-mode:multiply;}.st7{fill:#FCD5C8;}.st8{fill:#216384;}.st9{fill:#EAEAEA;}.st10{adobe-blending-mode:overlay;}.st11{fill:#7DADA8;}.st12{fill:#B7DBDA;}.st13{fill:#6D9E9C;}.st14{fill:#FFFFFF;}.st15{fill:#BC918A;}.st16{fill:#E5B5A8;}.st17{fill:#878787;}.st18{fill:#B7B7B7;}.st19{fill:#383838;}.st20{clip-path:url(#SVGID_4_);}.st21{fill:#DDB98A;adobe-blending-mode:multiply;}.st22{fill:#EFEFEF;}.st23{fill:#32768A;}.st24{clip-path:url(#SVGID_6_);}.st25{clip-path:url(#SVGID_8_);}.st26{fill:#CDAB88;adobe-blending-mode:multiply;}.st27{fill:#544A41;}.st28{fill:#F7EDD7;}.st29{fill:#5E5747;}.st30{fill:none;stroke:#3F403F;stroke-width:2;stroke-miterlimit:10;}.st31{fill:#F7C534;}.st32{opacity:0.62;fill:#FFFFFF;adobe-blending-mode:overlay;}.st33{opacity:0.48;adobe-blending-mode:multiply;}.st34{fill:#757065;}.st35{clip-path:url(#SVGID_10_);}.st36{clip-path:url(#SVGID_12_);}.st37{fill:#4D8A3F;}.st38{fill:none;}.st39{fill:#7CC24D;}.st40{fill:#5BA545;}.st41{fill:#3F6731;}.st42{fill:#1F9ED1;}.st43{fill:#0584C4;}.st44{fill:#303030;}.st45{fill:#010101;}.st46{fill:#DDEDED;}.st47{clip-path:url(#SVGID_14_);}.st48{fill:#4297AB;}.st49{opacity:0.5;adobe-blending-mode:multiply;}.st50{fill:#4297AB;adobe-blending-mode:normal;}.st51{clip-path:url(#SVGID_14_);fill:#F05124;}.st52{clip-path:url(#SVGID_14_);fill:#4297AB;}.st53{fill:#7B7B7B;}.st54{fill:#5D7F3F;}.st55{fill:#3B5126;}.st56{fill:#C4342C;}.st57{fill:#E04541;}.st58{fill:#F04B4C;}.st59{opacity:0.46;fill:#FFFFFF;}.st60{opacity:0.82;fill:#FFFFFF;}.st61{fill:#7A1718;}.st62{fill:#A02B27;}.st63{clip-path:url(#SVGID_16_);}.st64{fill:#4A4F3A;}.st65{fill:#5F634C;}.st66{fill:#8C8E6E;}.st67{fill:#642D10;}.st68{fill:#A7A07B;}.st69{fill:#D8D2A7;}.st70{fill:#C4952C;}.st71{fill:#BFBAA5;}.st72{fill:#E2DDBF;}.st73{fill:#4C1416;}.st74{fill:#661218;}.st75{fill:#DDBD92;}.st76{fill:#897154;}</style><circle class="st3" cx="123.2" cy="123.2" r="123.2"/><defs><circle id="SVGID_11_" cx="123.2" cy="123.2" r="123.2"/></defs><clipPath id="SVGID_2_"><use xlink:href="#SVGID_11_" overflow="visible"/></clipPath><g class="st4"><path class="st37" d="M207.2 228.1L56 169.2l-23.2 4.6L207.2 238l82.1-32.7-10.7-3.1z"/><path class="st38" d="M172.4 172.6l-5.5-2.9c-.9-.5-2-.6-3-.2l-3.3 1.2c-8.5-2.8-15.6-.3-16.9.2-12 4.7 2.7 10.8-1 13-.9.6-3.4.9-6.2-.5-2.7-1.4-1.8-2.4.5-3.5 1-.5.9-.9-.2-1.3l-6.4-2.3c-1-.3-2-.4-2.9 0-3.2 1.5-7.7 4.2-4.3 7.9l-3.9 1.5c-1.1.4-1.3 1-.3 1.4l5.3 2.9c1 .5 2 .6 3.2.1l3.7-1.4c9.6 3.1 18.1.6 19.4 0 12.4-4.8-2.6-11.3.8-13.3.8-.5 2.8-.7 4.6.3 2.2 1.1 1.9 2.2.1 3.2-.9.5-.9.9.3 1.3l6.7 2.2c1.1.3 2 .3 2.9-.1 2.8-1.3 6.6-3.8 2.7-7.2l3.4-1.3c1.3-.2 1.3-.7.3-1.2z"/><path class="st39" d="M119.2 151.8s-9.1 7.5-28.5 10.1c-31.8 4.3-61.5-2.7-61.5-2.7l177.3 69 84.7-30.8-172-45.6z"/><path class="st40" d="M38.8 237.1l-6-63.3 173.6 63.5.8 78.5z"/><path class="st41" d="M35.9 207.1l.7 7.6 170.6 74.6v-10zM207.2 249.9v-7.8L32.8 176l.6 6.3zM207.2 302.7v-10.1L36.9 218.1l.8 7.7zM38 229.2l.8 7.9 168.4 78.7V306zM33.8 185.6l.7 7.3 172.7 70v-9.7zM34.8 196.3l.7 7.4L207.2 276v-9.8z"/><path class="st42" d="M78.1 97.3c-12.6 0-22.8 10.2-22.8 22.8 0 5.9 2.2 11.3 5.9 15.3l32.2-32.2c-4-3.6-9.4-5.9-15.3-5.9z"/><path class="st43" d="M93.4 103.3l-32.2 32.2c4.2 4.6 10.2 7.4 16.8 7.4 12.6 0 22.8-10.2 22.8-22.8.1-6.7-2.8-12.7-7.4-16.8z"/><path class="st42" d="M167.1 97.3c-12.6 0-22.8 10.2-22.8 22.8 0 5.9 2.2 11.3 5.9 15.3l32.2-32.2c-4-3.6-9.4-5.9-15.3-5.9z"/><path class="st43" d="M182.5 103.3l-32.2 32.2c4.2 4.6 10.2 7.4 16.8 7.4 12.6 0 22.8-10.2 22.8-22.8 0-6.7-2.9-12.7-7.4-16.8z"/><path class="st38" d="M57.6 120.1c0 10.9 9.2 19.8 20.5 19.8s20.5-8.9 20.5-19.8c0-5.5-2.3-10.5-6.1-14.1-5-3.1-11-4.9-17.4-4.9-1.2 0-2.3.1-3.4.2-8.2 2.6-14.1 10.1-14.1 18.8zM152.8 106c-3.8 3.6-6.1 8.6-6.1 14.1 0 10.9 9.2 19.8 20.5 19.8s20.5-8.9 20.5-19.8c0-8.7-5.9-16.2-14-18.8-1.1-.1-2.3-.2-3.4-.2-6.6.1-12.5 1.8-17.5 4.9z"/><path class="st44" d="M167.1 93.8c11.1 0 20.7 6.4 24.9 15.6l.1.1-1.7-5.8-12.7-42.2-5.4-18-.4-1.4V42c-2.6-8.8-6.9-13-15.4-13s-15.4 4.5-15.4 13v17.1h-36.8V42c0-4.9-2.3-8.4-5.9-10.6-1.5-.9-3.3-1.6-5.2-2-1.4-.3-2.8-.4-4.3-.4-8.5 0-12.8 4.1-15.4 13v.1L57.8 93.9l-4.7 15.5.1-.1c4.3-9.2 13.8-15.6 24.9-15.6 12.3 0 22.7 7.9 26.1 18.7V98.1H141v14.4c3.4-10.9 13.8-18.7 26.1-18.7z"/><path class="st45" d="M104.2 112.5c-3.4-10.8-13.8-18.7-26.1-18.7-11.1 0-20.7 6.4-24.9 15.6-1.5 3.3-2.4 6.9-2.4 10.7 0 14.6 12.2 26.4 27.3 26.4 15.1 0 27.3-11.8 27.3-26.4 0-2.6-.4-5.2-1.2-7.6zm-26.1 27.4c-11.3 0-20.5-8.9-20.5-19.8 0-8.7 5.9-16.2 14-18.8 2-.6 4.2-1 6.4-1 5.6 0 10.7 2.2 14.4 5.7 3.8 3.6 6.1 8.6 6.1 14.1.1 10.9-9.1 19.8-20.4 19.8zM192 109.4c-4.3-9.2-13.8-15.6-24.9-15.6-12.3 0-22.7 7.9-26.1 18.7-.8 2.4-1.2 5-1.2 7.6 0 14.6 12.2 26.4 27.3 26.4s27.3-11.8 27.3-26.4c0-3.8-.8-7.5-2.4-10.7zm-24.9 30.5c-11.3 0-20.5-8.9-20.5-19.8 0-5.5 2.3-10.5 6.1-14.1 3.7-3.5 8.8-5.7 14.4-5.7 2.2 0 4.4.4 6.4 1 8.2 2.6 14 10 14 18.8.1 10.9-9.1 19.8-20.4 19.8z"/><path class="st41" d="M127 190.1l5.3 2.9c1 .5 2 .6 3.2.1l3.7-1.4c9.6 3.1 18.1.6 19.4 0 12.4-4.8-2.6-11.3.8-13.3.8-.5 2.8-.7 4.6.3 2.2 1.1 1.9 2.2.1 3.2-.9.5-.9.9.3 1.3l6.7 2.2c1.1.3 2 .3 2.9-.1 2.8-1.3 6.6-3.8 2.7-7.2l3.4-1.3c1.1-.4 1.1-.8.1-1.3l-5.5-2.9c-.9-.5-2-.6-3-.2l-3.3 1.2c-8.5-2.8-15.6-.3-16.9.2-12 4.7 2.7 10.8-1 13-.9.6-3.4.9-6.2-.5-2.7-1.4-1.8-2.4.5-3.5 1-.5.9-.9-.2-1.3l-6.4-2.3c-1-.3-2-.4-2.9 0-3.2 1.5-7.7 4.2-4.3 7.9l-3.9 1.5c-.9.5-1 1-.1 1.5z"/></g><defs><circle id="SVGID_13_" cx="479" cy="123.2" r="123.2"/></defs><clipPath id="SVGID_4_"><use xlink:href="#SVGID_13_" overflow="visible"/></clipPath></svg>