<svg xmlns="http://www.w3.org/2000/svg" viewBox="0 0 420.3 330.2" enable-background="new 0 0 420.3 330.2"><style type="text/css">.st0{fill:#A5896F;}.st1{fill:#CDAB88;}.st2{fill:#4991A9;}.st3{fill:#DCEBEB;}.st4{clip-path:url(#SVGID_2_);}.st5{fill:#EEB7AC;}.st6{opacity:0.1;adobe-blending-mode:multiply;}.st7{fill:#FCD5C8;}.st8{fill:#216384;}.st9{fill:#EAEAEA;}.st10{adobe-blending-mode:overlay;}.st11{fill:#7DADA8;}.st12{fill:#B7DBDA;}.st13{fill:#6D9E9C;}.st14{fill:#FFFFFF;}.st15{fill:#BC918A;}.st16{fill:#E5B5A8;}.st17{fill:#878787;}.st18{fill:#B7B7B7;}.st19{fill:#383838;}.st20{clip-path:url(#SVGID_4_);}.st21{fill:#DDB98A;adobe-blending-mode:multiply;}.st22{fill:#EFEFEF;}.st23{fill:#32768A;}.st24{clip-path:url(#SVGID_6_);}.st25{clip-path:url(#SVGID_8_);}.st26{fill:#AD7F59;}.st27{fill:#544A41;}.st28{fill:#F7EDD7;}.st29{fill:#5E5747;}.st30{fill:none;stroke:#3F403F;stroke-width:2;stroke-miterlimit:10;}.st31{fill:#F7C534;}.st32{opacity:0.62;fill:#FFFFFF;adobe-blending-mode:overlay;}.st33{opacity:0.48;adobe-blending-mode:multiply;}.st34{fill:#AEA38C;adobe-blending-mode:normal;}.st35{fill:#CDAB88;adobe-blending-mode:multiply;}.st36{fill:#757065;}.st37{clip-path:url(#SVGID_10_);}.st38{clip-path:url(#SVGID_12_);}.st39{fill:#4D8A3F;}.st40{fill:none;}.st41{fill:#7CC24D;}.st42{fill:#5BA545;}.st43{fill:#3F6731;}.st44{fill:#1F9ED1;}.st45{fill:#0584C4;}.st46{fill:#303030;}.st47{fill:#010101;}.st48{fill:#DDEDED;}.st49{clip-path:url(#SVGID_14_);}.st50{fill:#4297AB;}.st51{opacity:0.5;adobe-blending-mode:multiply;}.st52{fill:#4297AB;adobe-blending-mode:normal;}.st53{clip-path:url(#SVGID_14_);fill:#F05124;}.st54{clip-path:url(#SVGID_14_);fill:#4297AB;}.st55{fill:#F7F7F7;}.st56{fill:#5D7F3F;}.st57{fill:#3B5126;}.st58{fill:#C4342C;}.st59{fill:#E04541;}.st60{fill:#F04B4C;}.st61{opacity:0.46;fill:#FFFFFF;}.st62{opacity:0.82;fill:#FFFFFF;}.st63{fill:#7A1718;}.st64{fill:#A02B27;}.st65{clip-path:url(#SVGID_16_);}.st66{fill:#4A4F3A;}.st67{fill:#5F634C;}.st68{fill:#8C8E6E;}.st69{fill:#642D10;}.st70{fill:#A7A07B;}.st71{fill:#D8D2A7;}.st72{fill:#C4952C;}.st73{fill:#BFBAA5;}.st74{fill:#E2DDBF;}.st75{fill:#4C1416;}.st76{fill:#661218;}.st77{fill:#DDBD92;}.st78{fill:#897154;}.st79{clip-path:url(#SVGID_18_);}.st80{fill:#F79D8E;}.st81{fill:#FEEBE4;}.st82{fill:#337D9C;}</style><path class="st55" d="M165.1 240.1c-14.3 0-28.1-1.4-41.3-3.8-19.5 13.8-41.5 23.9-65.2 30-6.3 1.6-13.1 2.8-20.2 3.8h-.7c-3.5 0-6.8-2.8-7.5-6.8-.9-4.5 2.1-7.3 4.7-10.3 9.1-10.3 19.5-19.5 27.4-38.9-38-22-62.4-56-62.4-94C0 53.7 73.9 0 165.1 0s165.1 53.7 165.1 120.1-73.9 120-165.1 120zm192.8 34.1c8 19.5 18.3 28.6 27.4 38.9 2.6 3 5.6 5.9 4.7 10.3-.9 4.2-4.5 7.3-8.2 6.8-7-.9-13.8-2.1-20.2-3.8-23.7-6.1-45.7-16.2-65.2-30-13.1 2.3-27 3.8-41.3 3.8-42.4 0-81.4-11.7-110.7-31 6.8.5 13.8.9 20.6.9 50.4 0 98-14.5 134.4-40.8 39.2-28.6 60.7-67.3 60.7-109.3 0-12.2-1.9-24.2-5.4-35.6 39.6 21.8 65.4 56.5 65.4 95.7.2 38.2-24.2 72-62.2 94.1z"/></svg>