<svg xmlns="http://www.w3.org/2000/svg"><defs><circle id="svgstore5dbf58093df25cf33e47ca05eedfd8a6SVGID_15_" cx="123.2" cy="123.2" r="123.2"/><circle id="svgstorec0b005bd937e2cfee33b5642c23083ffSVGID_7_" cx="123.2" cy="123.2" r="123.2"/><circle id="svgstore9af66718edf23927bb9b22193b7409d4SVGID_11_" cx="123.2" cy="123.2" r="123.2"/></defs><symbol viewBox="0 0 364.1 364.1" id="icon-bullhorn"><title>bullhorn</title><style type="text/css">.st0{fill:#A5896F;} .st1{fill:#CDAB88;} .st2{fill:#4991A9;} .st3{fill:#DCEBEB;} .st4{clip-path:url(#SVGID_2_);} .st5{fill:#EEB7AC;} .st6{opacity:0.1;adobe-blending-mode:multiply;} .st7{fill:#FCD5C8;} .st8{fill:#216384;} .st9{fill:#EAEAEA;} .st10{adobe-blending-mode:overlay;} .st11{fill:#7DADA8;} .st12{fill:#B7DBDA;} .st13{fill:#6D9E9C;} .st14{fill:#FFFFFF;} .st15{fill:#BC918A;} .st16{fill:#E5B5A8;} .st17{fill:#878787;} .st18{fill:#B7B7B7;} .st19{fill:#383838;} .st20{clip-path:url(#SVGID_4_);} .st21{fill:#DDB98A;adobe-blending-mode:multiply;} .st22{fill:#EFEFEF;} .st23{fill:#32768A;} .st24{clip-path:url(#SVGID_6_);} .st25{clip-path:url(#SVGID_8_);} .st26{fill:#AD7F59;} .st27{fill:#544A41;} .st28{fill:#F7EDD7;} .st29{fill:#5E5747;} .st30{fill:none;stroke:#3F403F;stroke-width:2;stroke-miterlimit:10;} .st31{fill:#F7C534;} .st32{opacity:0.62;fill:#FFFFFF;adobe-blending-mode:overlay;} .st33{opacity:0.48;adobe-blending-mode:multiply;} .st34{fill:#AEA38C;adobe-blending-mode:normal;} .st35{fill:#CDAB88;adobe-blending-mode:multiply;} .st36{fill:#757065;} .st37{clip-path:url(#SVGID_10_);} .st38{clip-path:url(#SVGID_12_);} .st39{fill:#4D8A3F;} .st40{fill:none;} .st41{fill:#7CC24D;} .st42{fill:#5BA545;} .st43{fill:#3F6731;} .st44{fill:#1F9ED1;} .st45{fill:#0584C4;} .st46{fill:#303030;} .st47{fill:#010101;} .st48{fill:#DDEDED;} .st49{clip-path:url(#SVGID_14_);} .st50{fill:#4297AB;} .st51{opacity:0.5;adobe-blending-mode:multiply;} .st52{fill:#4297AB;adobe-blending-mode:normal;} .st53{clip-path:url(#SVGID_14_);fill:#F05124;} .st54{clip-path:url(#SVGID_14_);fill:#4297AB;} .st55{fill:#7B7B7B;} .st56{fill:#5D7F3F;} .st57{fill:#3B5126;} .st58{fill:#C4342C;} .st59{fill:#E04541;} .st60{fill:#F04B4C;} .st61{opacity:0.46;fill:#FFFFFF;} .st62{opacity:0.82;fill:#FFFFFF;} .st63{fill:#7A1718;} .st64{fill:#A02B27;} .st65{clip-path:url(#SVGID_16_);} .st66{fill:#4A4F3A;} .st67{fill:#5F634C;} .st68{fill:#8C8E6E;} .st69{fill:#642D10;} .st70{fill:#A7A07B;} .st71{fill:#D8D2A7;} .st72{fill:#C4952C;} .st73{fill:#BFBAA5;} .st74{fill:#E2DDBF;} .st75{fill:#4C1416;} .st76{fill:#661218;} .st77{fill:#DDBD92;} .st78{fill:#897154;} .st79{fill:#337D9C;}</style><circle class="st79" cx="182.1" cy="182.1" r="182.1"/><path class="st14" d="M215.1 225.9c0 2.8-2.2 5-5 5l-120-30c-2.8 0-5-2.2-5-5v-30c0-2.8 2.2-5 5-5l120-30c2.8 0 5 2.2 5 5v90zM157.4 220.5c-2.7 6.8-9.3 11.6-17 11.6-10.1 0-18.2-8.2-18.2-18.2 0-.7.1-1.4.1-2.1l-7.4-1.8c-.2 1.3-.3 2.6-.3 3.9 0 14.3 11.6 25.8 25.8 25.8 11.3 0 20.8-7.2 24.4-17.3l-7.4-1.9zM82.1 200.3v-40.2l-3 .8c-2.8 0-5 2.2-5 5v30c0 2.8 2.2 5 5 5l3.1.8c-.1-.5-.1-1-.1-1.4zM232.6 137.3l40.2-24.1 4.9 8.7zM242.5 178.4l46.5-6.3 1 10zM232.7 224.8l45.4 12.1-2.9 9.6z"/></symbol><symbol viewBox="0 0 457.5 158.4" id="icon-heading"><title>heading</title><style type="text/css">.st0{fill:#A5896F;}.st1{fill:#CDAB88;}.st2{fill:#4991A9;}.st3{fill:#DCEBEB;}.st4{clip-path:url(#SVGID_2_);}.st5{fill:#EEB7AC;}.st6{opacity:0.1;adobe-blending-mode:multiply;}.st7{fill:#FCD5C8;}.st8{fill:#216384;}.st9{fill:#EAEAEA;}.st10{adobe-blending-mode:overlay;}.st11{fill:#7DADA8;}.st12{fill:#B7DBDA;}.st13{fill:#6D9E9C;}.st14{fill:#FFFFFF;}.st15{fill:#BC918A;}.st16{fill:#E5B5A8;}.st17{fill:#878787;}.st18{fill:#B7B7B7;}.st19{fill:#383838;}.st20{clip-path:url(#SVGID_4_);}.st21{fill:#DDB98A;adobe-blending-mode:multiply;}.st22{fill:#EFEFEF;}.st23{fill:#32768A;}.st24{clip-path:url(#SVGID_6_);}.st25{clip-path:url(#SVGID_8_);}.st26{fill:#AD7F59;}.st27{fill:#544A41;}.st28{fill:#F7EDD7;}.st29{fill:#5E5747;}.st30{fill:none;stroke:#3F403F;stroke-width:2;stroke-miterlimit:10;}.st31{fill:#F7C534;}.st32{opacity:0.62;fill:#FFFFFF;adobe-blending-mode:overlay;}.st33{opacity:0.48;adobe-blending-mode:multiply;}.st34{fill:#AEA38C;adobe-blending-mode:normal;}.st35{fill:#CDAB88;adobe-blending-mode:multiply;}.st36{fill:#757065;}.st37{clip-path:url(#SVGID_10_);}.st38{clip-path:url(#SVGID_12_);}.st39{fill:#4D8A3F;}.st40{fill:none;}.st41{fill:#7CC24D;}.st42{fill:#5BA545;}.st43{fill:#3F6731;}.st44{fill:#1F9ED1;}.st45{fill:#0584C4;}.st46{fill:#303030;}.st47{fill:#010101;}.st48{fill:#DDEDED;}.st49{clip-path:url(#SVGID_14_);}.st50{fill:#4297AB;}.st51{opacity:0.5;adobe-blending-mode:multiply;}.st52{fill:#4297AB;adobe-blending-mode:normal;}.st53{clip-path:url(#SVGID_14_);fill:#F05124;}.st54{clip-path:url(#SVGID_14_);fill:#4297AB;}.st55{fill:#7B7B7B;}.st56{fill:#5D7F3F;}.st57{fill:#3B5126;}.st58{fill:#C4342C;}.st59{fill:#E04541;}.st60{fill:#F04B4C;}.st61{opacity:0.46;fill:#FFFFFF;}.st62{opacity:0.82;fill:#FFFFFF;}.st63{fill:#7A1718;}.st64{fill:#A02B27;}.st65{clip-path:url(#SVGID_16_);}.st66{fill:#4A4F3A;}.st67{fill:#5F634C;}.st68{fill:#8C8E6E;}.st69{fill:#642D10;}.st70{fill:#A7A07B;}.st71{fill:#D8D2A7;}.st72{fill:#C4952C;}.st73{fill:#BFBAA5;}.st74{fill:#E2DDBF;}.st75{fill:#4C1416;}.st76{fill:#661218;}.st77{fill:#DDBD92;}.st78{fill:#897154;}.st79{fill:#337D9C;}</style><path class="st14" d="M24 75.7c0 1.4-.3 2.8-.8 4.1-.6 1.3-1.3 2.5-2.2 3.5-.9 1-2 1.8-3.3 2.4-1.3.6-2.6 1-4.1 1.1l-3.2.2c-1.4.1-2.8-.1-4.1-.6-1.3-.5-2.4-1.1-3.3-2-.9-.9-1.7-1.9-2.2-3.2C.3 80 0 78.7 0 77.3V39.1c0-1.4.3-2.8.8-4.1.6-1.3 1.3-2.5 2.2-3.5.9-1 2-1.8 3.3-2.4 1.3-.6 2.6-1 4.1-1.1l3.1-.2c1.4-.1 2.8.1 4.1.6 1.3.5 2.4 1.1 3.3 2 .9.9 1.7 1.9 2.2 3.2.5 1.2.8 2.6.8 4v38.1zm-9.7-37.1c0-.5-.2-1-.6-1.4-.4-.4-.9-.5-1.4-.5h-.7c-.6 0-1 .3-1.4.7-.4.4-.6.9-.6 1.4v37.4c0 .6.2 1 .6 1.4.4.4.9.5 1.4.5h.7c.6 0 1-.3 1.4-.7.4-.4.6-.9.6-1.4V38.6zM53.8 26.9v46.9c0 1.4-.3 2.8-.8 4.1-.6 1.3-1.3 2.5-2.2 3.5-.9 1-2 1.8-3.3 2.4-1.3.6-2.6 1-4.1 1.1l-3.1.2c-1.4.1-2.8-.1-4.1-.6-1.3-.5-2.4-1.1-3.3-2-.9-.9-1.7-1.9-2.2-3.2-.6-1.2-.8-2.6-.8-4V28.5c0-.8.4-1.2 1.2-1.2l7.4-.5c.8 0 1.2.3 1.2 1.1v46.5c0 .6.2 1 .6 1.4.4.4.9.5 1.4.5h.7c.6 0 1-.3 1.4-.7.4-.4.6-.9.6-1.4V27.6c0-.8.4-1.2 1.2-1.2l7.4-.5c.4-.1.8.3.8 1zM86 80.4c.2.8-.1 1.2-.8 1.2l-7.5.5c-.3 0-.6-.1-1-.3-.3-.2-.5-.5-.6-.8l-6-19.9v21.4l-.1-.7c-.1.6-.5.9-1.1.9l-7.4.5c-.8 0-1.2-.3-1.2-1.1V26.5c0-.8.4-1.2 1.2-1.2l12.4-.8c1.4-.1 2.8.1 4.1.6 1.3.5 2.4 1.1 3.3 2 .9.9 1.7 1.9 2.2 3.2.5 1.2.8 2.6.8 4v13.5c0 2-.5 3.9-1.6 5.6-1 1.7-2.4 3-4.1 4l7.4 23zM70 50.2l2.6-.2c.6 0 1-.3 1.4-.7.4-.4.6-.9.6-1.4V35.3c0-.5-.2-1-.6-1.4-.4-.4-.9-.5-1.4-.5l-2.6.2v16.6zM124.2 45.9c-.7.8-1.5 1.4-2.4 1.8.9.3 1.7.7 2.4 1.3.5.5.9 1.2 1.3 2.1.3 1.2.4 2.4.4 3.5v14.6c0 1.4-.3 2.8-.8 4.1-.6 1.3-1.3 2.5-2.2 3.5-.9 1-2 1.8-3.3 2.4-1.3.6-2.6 1-4.1 1.1l-3.1.2c-1.4.1-2.8-.1-4.1-.6-1.3-.5-2.4-1.1-3.3-2-.9-.9-1.7-1.9-2.2-3.2-.6-1.2-.8-2.6-.8-4V56.1c0-1.2.1-2.4.4-3.6.2-.5.3-.9.5-1.2.2-.4.5-.7.8-1 .7-.7 1.5-1.2 2.4-1.6-.9-.3-1.7-.8-2.4-1.5-.8-.8-1.3-1.9-1.6-3.2-.1-.3-.1-.7-.1-1V32.6c0-1.4.3-2.8.8-4.1.6-1.3 1.3-2.5 2.2-3.5.9-1 2-1.8 3.3-2.4 1.3-.6 2.6-1 4.1-1.1l3.1-.2c1.4-.1 2.8.1 4.1.6 1.3.5 2.4 1.1 3.3 2 .9.9 1.7 1.9 2.2 3.2.6 1.2.8 2.6.8 4v10.4c0 .4-.1.7-.1 1-.3 1.3-.8 2.5-1.6 3.4zM116.3 32c0-.5-.2-1-.6-1.4-.4-.4-.9-.5-1.4-.5h-.7c-.6 0-1 .3-1.4.7-.4.4-.6.9-.6 1.4v9c0 .9.1 1.5.4 1.7.1.1.3.2.5.4s.6.3 1 .2l.8-.1c.4 0 .7-.1 1-.4l.5-.5c.3-.3.4-.9.4-1.8V32zm0 23.6c0-.4 0-.9-.1-1.3s-.2-.8-.3-1c-.1-.1-.3-.2-.5-.4s-.5-.2-1-.2l-.8.1c-.5 0-.8.1-1 .3-.2.2-.3.3-.5.4-.2.2-.3.6-.3 1-.1.4-.1.9-.1 1.3v13.8c0 .6.2 1 .6 1.4.4.4.9.5 1.4.5h.7c.5 0 1-.3 1.4-.7.4-.4.6-.9.6-1.4V55.6zM176.2 19.1v55.6c0 .8-.4 1.2-1.2 1.2l-7.9.5c-.8 0-1.2-.3-1.2-1.1V49.2l-5.5 21.7c-.1.3-.2.4-.4.4s-.3-.1-.4-.4l-5.5-21V76c0 .8-.4 1.2-1.2 1.2l-7.9.5c-.8 0-1.2-.3-1.2-1.1V21.2c0-.8.4-1.2 1.2-1.2l7-.4c.3 0 .6.1.9.3.2.2.4.5.5.8l6.5 29.2 6.5-30c.1-.3.3-.6.5-.8.2-.3.5-.4.9-.4l7-.4c1-.3 1.4 0 1.4.8zM193.3 73.6c0 .8-.4 1.2-1.2 1.2l-7.4.5c-.8 0-1.2-.3-1.2-1.1V18.6c0-.8.4-1.2 1.2-1.2l7.4-.5c.8 0 1.2.3 1.2 1.1v55.6zM222.2 64.4v7.4c0 .8-.4 1.2-1.2 1.2l-11.2.7H209.5l-7.4.5c-.8 0-1.2-.3-1.2-1.1V17.5c0-.8.4-1.2 1.2-1.2l7.4-.5c.8 0 1.2.3 1.2 1.1V64l10.3-.7c.8-.1 1.2.3 1.2 1.1zM249.5 62.6V70c0 .8-.4 1.2-1.2 1.2l-11.2.7H236.8l-7.4.5c-.8 0-1.2-.3-1.2-1.1V15.8c0-.8.4-1.2 1.2-1.2l7.4-.5c.8 0 1.2.3 1.2 1.1v47.1l10.3-.7c.8-.1 1.2.3 1.2 1zM265 69c0 .8-.4 1.2-1.2 1.2l-7.4.5c-.8 0-1.2-.3-1.2-1.1V14c0-.8.4-1.2 1.2-1.2l7.4-.5c.8 0 1.2.3 1.2 1.1V69zM295.6 58.4c0 1.4-.3 2.8-.8 4.1-.6 1.3-1.3 2.5-2.2 3.5-.9 1-2 1.8-3.3 2.4-1.3.6-2.6 1-4.1 1.1l-3.1.2c-1.4.1-2.8-.1-4.1-.6-1.3-.5-2.4-1.1-3.3-2-.9-.9-1.7-1.9-2.2-3.2-.6-1.2-.8-2.6-.8-4V21.7c0-1.4.3-2.8.8-4.1.6-1.3 1.3-2.5 2.2-3.5.9-1 2-1.8 3.3-2.4 1.3-.6 2.6-1 4.1-1.1l3.1-.2c1.4-.1 2.8.1 4.1.6 1.3.5 2.4 1.1 3.3 2 .9.9 1.7 1.9 2.2 3.2.5 1.2.8 2.6.8 4v38.2zm-9.7-37.2c0-.5-.2-1-.6-1.4-.4-.4-.9-.5-1.4-.5h-.7c-.6 0-1 .3-1.4.7-.4.4-.6.9-.6 1.4v37.4c0 .6.2 1 .6 1.4.4.4.9.5 1.4.5h.7c.6 0 1-.3 1.4-.7.4-.4.6-.9.6-1.4V21.2zM328.7 9.3v55.6c0 .8-.4 1.2-1.2 1.2l-5.3.3c-.3 0-.6-.1-1-.3-.3-.2-.5-.4-.6-.7l-8.8-26.8V66c0 .8-.4 1.2-1.2 1.2l-7.4.5c-.8 0-1.2-.3-1.2-1.1V11c0-.8.4-1.2 1.2-1.2l5.5-.3c.3 0 .6.1 1 .3.3.2.5.4.6.7l8.6 26V10c0-.8.4-1.2 1.2-1.2l7.4-.5c.8-.1 1.2.3 1.2 1zM367.3 6.9v7.4c0 .8-.4 1.2-1.2 1.2l-9.4.6V28l8.2-.5c.8 0 1.2.3 1.2 1.1V36c0 .8-.4 1.2-1.2 1.2l-8.2.5v25.5c0 .8-.4 1.2-1.2 1.2l-7.4.5c-.8 0-1.2-.3-1.2-1.1V8.2c0-.8.4-1.2 1.2-1.2L366 5.9c.9-.2 1.3.2 1.3 1zM395.4 60.6c.1.8-.2 1.2-1 1.2l-7.5.5c-.7 0-1.1-.3-1.2-1.1l-.7-8.9-5.1.3-.7 9c-.1.8-.5 1.2-1.2 1.2l-7.5.5c-.8 0-1.1-.3-1-1.1l6.2-56c.1-.8.5-1.2 1.3-1.2l10.9-.7c.8 0 1.2.3 1.3 1.1l6.2 55.2zm-11.1-17.4l-1.6-22.3h-.7l-1.6 22.5 3.9-.2zM427.3 3v55.6c0 .8-.4 1.2-1.2 1.2l-5.3.3c-.3 0-.6-.1-1-.3-.3-.2-.5-.4-.6-.7l-8.8-26.8v27.3c0 .8-.4 1.2-1.2 1.2l-7.4.5c-.8 0-1.2-.3-1.2-1.1V4.7c0-.8.4-1.2 1.2-1.2l5.5-.3c.3 0 .6.1 1 .3.3.2.5.4.6.7l8.6 26V3.6c0-.8.4-1.2 1.2-1.2l7.4-.5c.8 0 1.2.4 1.2 1.1zM451.2.6c1.3.5 2.4 1.1 3.3 2 .9.9 1.7 1.9 2.2 3.2.6 1.2.8 2.6.8 4v3.1c0 .8-.4 1.3-1.1 1.6l-7.5 2.5c-.7.3-1.1 0-1.1-.8v-5.4c0-.5-.2-1-.6-1.4-.4-.4-.9-.5-1.4-.5h-.7c-.6 0-1 .3-1.4.7-.4.4-.6.9-.6 1.4v7.5c.1.6.2 1.1.3 1.6.2.4.5.9.9 1.3l10.8 7.4c.9.7 1.4 1.5 1.7 2.2.2.8.4 1.7.5 2.7V48c0 1.4-.3 2.8-.8 4.1-.6 1.3-1.3 2.5-2.2 3.5-.9 1-2 1.8-3.3 2.4s-2.6 1-4.1 1.1l-3.1.2c-1.4.1-2.8-.1-4.1-.6-1.3-.5-2.4-1.1-3.3-2-.9-.9-1.7-1.9-2.2-3.2-.6-1.2-.8-2.6-.8-4v-7.9c0-.8.4-1.3 1.1-1.6l7.5-2.5c.7-.3 1.1 0 1.1.8v10.2c0 .6.2 1 .6 1.4.4.4.9.5 1.4.5h.7c.6 0 1-.3 1.4-.7.4-.4.6-.9.6-1.4v-11c-.1-.7-.2-1.3-.3-1.9-.2-.5-.5-1-1-1.4l-10.7-7.5c-.8-.7-1.4-1.5-1.8-2.2-.4-.7-.5-1.8-.5-3v-9.9c0-1.4.3-2.8.8-4.1.5-1.3 1.3-2.5 2.2-3.5.9-1 2-1.8 3.3-2.4 1.3-.6 2.6-1 4.1-1.1l3.1-.2c1.5-.2 2.9 0 4.2.5zM81.8 99.7v55.6c0 .8-.4 1.2-1.2 1.2l-7.9.5c-.8 0-1.2-.3-1.2-1.1v-26.1L66 151.5c-.1.3-.2.4-.4.4s-.3-.1-.4-.4l-5.5-21v26.1c0 .8-.4 1.2-1.2 1.2l-7.9.5c-.8 0-1.2-.3-1.2-1.1v-55.6c0-.8.4-1.2 1.2-1.2l7-.5c.3 0 .6.1.9.3.2.2.4.5.5.8l6.5 29.2 6.5-30c.1-.3.3-.6.5-.8.2-.3.5-.4.9-.4l7-.5c1 0 1.4.4 1.4 1.2zM109.5 146.1v7.4c0 .8-.4 1.2-1.2 1.2l-17.9 1.1c-.8 0-1.2-.3-1.2-1.1V99.2c0-.8.4-1.2 1.2-1.2l17.9-1.1c.8 0 1.2.3 1.2 1.1v7.4c0 .8-.4 1.2-1.2 1.2l-9.4.6V119l8.2-.5c.8 0 1.2.3 1.2 1.1v7.4c0 .8-.4 1.2-1.2 1.2l-8.2.5v17l9.4-.6c.8-.1 1.2.3 1.2 1zM140.5 151.5c.1.8-.2 1.2-1 1.2l-7.5.5c-.7 0-1.1-.3-1.2-1.1l-.7-8.9-5.1.3-.7 9c-.1.8-.5 1.2-1.2 1.2l-7.5.5c-.8 0-1.1-.3-1-1.1l6.2-56c.1-.8.6-1.2 1.3-1.2l10.9-.7c.8 0 1.2.3 1.3 1.1l6.2 55.2zM129.4 134l-1.6-22.3h-.7l-1.6 22.5 3.9-.2zM172.4 93.9v55.6c0 .8-.4 1.2-1.2 1.2l-5.3.3c-.3 0-.6-.1-1-.3-.3-.2-.5-.4-.6-.7l-8.8-26.8v27.3c0 .8-.4 1.2-1.2 1.2l-7.4.5c-.8 0-1.2-.3-1.2-1.1V95.6c0-.8.4-1.2 1.2-1.2l5.5-.3c.3 0 .6.1 1 .3.3.2.5.4.6.7l8.6 26V94.5c0-.8.4-1.2 1.2-1.2l7.4-.5c.8-.1 1.2.3 1.2 1.1zM212.4 119.2c.8.7 1.3 1.6 1.7 2.6.4 1 .6 2.2.6 3.4v12.2c0 1.4-.3 2.8-.8 4.1-.6 1.3-1.3 2.5-2.2 3.5-.9 1-2 1.8-3.3 2.4-1.3.6-2.6 1-4.1 1.1l-12.4.8c-.8 0-1.2-.3-1.2-1.1V92.7c0-.8.4-1.2 1.2-1.2l12.4-.8c1.4-.1 2.8.1 4.1.6 1.3.5 2.4 1.1 3.3 2 .9.9 1.7 1.9 2.2 3.2.6 1.2.8 2.6.8 4v8.3c0 2.5-.8 4.7-2.3 6.5-.8.9-1.8 1.7-3 2.3 1.3.3 2.3.9 3 1.6zm-7.3-17.7c0-.5-.2-1-.6-1.4-.4-.4-.9-.5-1.4-.5l-2.6.2v14.1l2.6-.2c.6 0 1-.3 1.4-.7.4-.4.6-.9.6-1.4v-10.1zm0 23c0-.5-.2-1-.6-1.4-.4-.4-.9-.5-1.4-.5l-2.6.2V140l2.6-.2c.6 0 1-.3 1.4-.7.4-.4.6-.9.6-1.4v-13.2zM244.1 89.3v46.9c0 1.4-.3 2.8-.8 4.1-.6 1.3-1.3 2.5-2.2 3.5-.9 1-2 1.8-3.3 2.4-1.3.6-2.6 1-4.1 1.1l-3.1.2c-1.4.1-2.8-.1-4.1-.6-1.3-.5-2.4-1.1-3.3-2-.9-.9-1.7-1.9-2.2-3.2-.6-1.2-.8-2.6-.8-4V90.8c0-.8.4-1.2 1.2-1.2l7.4-.5c.8 0 1.2.3 1.2 1.1v46.5c0 .6.2 1 .6 1.4.4.4.9.5 1.4.5h.7c.5 0 1-.3 1.4-.7.4-.4.6-.9.6-1.4V89.9c0-.8.4-1.2 1.2-1.2l7.4-.5c.4 0 .8.3.8 1.1zM267.1 86.9c1.3.5 2.4 1.1 3.3 2 .9.9 1.7 1.9 2.2 3.2.6 1.2.8 2.6.8 4v3.1c0 .8-.4 1.3-1.1 1.6l-7.5 2.5c-.7.3-1.1 0-1.1-.8v-5.4c0-.5-.2-1-.6-1.4-.4-.4-.9-.5-1.4-.5h-.7c-.6 0-1 .3-1.4.7-.4.4-.6.9-.6 1.4v7.5c.1.6.2 1.1.3 1.6.2.4.5.9.9 1.3l10.8 7.4c.9.7 1.4 1.5 1.7 2.2.2.8.4 1.7.5 2.7v14.2c0 1.4-.3 2.8-.8 4.1-.6 1.3-1.3 2.5-2.2 3.5-.9 1-2 1.8-3.3 2.4-1.3.6-2.6 1-4.1 1.1l-3.1.2c-1.4.1-2.8-.1-4.1-.6-1.3-.5-2.4-1.1-3.3-2-.9-.9-1.7-1.9-2.2-3.2-.6-1.2-.8-2.6-.8-4v-7.9c0-.8.4-1.3 1.1-1.6l7.5-2.5c.7-.3 1.1 0 1.1.8v10.2c0 .6.2 1 .6 1.4.4.4.9.5 1.4.5h.7c.6 0 1-.3 1.4-.7.4-.4.6-.9.6-1.4v-10.9c-.1-.7-.2-1.3-.3-1.9-.2-.5-.5-1-1-1.4l-10.7-7.5c-.8-.7-1.4-1.5-1.8-2.2-.4-.7-.5-1.8-.5-3v-9.9c0-1.4.3-2.8.8-4.1.5-1.3 1.3-2.5 2.2-3.5.9-1 2-1.8 3.3-2.4 1.3-.6 2.6-1 4.1-1.1l3.1-.2c1.6-.2 2.9 0 4.2.5zM289.3 142c0 .8-.4 1.2-1.2 1.2l-7.4.5c-.8 0-1.2-.3-1.2-1.1V87c0-.8.4-1.2 1.2-1.2l7.4-.5c.8 0 1.2.3 1.2 1.1V142zM323.2 84.2v55.6c0 .8-.4 1.2-1.2 1.2l-5.3.3c-.3 0-.6-.1-1-.3-.3-.2-.5-.4-.6-.7l-8.8-26.8v27.3c0 .8-.4 1.2-1.2 1.2l-7.4.5c-.8 0-1.2-.3-1.2-1.1V85.9c0-.8.4-1.2 1.2-1.2l5.5-.3c.3 0 .6.1 1 .3.3.2.5.4.6.7l8.6 26V84.8c0-.8.4-1.2 1.2-1.2l7.4-.5c.9 0 1.2.3 1.2 1.1zM351 130.7v7.4c0 .8-.4 1.2-1.2 1.2l-17.9 1.1c-.8 0-1.2-.3-1.2-1.1V83.7c0-.8.4-1.2 1.2-1.2l17.9-1.1c.8 0 1.2.3 1.2 1.1v7.4c0 .8-.4 1.2-1.2 1.2l-9.4.6v11.9l8.2-.5c.8 0 1.2.3 1.2 1.1v7.4c0 .8-.4 1.2-1.2 1.2l-8.2.5v17l9.4-.6c.8-.2 1.2.2 1.2 1zM373.5 80.1c1.3.5 2.4 1.1 3.3 2 .9.9 1.7 1.9 2.2 3.2.6 1.2.8 2.6.8 4v3.1c0 .8-.4 1.3-1.1 1.6l-7.5 2.5c-.7.3-1.1 0-1.1-.8v-5.4c0-.5-.2-1-.6-1.4-.4-.4-.9-.5-1.4-.5h-.7c-.6 0-1 .3-1.4.7-.4.4-.6.9-.6 1.4V98c.1.6.2 1.1.3 1.6.2.4.5.9.9 1.3l10.8 7.4c.9.7 1.4 1.5 1.7 2.2.2.8.4 1.7.5 2.7v14.2c0 1.4-.3 2.8-.8 4.1-.6 1.3-1.3 2.5-2.2 3.5-.9 1-2 1.8-3.3 2.4-1.3.6-2.6 1-4.1 1.1l-3.1.2c-1.4.1-2.8-.1-4.1-.6-1.3-.5-2.4-1.1-3.3-2-.9-.9-1.7-1.9-2.2-3.2-.6-1.2-.8-2.6-.8-4V121c0-.8.4-1.3 1.1-1.6l7.5-2.5c.7-.3 1.1 0 1.1.8V128c0 .6.2 1 .6 1.4.4.4.9.5 1.4.5h.7c.6 0 1-.3 1.4-.7.4-.4.6-.9.6-1.4v-10.9c-.1-.7-.2-1.3-.3-1.9-.2-.5-.5-1-1-1.4l-10.7-7.5c-.8-.7-1.4-1.5-1.8-2.2-.4-.7-.5-1.8-.5-3V91c0-1.4.3-2.8.8-4.1.5-1.3 1.3-2.5 2.2-3.5.9-1 2-1.8 3.3-2.4 1.3-.6 2.6-1 4.1-1.1l3.1-.2c1.6-.3 3-.1 4.2.4zM402.5 78.2c1.3.5 2.4 1.1 3.3 2 .9.9 1.7 1.9 2.2 3.2.6 1.2.8 2.6.8 4v3.1c0 .8-.4 1.3-1.1 1.6l-7.5 2.5c-.7.3-1.1 0-1.1-.8v-5.4c0-.5-.2-1-.6-1.4-.4-.4-.9-.5-1.4-.5h-.7c-.6 0-1 .3-1.4.7-.4.4-.6.9-.6 1.4v7.5c.1.6.2 1.1.3 1.6s.5.9.9 1.3l10.8 7.4c.9.7 1.4 1.5 1.7 2.2.2.8.4 1.7.5 2.7v14.2c0 1.4-.3 2.8-.8 4.1-.6 1.3-1.3 2.5-2.2 3.5-.9 1-2 1.8-3.3 2.4s-2.6 1-4.1 1.1l-3.1.2c-1.4.1-2.8-.1-4.1-.6-1.3-.5-2.4-1.1-3.3-2-.9-.9-1.7-1.9-2.2-3.2-.6-1.2-.8-2.6-.8-4v-7.9c0-.8.4-1.3 1.1-1.6l7.5-2.5c.7-.3 1.1 0 1.1.8V126c0 .6.2 1 .6 1.4.4.4.9.5 1.4.5h.7c.6 0 1-.3 1.4-.7.4-.4.6-.9.6-1.4v-10.9c-.1-.7-.2-1.3-.3-1.9-.2-.5-.5-1-1-1.4l-10.7-7.5c-.8-.7-1.4-1.5-1.8-2.2-.4-.7-.5-1.8-.5-3V89c0-1.4.3-2.8.8-4.1.5-1.3 1.3-2.5 2.2-3.5.9-1 2-1.8 3.3-2.4 1.3-.6 2.6-1 4.1-1.1l3.1-.2c1.6-.1 2.9.1 4.2.5z"/></symbol><symbol viewBox="0 0 364.1 364.1" id="icon-lock"><title>lock</title><style type="text/css">.st0{fill:#A5896F;} .st1{fill:#CDAB88;} .st2{fill:#4991A9;} .st3{fill:#DCEBEB;} .st4{clip-path:url(#SVGID_2_);} .st5{fill:#EEB7AC;} .st6{opacity:0.1;adobe-blending-mode:multiply;} .st7{fill:#FCD5C8;} .st8{fill:#216384;} .st9{fill:#EAEAEA;} .st10{adobe-blending-mode:overlay;} .st11{fill:#7DADA8;} .st12{fill:#B7DBDA;} .st13{fill:#6D9E9C;} .st14{fill:#FFFFFF;} .st15{fill:#BC918A;} .st16{fill:#E5B5A8;} .st17{fill:#878787;} .st18{fill:#B7B7B7;} .st19{fill:#383838;} .st20{clip-path:url(#SVGID_4_);} .st21{fill:#DDB98A;adobe-blending-mode:multiply;} .st22{fill:#EFEFEF;} .st23{fill:#32768A;} .st24{clip-path:url(#SVGID_6_);} .st25{clip-path:url(#SVGID_8_);} .st26{fill:#AD7F59;} .st27{fill:#544A41;} .st28{fill:#F7EDD7;} .st29{fill:#5E5747;} .st30{fill:none;stroke:#3F403F;stroke-width:2;stroke-miterlimit:10;} .st31{fill:#F7C534;} .st32{opacity:0.62;fill:#FFFFFF;adobe-blending-mode:overlay;} .st33{opacity:0.48;adobe-blending-mode:multiply;} .st34{fill:#AEA38C;adobe-blending-mode:normal;} .st35{fill:#CDAB88;adobe-blending-mode:multiply;} .st36{fill:#757065;} .st37{clip-path:url(#SVGID_10_);} .st38{clip-path:url(#SVGID_12_);} .st39{fill:#4D8A3F;} .st40{fill:none;} .st41{fill:#7CC24D;} .st42{fill:#5BA545;} .st43{fill:#3F6731;} .st44{fill:#1F9ED1;} .st45{fill:#0584C4;} .st46{fill:#303030;} .st47{fill:#010101;} .st48{fill:#DDEDED;} .st49{clip-path:url(#SVGID_14_);} .st50{fill:#4297AB;} .st51{opacity:0.5;adobe-blending-mode:multiply;} .st52{fill:#4297AB;adobe-blending-mode:normal;} .st53{clip-path:url(#SVGID_14_);fill:#F05124;} .st54{clip-path:url(#SVGID_14_);fill:#4297AB;} .st55{fill:#7B7B7B;} .st56{fill:#5D7F3F;} .st57{fill:#3B5126;} .st58{fill:#C4342C;} .st59{fill:#E04541;} .st60{fill:#F04B4C;} .st61{opacity:0.46;fill:#FFFFFF;} .st62{opacity:0.82;fill:#FFFFFF;} .st63{fill:#7A1718;} .st64{fill:#A02B27;} .st65{clip-path:url(#SVGID_16_);} .st66{fill:#4A4F3A;} .st67{fill:#5F634C;} .st68{fill:#8C8E6E;} .st69{fill:#642D10;} .st70{fill:#A7A07B;} .st71{fill:#D8D2A7;} .st72{fill:#C4952C;} .st73{fill:#BFBAA5;} .st74{fill:#E2DDBF;} .st75{fill:#4C1416;} .st76{fill:#661218;} .st77{fill:#DDBD92;} .st78{fill:#897154;} .st79{fill:#337D9C;}</style><circle class="st79" cx="182.1" cy="182.1" r="182.1"/><path class="st14" d="M248.3 249.1c0 6.1-4.9 11-11 11H126.9c-6.1 0-11-4.9-11-11v-66.3c0-6.1 4.9-11 11-11h3.7v-22.1c0-28.3 23.2-51.5 51.5-51.5s51.5 23.2 51.5 51.5v22.1h3.7c6.1 0 11 4.9 11 11v66.3zm-36.8-77.3v-22.1c0-16.2-13.2-29.4-29.4-29.4s-29.4 13.2-29.4 29.4v22.1h58.8z"/></symbol><symbol viewBox="0 0 364.1 364.1" id="icon-radioTower"><title>radioTower</title><style type="text/css">.st0{fill:#A5896F;} .st1{fill:#CDAB88;} .st2{fill:#4991A9;} .st3{fill:#DCEBEB;} .st4{clip-path:url(#SVGID_2_);} .st5{fill:#EEB7AC;} .st6{opacity:0.1;adobe-blending-mode:multiply;} .st7{fill:#FCD5C8;} .st8{fill:#216384;} .st9{fill:#EAEAEA;} .st10{adobe-blending-mode:overlay;} .st11{fill:#7DADA8;} .st12{fill:#B7DBDA;} .st13{fill:#6D9E9C;} .st14{fill:#FFFFFF;} .st15{fill:#BC918A;} .st16{fill:#E5B5A8;} .st17{fill:#878787;} .st18{fill:#B7B7B7;} .st19{fill:#383838;} .st20{clip-path:url(#SVGID_4_);} .st21{fill:#DDB98A;adobe-blending-mode:multiply;} .st22{fill:#EFEFEF;} .st23{fill:#32768A;} .st24{clip-path:url(#SVGID_6_);} .st25{clip-path:url(#SVGID_8_);} .st26{fill:#AD7F59;} .st27{fill:#544A41;} .st28{fill:#F7EDD7;} .st29{fill:#5E5747;} .st30{fill:none;stroke:#3F403F;stroke-width:2;stroke-miterlimit:10;} .st31{fill:#F7C534;} .st32{opacity:0.62;fill:#FFFFFF;adobe-blending-mode:overlay;} .st33{opacity:0.48;adobe-blending-mode:multiply;} .st34{fill:#AEA38C;adobe-blending-mode:normal;} .st35{fill:#CDAB88;adobe-blending-mode:multiply;} .st36{fill:#757065;} .st37{clip-path:url(#SVGID_10_);} .st38{clip-path:url(#SVGID_12_);} .st39{fill:#4D8A3F;} .st40{fill:none;} .st41{fill:#7CC24D;} .st42{fill:#5BA545;} .st43{fill:#3F6731;} .st44{fill:#1F9ED1;} .st45{fill:#0584C4;} .st46{fill:#303030;} .st47{fill:#010101;} .st48{fill:#DDEDED;} .st49{clip-path:url(#SVGID_14_);} .st50{fill:#4297AB;} .st51{opacity:0.5;adobe-blending-mode:multiply;} .st52{fill:#4297AB;adobe-blending-mode:normal;} .st53{clip-path:url(#SVGID_14_);fill:#F05124;} .st54{clip-path:url(#SVGID_14_);fill:#4297AB;} .st55{fill:#7B7B7B;} .st56{fill:#5D7F3F;} .st57{fill:#3B5126;} .st58{fill:#C4342C;} .st59{fill:#E04541;} .st60{fill:#F04B4C;} .st61{opacity:0.46;fill:#FFFFFF;} .st62{opacity:0.82;fill:#FFFFFF;} .st63{fill:#7A1718;} .st64{fill:#A02B27;} .st65{clip-path:url(#SVGID_16_);} .st66{fill:#4A4F3A;} .st67{fill:#5F634C;} .st68{fill:#8C8E6E;} .st69{fill:#642D10;} .st70{fill:#A7A07B;} .st71{fill:#D8D2A7;} .st72{fill:#C4952C;} .st73{fill:#BFBAA5;} .st74{fill:#E2DDBF;} .st75{fill:#4C1416;} .st76{fill:#661218;} .st77{fill:#DDBD92;} .st78{fill:#897154;} .st79{fill:#337D9C;}</style><circle class="st79" cx="182.1" cy="182.1" r="182.1"/><path class="st14" d="M209.1 139.6c0-16.1-13.1-29.2-29.2-29.2s-29.2 13.1-29.2 29.2c0 10.1 5.1 18.9 12.8 24.2L113.8 351c5 2 10.1 3.8 15.3 5.4l4.9-21.1 35.7 8.1-.6 20.4c4.3.3 8.6.5 12.9.5 4.6 0 9.1-.2 13.7-.5l-1.1-19.6 34.2-8.5 5.3 21.1c4.2-1.2 8.3-2.6 12.3-4.2l-50.6-188.3c8-5.4 13.3-14.4 13.3-24.7zm-33.8 28.8l-1.2 36.3-9.8-1.3 8.2-35.6c1 .3 1.9.5 2.8.6zm-13 44.2l11.6 1.5-1.4 44-20.1-2.6 9.9-42.9zm-23.2 100.8l10.1-43.8 22.9 3-1.5 47.9-31.5-7.1zm54.3 8l-2.7-49.3 21.5-3.1 11.2 44.9-30 7.5zm-3.4-63.7l-2.4-43.9 10.4-1.5 10.7 42.7-18.7 2.7zm5.8-54.5l-8.7 1.2-1.9-36.1c.6-.1 1.2-.2 1.8-.4l8.8 35.3zM220.2 139.8c0 9.7-3.9 18.4-10.3 24.8l-.7.7 7 8.2c.4-.4.9-.8 1.3-1.3 8.3-8.3 13.4-19.8 13.4-32.4 0-12.6-5.1-24.1-13.4-32.4-1.2-1.2-2.5-2.3-3.8-3.4l-7 8.2c1.1.9 2.2 1.8 3.2 2.9 6.4 6.3 10.3 15 10.3 24.7zM244.9 139.8c0 16.5-6.7 31.4-17.5 42.3-.7.7-1.4 1.3-2.1 2l7 8.2c.9-.8 1.8-1.7 2.7-2.5 12.8-12.7 20.7-30.4 20.7-49.9S247.8 102.8 235 90c-1.7-1.7-3.4-3.2-5.2-4.7l-7 8.2c1.6 1.3 3.1 2.7 4.6 4.1 10.8 10.8 17.5 25.7 17.5 42.2zM252.2 72.7c-2.1-2.1-4.3-4.1-6.6-6l-7 8.2c2.1 1.7 4.1 3.5 6 5.4 15.2 15.2 24.6 36.3 24.6 59.5 0 23.3-9.4 44.3-24.6 59.5-1.1 1.1-2.3 2.2-3.4 3.2l7 8.2c1.4-1.2 2.7-2.5 4-3.8 17.2-17.2 27.8-40.9 27.8-67.1 0-26.2-10.6-49.9-27.8-67.1zM142.6 172.2c.4.4.9.8 1.3 1.3l7-8.2-.7-.7c-6.4-6.4-10.3-15.1-10.3-24.8 0-9.7 3.9-18.4 10.3-24.8 1-1 2.1-2 3.2-2.9l-7-8.2c-1.3 1.1-2.6 2.2-3.8 3.4-8.3 8.3-13.4 19.8-13.4 32.4 0 12.8 5.1 24.3 13.4 32.5zM125.1 189.7c.9.9 1.8 1.7 2.7 2.5l7-8.2c-.7-.6-1.4-1.3-2.1-2-10.8-10.8-17.5-25.7-17.5-42.3 0-16.5 6.7-31.4 17.5-42.3 1.5-1.5 3-2.8 4.6-4.1l-7-8.2c-1.8 1.5-3.6 3.1-5.2 4.7-12.8 12.7-20.7 30.4-20.7 49.9.1 19.6 8 37.2 20.7 50zM115.5 199.3c-15.2-15.2-24.6-36.3-24.6-59.5 0-23.3 9.4-44.3 24.6-59.5 1.9-1.9 3.9-3.7 6-5.4l-7-8.2c-2.3 1.9-4.5 3.9-6.6 6-17.2 17.2-27.8 40.9-27.8 67.1 0 26.2 10.6 50 27.8 67.1 1.3 1.3 2.7 2.6 4 3.8l7-8.2c-1.1-1-2.3-2.1-3.4-3.2z"/></symbol><symbol viewBox="0 0 246.5 246.5" id="icon-requirements-heart"><title>requirements-heart</title><style type="text/css">.st0{fill:#A5896F;}.st1{fill:#CDAB88;}.st2{fill:#4991A9;}.st3{fill:#DCEBEB;}.st4{clip-path:url(#SVGID_2_);}.st5{fill:#EEB7AC;}.st6{opacity:0.1;adobe-blending-mode:multiply;}.st7{fill:#FCD5C8;}.st8{fill:#216384;}.st9{fill:#EAEAEA;}.st10{adobe-blending-mode:overlay;}.st11{fill:#7DADA8;}.st12{fill:#B7DBDA;}.st13{fill:#6D9E9C;}.st14{fill:#FFFFFF;}.st15{fill:#BC918A;}.st16{fill:#E5B5A8;}.st17{fill:#878787;}.st18{fill:#B7B7B7;}.st19{fill:#383838;}.st20{clip-path:url(#SVGID_4_);}.st21{fill:#DDB98A;adobe-blending-mode:multiply;}.st22{fill:#EFEFEF;}.st23{fill:#32768A;}.st24{clip-path:url(#SVGID_6_);}.st25{clip-path:url(#SVGID_8_);}.st26{fill:#CDAB88;adobe-blending-mode:multiply;}.st27{fill:#544A41;}.st28{fill:#F7EDD7;}.st29{fill:#5E5747;}.st30{fill:none;stroke:#3F403F;stroke-width:2;stroke-miterlimit:10;}.st31{fill:#F7C534;}.st32{opacity:0.62;fill:#FFFFFF;adobe-blending-mode:overlay;}.st33{opacity:0.48;adobe-blending-mode:multiply;}.st34{fill:#757065;}.st35{clip-path:url(#SVGID_10_);}.st36{clip-path:url(#SVGID_12_);}.st37{fill:#4D8A3F;}.st38{fill:none;}.st39{fill:#7CC24D;}.st40{fill:#5BA545;}.st41{fill:#3F6731;}.st42{fill:#1F9ED1;}.st43{fill:#0584C4;}.st44{fill:#303030;}.st45{fill:#010101;}.st46{fill:#DDEDED;}.st47{clip-path:url(#SVGID_14_);}.st48{fill:#4297AB;}.st49{opacity:0.5;adobe-blending-mode:multiply;}.st50{fill:#4297AB;adobe-blending-mode:normal;}.st51{clip-path:url(#SVGID_14_);fill:#F05124;}.st52{clip-path:url(#SVGID_14_);fill:#4297AB;}.st53{fill:#7B7B7B;}.st54{fill:#5D7F3F;}.st55{fill:#3B5126;}.st56{fill:#C4342C;}.st57{fill:#E04541;}.st58{fill:#F04B4C;}.st59{opacity:0.46;fill:#FFFFFF;}.st60{opacity:0.82;fill:#FFFFFF;}.st61{fill:#7A1718;}.st62{fill:#A02B27;}.st63{clip-path:url(#SVGID_16_);}.st64{fill:#4A4F3A;}.st65{fill:#5F634C;}.st66{fill:#8C8E6E;}.st67{fill:#642D10;}.st68{fill:#A7A07B;}.st69{fill:#D8D2A7;}.st70{fill:#C4952C;}.st71{fill:#BFBAA5;}.st72{fill:#E2DDBF;}.st73{fill:#4C1416;}.st74{fill:#661218;}.st75{fill:#DDBD92;}.st76{fill:#897154;}</style><clippath id="svgstore5dbf58093df25cf33e47ca05eedfd8a6SVGID_2_"><use xlink:href="#SVGID_15_" overflow="visible"/></clippath><g class="st4"><path class="st64" d="M410.4-47.4H188.8l221.6 165z"/><path class="st65" d="M187.8-46.3h-72.6l294.2 216.4v-51.4zM46.4-46.3l363 266.8v-50.4L115.2-46.3z"/><path class="st66" d="M-51.7-46.3v292.8h461.1v-26L46.4-46.3z"/><path class="st67" d="M31.6 172.7h194.6v-2.3c0-.6-.4-1-1-1H29.9c-.6 0-1 .4-1 1v28.5c0 .6.4 1 1 1h195.4c.6 0 1-.4 1-1v-2.3H31.6v-23.9z"/><path class="st68" d="M31.6 172.7h190.6v8H31.6z"/><path class="st69" d="M222.3 186.4v-5.7H31.6v15.8h190.7v-8l-13.6-2.1z"/><path class="st70" d="M38.5 141.7H215v-2.3c0-.6-.4-1-1-1H36.7c-.6 0-1 .4-1 1v28.5c0 .6.4 1 1 1H214c.6 0 1-.4 1-1v-2.3H38.5v-23.9z"/><path class="st71" d="M38.5 141.7H211v8H38.5z"/><path class="st72" d="M211 155.4v-5.7H38.5v15.8H211v-7.9l-13.6-2.2z"/><path class="st54" d="M122 50c.4.1.7.1 1.1.2.9-2.8 2.1-5.6 3.5-7.8 3.9-6 12.8-8.5 16.5-9.2l-1-1.7s-8.6 1.2-15.1 7.4c-2.7 2.6-4.4 7-5.4 11.3h.1c.1-.2.2-.2.3-.2z"/><path class="st55" d="M126.6 42.4c-1.5 2.2-2.6 5-3.5 7.8.5.1.9.2 1.4.3.6-1.5 1.1-2.9 1.6-3.9 1.9-4 3.8-6.1 7.4-8.1 4.3-2.4 11-2.9 11-2.9l-1.4-2.5c-3.7.8-12.6 3.3-16.5 9.3z"/><path class="st56" d="M149.6 75.8c0-9.3-2.5-18.1-6.8-25.7-1.9-.2-3.9-.3-6.1-.1-2.3.2-4.7.5-7.4 1.2 2.1 5.2 3.2 11 3.2 16.9 0 25.4-20.6 46.1-46 46.2 2.3 5 4.9 9.7 7.5 13.5 1.1.1 2.3.1 3.4.1 28.9 0 52.2-23.3 52.2-52.1z"/><path class="st57" d="M132.7 68.1c0-6-1.1-11.7-3.2-16.9-.6.1-1.2.3-1.9.5-1-.5-2-.9-3.1-1.2-.5 1.2-.9 2.5-1.4 3.8-.4-.1-.8-.1-1.2-.2-.4 0-.7-.1-1.1-.1.2-1.3.5-2.6.8-4h-.2c-1.5.1-2.9.5-4.3 1 .2 1.8.4 3.6.4 5.5 0 21.3-15.8 38.9-36.4 41.6 1.2 5.5 3.2 11.1 5.5 16.2 25.5-.1 46.1-20.7 46.1-46.2zM121.9 54.1c.3-1.3.7-2.6 1.1-3.9-.4-.1-.7-.1-1.1-.1h-.4c-.3 1.4-.6 2.7-.8 4 .5-.1.9-.1 1.2 0zM121.9 54.1c.4 0 .8.1 1.2.2.4-1.3.9-2.6 1.4-3.8-.5-.1-.9-.2-1.4-.3-.5 1.3-.9 2.6-1.2 3.9z"/><path class="st58" d="M117.5 56.5c0-1.9-.1-3.7-.4-5.5-.4.2-.9.4-1.3.6-3.4-.9-6.4-1.4-9.2-1.6-21.8-1.5-26.9 17.2-26.8 36.4 0 3.8.5 7.7 1.4 11.6 20.5-2.6 36.3-20.2 36.3-41.5zm-23.2 17c-4.2 0-7.7-3.4-7.7-7.7 0-4.2 3.4-7.7 7.7-7.7 4.2 0 7.7 3.4 7.7 7.7 0 4.2-3.5 7.7-7.7 7.7zM94.3 58.1c-4.2 0-7.7 3.4-7.7 7.7 0 4.2 3.4 7.7 7.7 7.7 4.2 0 7.7-3.4 7.7-7.7 0-4.2-3.5-7.7-7.7-7.7zM93 67.9c-1.7 0-3.1-1.4-3.1-3.1s1.4-3.1 3.1-3.1c1.7 0 3.1 1.4 3.1 3.1s-1.4 3.1-3.1 3.1z"/><path class="st59" d="M94.3 58.1c-4.2 0-7.7 3.4-7.7 7.7 0 4.2 3.4 7.7 7.7 7.7 4.2 0 7.7-3.4 7.7-7.7 0-4.2-3.5-7.7-7.7-7.7zM93 67.9c-1.7 0-3.1-1.4-3.1-3.1s1.4-3.1 3.1-3.1c1.7 0 3.1 1.4 3.1 3.1s-1.4 3.1-3.1 3.1z"/><circle class="st58" cx="93" cy="64.8" r="3.1"/><circle class="st59" cx="93" cy="64.8" r="3.1"/><circle class="st60" cx="93" cy="64.8" r="3.1"/><path class="st61" d="M163.4 79c-1.1 22.1-13.3 41.2-31.1 52h14.6c7.8-10.1 16.7-28.6 16.8-44.6 0-2.4-.1-4.9-.3-7.4z"/><path class="st73" d="M117.6 137.7c1.2.5 2.4.7 3.6.9v.1h1v-.1c2.4-.2 4.8-1.1 6.9-2.6 2.4 1.2 5 2.1 7.3 2.5.5.1 1 .1 1.5.1 1.4 0 3.4-1.3 5.6-3.5 1.1-1.1 2.2-2.4 3.4-4h-14.6c-4.5 2.8-9.5 5-14.7 6.6z"/><path class="st62" d="M163.4 79c-1.1-14.5-6.2-27.1-20.5-28.9 4.3 7.6 6.8 16.3 6.8 25.7 0 28.8-23.3 52.1-52.1 52.1-1.2 0-2.3 0-3.4-.1.8 1.2 1.6 2.3 2.4 3.3h35.8c17.7-10.9 29.9-30 31-52.1z"/><path class="st74" d="M96.5 131.1c1.2 1.5 2.3 2.9 3.4 4 2.2 2.3 4.2 3.5 5.6 3.5.5 0 1 0 1.5-.1 2.3-.3 4.9-1.3 7.3-2.5 1.1.7 2.2 1.3 3.3 1.7 5.2-1.6 10.2-3.8 14.7-6.6H96.5z"/><path class="st75" d="M-51.7 199.9h461.1v27.7H-51.7z"/><path class="st76" d="M-51.7 227.6h461.1v18.9H-51.7z"/></g></symbol><symbol viewBox="0 0 246.5 246.5" id="icon-requirements-licensure"><title>requirements-licensure</title><style type="text/css">.st0{fill:#A5896F;}.st1{fill:#CDAB88;}.st2{fill:#4991A9;}.st3{fill:#DCEBEB;}.st4{clip-path:url(#SVGID_2_);}.st5{fill:#EEB7AC;}.st6{opacity:0.1;adobe-blending-mode:multiply;}.st7{fill:#FCD5C8;}.st8{fill:#216384;}.st9{fill:#EAEAEA;}.st10{adobe-blending-mode:overlay;}.st11{fill:#7DADA8;}.st12{fill:#B7DBDA;}.st13{fill:#6D9E9C;}.st14{fill:#FFFFFF;}.st15{fill:#BC918A;}.st16{fill:#E5B5A8;}.st17{fill:#878787;}.st18{fill:#B7B7B7;}.st19{fill:#383838;}.st20{clip-path:url(#SVGID_4_);}.st21{fill:#DDB98A;adobe-blending-mode:multiply;}.st22{fill:#EFEFEF;}.st23{fill:#32768A;}.st24{clip-path:url(#SVGID_6_);}.st25{clip-path:url(#SVGID_8_);}.st26{fill:#AD7F59;}.st27{fill:#544A41;}.st28{fill:#F7EDD7;}.st29{fill:#5E5747;}.st30{fill:none;stroke:#3F403F;stroke-width:2;stroke-miterlimit:10;}.st31{fill:#F7C534;}.st32{opacity:0.62;fill:#FFFFFF;adobe-blending-mode:overlay;}.st33{opacity:0.48;adobe-blending-mode:multiply;}.st34{fill:#AEA38C;adobe-blending-mode:normal;}.st35{fill:#CDAB88;adobe-blending-mode:multiply;}.st36{fill:#757065;}.st37{clip-path:url(#SVGID_10_);}.st38{clip-path:url(#SVGID_12_);}.st39{fill:#4D8A3F;}.st40{fill:none;}.st41{fill:#7CC24D;}.st42{fill:#5BA545;}.st43{fill:#3F6731;}.st44{fill:#1F9ED1;}.st45{fill:#0584C4;}.st46{fill:#303030;}.st47{fill:#010101;}.st48{fill:#DDEDED;}.st49{clip-path:url(#SVGID_14_);}.st50{fill:#4297AB;}.st51{opacity:0.5;adobe-blending-mode:multiply;}.st52{fill:#4297AB;adobe-blending-mode:normal;}.st53{clip-path:url(#SVGID_14_);fill:#F05124;}.st54{clip-path:url(#SVGID_14_);fill:#4297AB;}.st55{fill:#7B7B7B;}.st56{fill:#5D7F3F;}.st57{fill:#3B5126;}.st58{fill:#C4342C;}.st59{fill:#E04541;}.st60{fill:#F04B4C;}.st61{opacity:0.46;fill:#FFFFFF;}.st62{opacity:0.82;fill:#FFFFFF;}.st63{fill:#7A1718;}.st64{fill:#A02B27;}.st65{clip-path:url(#SVGID_16_);}.st66{fill:#4A4F3A;}.st67{fill:#5F634C;}.st68{fill:#8C8E6E;}.st69{fill:#642D10;}.st70{fill:#A7A07B;}.st71{fill:#D8D2A7;}.st72{fill:#C4952C;}.st73{fill:#BFBAA5;}.st74{fill:#E2DDBF;}.st75{fill:#4C1416;}.st76{fill:#661218;}.st77{fill:#DDBD92;}.st78{fill:#897154;}</style><circle class="st1" cx="123.2" cy="123.2" r="123.2"/><clippath id="svgstorec0b005bd937e2cfee33b5642c23083ffSVGID_2_"><use xlink:href="#SVGID_7_" overflow="visible"/></clippath><g class="st4"><path class="st26" d="M212.1 57.5H40l-8.2 8.1V189H204l8.1-8.1z"/><path class="st27" d="M40 57.5h172.1v123.4H40z"/><path class="st28" d="M57 73.2h138.2v92.1H57z"/><path class="st29" d="M76.4 92.2H176v-2.5H76.4M76.4 104.6H176v-2.5H76.4M87.1 151.5h78.3v-2.6H87.1"/><path class="st30" d="M98.7 145.6s-5.6-4.7-5.7-9.4c-.1-4.6 2.7-5.7 4-5.3 1.3.4 7.7 3.4 2.6 17.1l-5.1 13.6s-2.8-10.8 2.7-13.3 7.8-4.3 7.8-4.3 3.2-2 4.9 1.2 7.2.5 7.2.5M126.9 139.4l-2.4 14.1s13.5.2 15.1-7.1c1.5-7.3-17.3-11.8-17.3-11.8M125.1 150.4s1.2-3 6.3-4.1 15.6 0 15.6 0 2.1.8 8.2-.5 8.2-6.8 8.2-6.8"/><path class="st31" d="M125.1 111.7l2.9-1.4 1.5 2.9 3.3.5-.5 3.3 2.3 2.4-2.3 2.3.5 3.3-3.3.5-1.5 2.9-2.9-1.4-3 1.4-1.5-2.9-3.3-.5.5-3.3-2.3-2.3 2.3-2.4-.5-3.3 3.3-.5 1.5-2.9z"/><path class="st32" d="M57.1 165.4V73.3h138.2z"/><path class="st34" d="M195.2 73.2H57v3h135.7v89.1h2.5z"/></g><defs><circle id="svgstorec0b005bd937e2cfee33b5642c23083ffSVGID_13_" cx="840.4" cy="123.2" r="123.2"/></defs><clippath id="svgstorec0b005bd937e2cfee33b5642c23083ffSVGID_4_"><use xlink:href="#SVGID_13_" overflow="visible"/></clippath></symbol><symbol viewBox="0 0 246.5 246.5" id="icon-requirements-track_record"><title>requirements-track_record</title><style type="text/css">.st0{fill:#A5896F;}.st1{fill:#CDAB88;}.st2{fill:#4991A9;}.st3{fill:#DCEBEB;}.st4{clip-path:url(#SVGID_2_);}.st5{fill:#EEB7AC;}.st6{opacity:0.1;adobe-blending-mode:multiply;}.st7{fill:#FCD5C8;}.st8{fill:#216384;}.st9{fill:#EAEAEA;}.st10{adobe-blending-mode:overlay;}.st11{fill:#7DADA8;}.st12{fill:#B7DBDA;}.st13{fill:#6D9E9C;}.st14{fill:#FFFFFF;}.st15{fill:#BC918A;}.st16{fill:#E5B5A8;}.st17{fill:#878787;}.st18{fill:#B7B7B7;}.st19{fill:#383838;}.st20{clip-path:url(#SVGID_4_);}.st21{fill:#DDB98A;adobe-blending-mode:multiply;}.st22{fill:#EFEFEF;}.st23{fill:#32768A;}.st24{clip-path:url(#SVGID_6_);}.st25{clip-path:url(#SVGID_8_);}.st26{fill:#CDAB88;adobe-blending-mode:multiply;}.st27{fill:#544A41;}.st28{fill:#F7EDD7;}.st29{fill:#5E5747;}.st30{fill:none;stroke:#3F403F;stroke-width:2;stroke-miterlimit:10;}.st31{fill:#F7C534;}.st32{opacity:0.62;fill:#FFFFFF;adobe-blending-mode:overlay;}.st33{opacity:0.48;adobe-blending-mode:multiply;}.st34{fill:#757065;}.st35{clip-path:url(#SVGID_10_);}.st36{clip-path:url(#SVGID_12_);}.st37{fill:#4D8A3F;}.st38{fill:none;}.st39{fill:#7CC24D;}.st40{fill:#5BA545;}.st41{fill:#3F6731;}.st42{fill:#1F9ED1;}.st43{fill:#0584C4;}.st44{fill:#303030;}.st45{fill:#010101;}.st46{fill:#DDEDED;}.st47{clip-path:url(#SVGID_14_);}.st48{fill:#4297AB;}.st49{opacity:0.5;adobe-blending-mode:multiply;}.st50{fill:#4297AB;adobe-blending-mode:normal;}.st51{clip-path:url(#SVGID_14_);fill:#F05124;}.st52{clip-path:url(#SVGID_14_);fill:#4297AB;}.st53{fill:#7B7B7B;}.st54{fill:#5D7F3F;}.st55{fill:#3B5126;}.st56{fill:#C4342C;}.st57{fill:#E04541;}.st58{fill:#F04B4C;}.st59{opacity:0.46;fill:#FFFFFF;}.st60{opacity:0.82;fill:#FFFFFF;}.st61{fill:#7A1718;}.st62{fill:#A02B27;}.st63{clip-path:url(#SVGID_16_);}.st64{fill:#4A4F3A;}.st65{fill:#5F634C;}.st66{fill:#8C8E6E;}.st67{fill:#642D10;}.st68{fill:#A7A07B;}.st69{fill:#D8D2A7;}.st70{fill:#C4952C;}.st71{fill:#BFBAA5;}.st72{fill:#E2DDBF;}.st73{fill:#4C1416;}.st74{fill:#661218;}.st75{fill:#DDBD92;}.st76{fill:#897154;}</style><circle class="st3" cx="123.2" cy="123.2" r="123.2"/><clippath id="svgstore9af66718edf23927bb9b22193b7409d4SVGID_2_"><use xlink:href="#SVGID_11_" overflow="visible"/></clippath><g class="st4"><path class="st37" d="M207.2 228.1L56 169.2l-23.2 4.6L207.2 238l82.1-32.7-10.7-3.1z"/><path class="st38" d="M172.4 172.6l-5.5-2.9c-.9-.5-2-.6-3-.2l-3.3 1.2c-8.5-2.8-15.6-.3-16.9.2-12 4.7 2.7 10.8-1 13-.9.6-3.4.9-6.2-.5-2.7-1.4-1.8-2.4.5-3.5 1-.5.9-.9-.2-1.3l-6.4-2.3c-1-.3-2-.4-2.9 0-3.2 1.5-7.7 4.2-4.3 7.9l-3.9 1.5c-1.1.4-1.3 1-.3 1.4l5.3 2.9c1 .5 2 .6 3.2.1l3.7-1.4c9.6 3.1 18.1.6 19.4 0 12.4-4.8-2.6-11.3.8-13.3.8-.5 2.8-.7 4.6.3 2.2 1.1 1.9 2.2.1 3.2-.9.5-.9.9.3 1.3l6.7 2.2c1.1.3 2 .3 2.9-.1 2.8-1.3 6.6-3.8 2.7-7.2l3.4-1.3c1.3-.2 1.3-.7.3-1.2z"/><path class="st39" d="M119.2 151.8s-9.1 7.5-28.5 10.1c-31.8 4.3-61.5-2.7-61.5-2.7l177.3 69 84.7-30.8-172-45.6z"/><path class="st40" d="M38.8 237.1l-6-63.3 173.6 63.5.8 78.5z"/><path class="st41" d="M35.9 207.1l.7 7.6 170.6 74.6v-10zM207.2 249.9v-7.8L32.8 176l.6 6.3zM207.2 302.7v-10.1L36.9 218.1l.8 7.7zM38 229.2l.8 7.9 168.4 78.7V306zM33.8 185.6l.7 7.3 172.7 70v-9.7zM34.8 196.3l.7 7.4L207.2 276v-9.8z"/><path class="st42" d="M78.1 97.3c-12.6 0-22.8 10.2-22.8 22.8 0 5.9 2.2 11.3 5.9 15.3l32.2-32.2c-4-3.6-9.4-5.9-15.3-5.9z"/><path class="st43" d="M93.4 103.3l-32.2 32.2c4.2 4.6 10.2 7.4 16.8 7.4 12.6 0 22.8-10.2 22.8-22.8.1-6.7-2.8-12.7-7.4-16.8z"/><path class="st42" d="M167.1 97.3c-12.6 0-22.8 10.2-22.8 22.8 0 5.9 2.2 11.3 5.9 15.3l32.2-32.2c-4-3.6-9.4-5.9-15.3-5.9z"/><path class="st43" d="M182.5 103.3l-32.2 32.2c4.2 4.6 10.2 7.4 16.8 7.4 12.6 0 22.8-10.2 22.8-22.8 0-6.7-2.9-12.7-7.4-16.8z"/><path class="st38" d="M57.6 120.1c0 10.9 9.2 19.8 20.5 19.8s20.5-8.9 20.5-19.8c0-5.5-2.3-10.5-6.1-14.1-5-3.1-11-4.9-17.4-4.9-1.2 0-2.3.1-3.4.2-8.2 2.6-14.1 10.1-14.1 18.8zM152.8 106c-3.8 3.6-6.1 8.6-6.1 14.1 0 10.9 9.2 19.8 20.5 19.8s20.5-8.9 20.5-19.8c0-8.7-5.9-16.2-14-18.8-1.1-.1-2.3-.2-3.4-.2-6.6.1-12.5 1.8-17.5 4.9z"/><path class="st44" d="M167.1 93.8c11.1 0 20.7 6.4 24.9 15.6l.1.1-1.7-5.8-12.7-42.2-5.4-18-.4-1.4V42c-2.6-8.8-6.9-13-15.4-13s-15.4 4.5-15.4 13v17.1h-36.8V42c0-4.9-2.3-8.4-5.9-10.6-1.5-.9-3.3-1.6-5.2-2-1.4-.3-2.8-.4-4.3-.4-8.5 0-12.8 4.1-15.4 13v.1L57.8 93.9l-4.7 15.5.1-.1c4.3-9.2 13.8-15.6 24.9-15.6 12.3 0 22.7 7.9 26.1 18.7V98.1H141v14.4c3.4-10.9 13.8-18.7 26.1-18.7z"/><path class="st45" d="M104.2 112.5c-3.4-10.8-13.8-18.7-26.1-18.7-11.1 0-20.7 6.4-24.9 15.6-1.5 3.3-2.4 6.9-2.4 10.7 0 14.6 12.2 26.4 27.3 26.4 15.1 0 27.3-11.8 27.3-26.4 0-2.6-.4-5.2-1.2-7.6zm-26.1 27.4c-11.3 0-20.5-8.9-20.5-19.8 0-8.7 5.9-16.2 14-18.8 2-.6 4.2-1 6.4-1 5.6 0 10.7 2.2 14.4 5.7 3.8 3.6 6.1 8.6 6.1 14.1.1 10.9-9.1 19.8-20.4 19.8zM192 109.4c-4.3-9.2-13.8-15.6-24.9-15.6-12.3 0-22.7 7.9-26.1 18.7-.8 2.4-1.2 5-1.2 7.6 0 14.6 12.2 26.4 27.3 26.4s27.3-11.8 27.3-26.4c0-3.8-.8-7.5-2.4-10.7zm-24.9 30.5c-11.3 0-20.5-8.9-20.5-19.8 0-5.5 2.3-10.5 6.1-14.1 3.7-3.5 8.8-5.7 14.4-5.7 2.2 0 4.4.4 6.4 1 8.2 2.6 14 10 14 18.8.1 10.9-9.1 19.8-20.4 19.8z"/><path class="st41" d="M127 190.1l5.3 2.9c1 .5 2 .6 3.2.1l3.7-1.4c9.6 3.1 18.1.6 19.4 0 12.4-4.8-2.6-11.3.8-13.3.8-.5 2.8-.7 4.6.3 2.2 1.1 1.9 2.2.1 3.2-.9.5-.9.9.3 1.3l6.7 2.2c1.1.3 2 .3 2.9-.1 2.8-1.3 6.6-3.8 2.7-7.2l3.4-1.3c1.1-.4 1.1-.8.1-1.3l-5.5-2.9c-.9-.5-2-.6-3-.2l-3.3 1.2c-8.5-2.8-15.6-.3-16.9.2-12 4.7 2.7 10.8-1 13-.9.6-3.4.9-6.2-.5-2.7-1.4-1.8-2.4.5-3.5 1-.5.9-.9-.2-1.3l-6.4-2.3c-1-.3-2-.4-2.9 0-3.2 1.5-7.7 4.2-4.3 7.9l-3.9 1.5c-.9.5-1 1-.1 1.5z"/></g><defs><circle id="svgstore9af66718edf23927bb9b22193b7409d4SVGID_13_" cx="479" cy="123.2" r="123.2"/></defs><clippath id="svgstore9af66718edf23927bb9b22193b7409d4SVGID_4_"><use xlink:href="#SVGID_13_" overflow="visible"/></clippath></symbol><symbol viewBox="0 0 420.3 330.2" id="icon-testimonial-bg"><title>testimonial-bg</title><style type="text/css">.st0{fill:#A5896F;}.st1{fill:#CDAB88;}.st2{fill:#4991A9;}.st3{fill:#DCEBEB;}.st4{clip-path:url(#SVGID_2_);}.st5{fill:#EEB7AC;}.st6{opacity:0.1;adobe-blending-mode:multiply;}.st7{fill:#FCD5C8;}.st8{fill:#216384;}.st9{fill:#EAEAEA;}.st10{adobe-blending-mode:overlay;}.st11{fill:#7DADA8;}.st12{fill:#B7DBDA;}.st13{fill:#6D9E9C;}.st14{fill:#FFFFFF;}.st15{fill:#BC918A;}.st16{fill:#E5B5A8;}.st17{fill:#878787;}.st18{fill:#B7B7B7;}.st19{fill:#383838;}.st20{clip-path:url(#SVGID_4_);}.st21{fill:#DDB98A;adobe-blending-mode:multiply;}.st22{fill:#EFEFEF;}.st23{fill:#32768A;}.st24{clip-path:url(#SVGID_6_);}.st25{clip-path:url(#SVGID_8_);}.st26{fill:#AD7F59;}.st27{fill:#544A41;}.st28{fill:#F7EDD7;}.st29{fill:#5E5747;}.st30{fill:none;stroke:#3F403F;stroke-width:2;stroke-miterlimit:10;}.st31{fill:#F7C534;}.st32{opacity:0.62;fill:#FFFFFF;adobe-blending-mode:overlay;}.st33{opacity:0.48;adobe-blending-mode:multiply;}.st34{fill:#AEA38C;adobe-blending-mode:normal;}.st35{fill:#CDAB88;adobe-blending-mode:multiply;}.st36{fill:#757065;}.st37{clip-path:url(#SVGID_10_);}.st38{clip-path:url(#SVGID_12_);}.st39{fill:#4D8A3F;}.st40{fill:none;}.st41{fill:#7CC24D;}.st42{fill:#5BA545;}.st43{fill:#3F6731;}.st44{fill:#1F9ED1;}.st45{fill:#0584C4;}.st46{fill:#303030;}.st47{fill:#010101;}.st48{fill:#DDEDED;}.st49{clip-path:url(#SVGID_14_);}.st50{fill:#4297AB;}.st51{opacity:0.5;adobe-blending-mode:multiply;}.st52{fill:#4297AB;adobe-blending-mode:normal;}.st53{clip-path:url(#SVGID_14_);fill:#F05124;}.st54{clip-path:url(#SVGID_14_);fill:#4297AB;}.st55{fill:#F7F7F7;}.st56{fill:#5D7F3F;}.st57{fill:#3B5126;}.st58{fill:#C4342C;}.st59{fill:#E04541;}.st60{fill:#F04B4C;}.st61{opacity:0.46;fill:#FFFFFF;}.st62{opacity:0.82;fill:#FFFFFF;}.st63{fill:#7A1718;}.st64{fill:#A02B27;}.st65{clip-path:url(#SVGID_16_);}.st66{fill:#4A4F3A;}.st67{fill:#5F634C;}.st68{fill:#8C8E6E;}.st69{fill:#642D10;}.st70{fill:#A7A07B;}.st71{fill:#D8D2A7;}.st72{fill:#C4952C;}.st73{fill:#BFBAA5;}.st74{fill:#E2DDBF;}.st75{fill:#4C1416;}.st76{fill:#661218;}.st77{fill:#DDBD92;}.st78{fill:#897154;}.st79{clip-path:url(#SVGID_18_);}.st80{fill:#F79D8E;}.st81{fill:#FEEBE4;}.st82{fill:#337D9C;}</style><path class="st55" d="M165.1 240.1c-14.3 0-28.1-1.4-41.3-3.8-19.5 13.8-41.5 23.9-65.2 30-6.3 1.6-13.1 2.8-20.2 3.8h-.7c-3.5 0-6.8-2.8-7.5-6.8-.9-4.5 2.1-7.3 4.7-10.3 9.1-10.3 19.5-19.5 27.4-38.9-38-22-62.4-56-62.4-94C0 53.7 73.9 0 165.1 0s165.1 53.7 165.1 120.1-73.9 120-165.1 120zm192.8 34.1c8 19.5 18.3 28.6 27.4 38.9 2.6 3 5.6 5.9 4.7 10.3-.9 4.2-4.5 7.3-8.2 6.8-7-.9-13.8-2.1-20.2-3.8-23.7-6.1-45.7-16.2-65.2-30-13.1 2.3-27 3.8-41.3 3.8-42.4 0-81.4-11.7-110.7-31 6.8.5 13.8.9 20.6.9 50.4 0 98-14.5 134.4-40.8 39.2-28.6 60.7-67.3 60.7-109.3 0-12.2-1.9-24.2-5.4-35.6 39.6 21.8 65.4 56.5 65.4 95.7.2 38.2-24.2 72-62.2 94.1z"/></symbol></svg>