<svg xmlns:x="http://ns.adobe.com/Extensibility/1.0/" xmlns:i="http://ns.adobe.com/AdobeIllustrator/10.0/" xmlns:graph="http://ns.adobe.com/Graphs/1.0/" xmlns="http://www.w3.org/2000/svg" xmlns:xlink="http://www.w3.org/1999/xlink" xmlns:a="http://ns.adobe.com/AdobeSVGViewerExtensions/3.0/" version="1.1" id="Layer_1" x="0px" y="0px" viewBox="0 0 457.5 158.4" style="enable-background:new 0 0 457.5 158.4;" xml:space="preserve"><style type="text/css">.st0{fill:#A5896F;}.st1{fill:#CDAB88;}.st2{fill:#4991A9;}.st3{fill:#DCEBEB;}.st4{clip-path:url(#SVGID_2_);}.st5{fill:#EEB7AC;}.st6{opacity:0.1;adobe-blending-mode:multiply;}.st7{fill:#FCD5C8;}.st8{fill:#216384;}.st9{fill:#EAEAEA;}.st10{adobe-blending-mode:overlay;}.st11{fill:#7DADA8;}.st12{fill:#B7DBDA;}.st13{fill:#6D9E9C;}.st14{fill:#FFFFFF;}.st15{fill:#BC918A;}.st16{fill:#E5B5A8;}.st17{fill:#878787;}.st18{fill:#B7B7B7;}.st19{fill:#383838;}.st20{clip-path:url(#SVGID_4_);}.st21{fill:#DDB98A;adobe-blending-mode:multiply;}.st22{fill:#EFEFEF;}.st23{fill:#32768A;}.st24{clip-path:url(#SVGID_6_);}.st25{clip-path:url(#SVGID_8_);}.st26{fill:#AD7F59;}.st27{fill:#544A41;}.st28{fill:#F7EDD7;}.st29{fill:#5E5747;}.st30{fill:none;stroke:#3F403F;stroke-width:2;stroke-miterlimit:10;}.st31{fill:#F7C534;}.st32{opacity:0.62;fill:#FFFFFF;adobe-blending-mode:overlay;}.st33{opacity:0.48;adobe-blending-mode:multiply;}.st34{fill:#AEA38C;adobe-blending-mode:normal;}.st35{fill:#CDAB88;adobe-blending-mode:multiply;}.st36{fill:#757065;}.st37{clip-path:url(#SVGID_10_);}.st38{clip-path:url(#SVGID_12_);}.st39{fill:#4D8A3F;}.st40{fill:none;}.st41{fill:#7CC24D;}.st42{fill:#5BA545;}.st43{fill:#3F6731;}.st44{fill:#1F9ED1;}.st45{fill:#0584C4;}.st46{fill:#303030;}.st47{fill:#010101;}.st48{fill:#DDEDED;}.st49{clip-path:url(#SVGID_14_);}.st50{fill:#4297AB;}.st51{opacity:0.5;adobe-blending-mode:multiply;}.st52{fill:#4297AB;adobe-blending-mode:normal;}.st53{clip-path:url(#SVGID_14_);fill:#F05124;}.st54{clip-path:url(#SVGID_14_);fill:#4297AB;}.st55{fill:#7B7B7B;}.st56{fill:#5D7F3F;}.st57{fill:#3B5126;}.st58{fill:#C4342C;}.st59{fill:#E04541;}.st60{fill:#F04B4C;}.st61{opacity:0.46;fill:#FFFFFF;}.st62{opacity:0.82;fill:#FFFFFF;}.st63{fill:#7A1718;}.st64{fill:#A02B27;}.st65{clip-path:url(#SVGID_16_);}.st66{fill:#4A4F3A;}.st67{fill:#5F634C;}.st68{fill:#8C8E6E;}.st69{fill:#642D10;}.st70{fill:#A7A07B;}.st71{fill:#D8D2A7;}.st72{fill:#C4952C;}.st73{fill:#BFBAA5;}.st74{fill:#E2DDBF;}.st75{fill:#4C1416;}.st76{fill:#661218;}.st77{fill:#DDBD92;}.st78{fill:#897154;}.st79{fill:#337D9C;}</style><g><path class="st14" d="M24 75.7c0 1.4-0.3 2.8-0.8 4.1c-0.6 1.3-1.3 2.5-2.2 3.5c-0.9 1-2 1.8-3.3 2.4c-1.3 0.6-2.6 1-4.1 1.1 L10.4 87c-1.4 0.1-2.8-0.1-4.1-0.6c-1.3-0.5-2.4-1.1-3.3-2c-0.9-0.9-1.7-1.9-2.2-3.2C0.3 80 0 78.7 0 77.3V39.1 c0-1.4 0.3-2.8 0.8-4.1c0.6-1.3 1.3-2.5 2.2-3.5c0.9-1 2-1.8 3.3-2.4c1.3-0.6 2.6-1 4.1-1.1l3.1-0.2c1.4-0.1 2.8 0.1 4.1 0.6 c1.3 0.5 2.4 1.1 3.3 2c0.9 0.9 1.7 1.9 2.2 3.2c0.5 1.2 0.8 2.6 0.8 4V75.7z M14.3 38.6c0-0.5-0.2-1-0.6-1.4 c-0.4-0.4-0.9-0.5-1.4-0.5l-0.7 0c-0.6 0-1 0.3-1.4 0.7c-0.4 0.4-0.6 0.9-0.6 1.4v37.4c0 0.6 0.2 1 0.6 1.4 c0.4 0.4 0.9 0.5 1.4 0.5l0.7 0c0.6 0 1-0.3 1.4-0.7c0.4-0.4 0.6-0.9 0.6-1.4V38.6z"/><path class="st14" d="M53.8 26.9v46.9c0 1.4-0.3 2.8-0.8 4.1c-0.6 1.3-1.3 2.5-2.2 3.5c-0.9 1-2 1.8-3.3 2.4 c-1.3 0.6-2.6 1-4.1 1.1l-3.1 0.2c-1.4 0.1-2.8-0.1-4.1-0.6c-1.3-0.5-2.4-1.1-3.3-2c-0.9-0.9-1.7-1.9-2.2-3.2 c-0.6-1.2-0.8-2.6-0.8-4V28.5c0-0.8 0.4-1.2 1.2-1.2l7.4-0.5c0.8 0 1.2 0.3 1.2 1.1v46.5c0 0.6 0.2 1 0.6 1.4 c0.4 0.4 0.9 0.5 1.4 0.5l0.7 0c0.6 0 1-0.3 1.4-0.7c0.4-0.4 0.6-0.9 0.6-1.4V27.6c0-0.8 0.4-1.2 1.2-1.2l7.4-0.5 C53.4 25.8 53.8 26.2 53.8 26.9z"/><path class="st14" d="M86 80.4c0.2 0.8-0.1 1.2-0.8 1.2l-7.5 0.5c-0.3 0-0.6-0.1-1-0.3c-0.3-0.2-0.5-0.5-0.6-0.8l-6-19.9v21.4 L70 81.8c-0.1 0.6-0.5 0.9-1.1 0.9l-7.4 0.5c-0.8 0-1.2-0.3-1.2-1.1V26.5c0-0.8 0.4-1.2 1.2-1.2l12.4-0.8c1.4-0.1 2.8 0.1 4.1 0.6 c1.3 0.5 2.4 1.1 3.3 2c0.9 0.9 1.7 1.9 2.2 3.2c0.5 1.2 0.8 2.6 0.8 4v13.5c0 2-0.5 3.9-1.6 5.6c-1 1.7-2.4 3-4.1 4L86 80.4z M70 50.2l2.6-0.2c0.6 0 1-0.3 1.4-0.7c0.4-0.4 0.6-0.9 0.6-1.4V35.3c0-0.5-0.2-1-0.6-1.4c-0.4-0.4-0.9-0.5-1.4-0.5L70 33.6V50.2z"/><path class="st14" d="M124.2 45.9c-0.7 0.8-1.5 1.4-2.4 1.8c0.9 0.3 1.7 0.7 2.4 1.3c0.5 0.5 0.9 1.2 1.3 2.1 c0.3 1.2 0.4 2.4 0.4 3.5v14.6c0 1.4-0.3 2.8-0.8 4.1c-0.6 1.3-1.3 2.5-2.2 3.5c-0.9 1-2 1.8-3.3 2.4c-1.3 0.6-2.6 1-4.1 1.1 l-3.1 0.2c-1.4 0.1-2.8-0.1-4.1-0.6c-1.3-0.5-2.4-1.1-3.3-2c-0.9-0.9-1.7-1.9-2.2-3.2c-0.6-1.2-0.8-2.6-0.8-4V56.1 c0-1.2 0.1-2.4 0.4-3.6c0.2-0.5 0.3-0.9 0.5-1.2c0.2-0.4 0.5-0.7 0.8-1c0.7-0.7 1.5-1.2 2.4-1.6c-0.9-0.3-1.7-0.8-2.4-1.5 c-0.8-0.8-1.3-1.9-1.6-3.2c-0.1-0.3-0.1-0.7-0.1-1c0-0.4 0-0.7 0-1.1v-9.3c0-1.4 0.3-2.8 0.8-4.1c0.6-1.3 1.3-2.5 2.2-3.5 c0.9-1 2-1.8 3.3-2.4c1.3-0.6 2.6-1 4.1-1.1l3.1-0.2c1.4-0.1 2.8 0.1 4.1 0.6c1.3 0.5 2.4 1.1 3.3 2c0.9 0.9 1.7 1.9 2.2 3.2 c0.6 1.2 0.8 2.6 0.8 4v9.3c0 0.4 0 0.8 0 1.1c0 0.4-0.1 0.7-0.1 1C125.5 43.8 125 45 124.2 45.9z M116.3 32c0-0.5-0.2-1-0.6-1.4 c-0.4-0.4-0.9-0.5-1.4-0.5l-0.7 0c-0.6 0-1 0.3-1.4 0.7c-0.4 0.4-0.6 0.9-0.6 1.4v9c0 0.9 0.1 1.5 0.4 1.7c0.1 0.1 0.3 0.2 0.5 0.4 c0.2 0.2 0.6 0.3 1 0.2l0.8-0.1c0.4 0 0.7-0.1 1-0.4c0.2-0.2 0.4-0.4 0.5-0.5c0.3-0.3 0.4-0.9 0.4-1.8V32z M116.3 55.6 c0-0.4 0-0.9-0.1-1.3c-0.1-0.4-0.2-0.8-0.3-1c-0.1-0.1-0.3-0.2-0.5-0.4c-0.2-0.2-0.5-0.2-1-0.2l-0.8 0.1c-0.5 0-0.8 0.1-1 0.3 c-0.2 0.2-0.3 0.3-0.5 0.4c-0.2 0.2-0.3 0.6-0.3 1c-0.1 0.4-0.1 0.9-0.1 1.3v13.8c0 0.6 0.2 1 0.6 1.4c0.4 0.4 0.9 0.5 1.4 0.5 l0.7 0c0.5 0 1-0.3 1.4-0.7c0.4-0.4 0.6-0.9 0.6-1.4V55.6z"/><path class="st14" d="M176.2 19.1v55.6c0 0.8-0.4 1.2-1.2 1.2l-7.9 0.5c-0.8 0-1.2-0.3-1.2-1.1V49.2l-5.5 21.7 c-0.1 0.3-0.2 0.4-0.4 0.4s-0.3-0.1-0.4-0.4l-5.5-21v26.1c0 0.8-0.4 1.2-1.2 1.2l-7.9 0.5c-0.8 0-1.2-0.3-1.2-1.1V21.2 c0-0.8 0.4-1.2 1.2-1.2l7-0.4c0.3 0 0.6 0.1 0.9 0.3c0.2 0.2 0.4 0.5 0.5 0.8l6.5 29.2l6.5-30c0.1-0.3 0.3-0.6 0.5-0.8 c0.2-0.3 0.5-0.4 0.9-0.4l7-0.4C175.8 18 176.2 18.3 176.2 19.1z"/><path class="st14" d="M193.3 73.6c0 0.8-0.4 1.2-1.2 1.2l-7.4 0.5c-0.8 0-1.2-0.3-1.2-1.1V18.6c0-0.8 0.4-1.2 1.2-1.2l7.4-0.5 c0.8 0 1.2 0.3 1.2 1.1V73.6z"/><path class="st14" d="M222.2 64.4v7.4c0 0.8-0.4 1.2-1.2 1.2l-11.2 0.7l-0.2 0l-0.1 0l-7.4 0.5c-0.8 0-1.2-0.3-1.2-1.1V17.5 c0-0.8 0.4-1.2 1.2-1.2l7.4-0.5c0.8 0 1.2 0.3 1.2 1.1v47.1l10.3-0.7C221.8 63.2 222.2 63.6 222.2 64.4z"/><path class="st14" d="M249.5 62.6V70c0 0.8-0.4 1.2-1.2 1.2l-11.2 0.7l-0.2 0l-0.1 0l-7.4 0.5c-0.8 0-1.2-0.3-1.2-1.1V15.8 c0-0.8 0.4-1.2 1.2-1.2l7.4-0.5c0.8 0 1.2 0.3 1.2 1.1v47.1l10.3-0.7C249.1 61.5 249.5 61.9 249.5 62.6z"/><path class="st14" d="M265 69c0 0.8-0.4 1.2-1.2 1.2l-7.4 0.5c-0.8 0-1.2-0.3-1.2-1.1V14c0-0.8 0.4-1.2 1.2-1.2l7.4-0.5 c0.8 0 1.2 0.3 1.2 1.1V69z"/><path class="st14" d="M295.6 58.4c0 1.4-0.3 2.8-0.8 4.1c-0.6 1.3-1.3 2.5-2.2 3.5c-0.9 1-2 1.8-3.3 2.4c-1.3 0.6-2.6 1-4.1 1.1 l-3.1 0.2c-1.4 0.1-2.8-0.1-4.1-0.6c-1.3-0.5-2.4-1.1-3.3-2c-0.9-0.9-1.7-1.9-2.2-3.2c-0.6-1.2-0.8-2.6-0.8-4V21.7 c0-1.4 0.3-2.8 0.8-4.1c0.6-1.3 1.3-2.5 2.2-3.5c0.9-1 2-1.8 3.3-2.4c1.3-0.6 2.6-1 4.1-1.1l3.1-0.2c1.4-0.1 2.8 0.1 4.1 0.6 c1.3 0.5 2.4 1.1 3.3 2c0.9 0.9 1.7 1.9 2.2 3.2c0.5 1.2 0.8 2.6 0.8 4V58.4z M285.9 21.2c0-0.5-0.2-1-0.6-1.4 c-0.4-0.4-0.9-0.5-1.4-0.5l-0.7 0c-0.6 0-1 0.3-1.4 0.7c-0.4 0.4-0.6 0.9-0.6 1.4v37.4c0 0.6 0.2 1 0.6 1.4 c0.4 0.4 0.9 0.5 1.4 0.5l0.7 0c0.6 0 1-0.3 1.4-0.7c0.4-0.4 0.6-0.9 0.6-1.4V21.2z"/><path class="st14" d="M328.7 9.3v55.6c0 0.8-0.4 1.2-1.2 1.2l-5.3 0.3c-0.3 0-0.6-0.1-1-0.3c-0.3-0.2-0.5-0.4-0.6-0.7l-8.8-26.8V66 c0 0.8-0.4 1.2-1.2 1.2l-7.4 0.5c-0.8 0-1.2-0.3-1.2-1.1V11c0-0.8 0.4-1.2 1.2-1.2l5.5-0.3c0.3 0 0.6 0.1 1 0.3 c0.3 0.2 0.5 0.4 0.6 0.7l8.6 26V10c0-0.8 0.4-1.2 1.2-1.2l7.4-0.5C328.3 8.2 328.7 8.6 328.7 9.3z"/><path class="st14" d="M367.3 6.9v7.4c0 0.8-0.4 1.2-1.2 1.2l-9.4 0.6V28l8.2-0.5c0.8 0 1.2 0.3 1.2 1.1v7.4c0 0.8-0.4 1.2-1.2 1.2 l-8.2 0.5v25.5c0 0.8-0.4 1.2-1.2 1.2l-7.4 0.5c-0.8 0-1.2-0.3-1.2-1.1V8.2c0-0.8 0.4-1.2 1.2-1.2l17.9-1.1 C366.9 5.7 367.3 6.1 367.3 6.9z"/><path class="st14" d="M395.4 60.6c0.1 0.8-0.2 1.2-1 1.2l-7.5 0.5c-0.7 0-1.1-0.3-1.2-1.1l-0.7-8.9l-5.1 0.3l-0.7 9 c-0.1 0.8-0.5 1.2-1.2 1.2l-7.5 0.5c-0.8 0-1.1-0.3-1-1.1l6.2-56c0.1-0.8 0.5-1.2 1.3-1.2l10.9-0.7c0.8 0 1.2 0.3 1.3 1.1 L395.4 60.6z M384.3 43.2l-1.6-22.3l-0.7 0l-1.6 22.5L384.3 43.2z"/><path class="st14" d="M427.3 3v55.6c0 0.8-0.4 1.2-1.2 1.2l-5.3 0.3c-0.3 0-0.6-0.1-1-0.3c-0.3-0.2-0.5-0.4-0.6-0.7l-8.8-26.8v27.3 c0 0.8-0.4 1.2-1.2 1.2l-7.4 0.5c-0.8 0-1.2-0.3-1.2-1.1V4.7c0-0.8 0.4-1.2 1.2-1.2l5.5-0.3c0.3 0 0.6 0.1 1 0.3 c0.3 0.2 0.5 0.4 0.6 0.7l8.6 26V3.6c0-0.8 0.4-1.2 1.2-1.2l7.4-0.5C426.9 1.9 427.3 2.3 427.3 3z"/><path class="st14" d="M451.2 0.6c1.3 0.5 2.4 1.1 3.3 2c0.9 0.9 1.7 1.9 2.2 3.2c0.6 1.2 0.8 2.6 0.8 4v3.1c0 0.8-0.4 1.3-1.1 1.6 l-7.5 2.5c-0.7 0.3-1.1 0-1.1-0.8v-5.4c0-0.5-0.2-1-0.6-1.4c-0.4-0.4-0.9-0.5-1.4-0.5l-0.7 0c-0.6 0-1 0.3-1.4 0.7 c-0.4 0.4-0.6 0.9-0.6 1.4v7.5c0.1 0.6 0.2 1.1 0.3 1.6c0.2 0.4 0.5 0.9 0.9 1.3l10.8 7.4c0.9 0.7 1.4 1.5 1.7 2.2 c0.2 0.8 0.4 1.7 0.5 2.7V48c0 1.4-0.3 2.8-0.8 4.1c-0.6 1.3-1.3 2.5-2.2 3.5c-0.9 1-2 1.8-3.3 2.4s-2.6 1-4.1 1.1l-3.1 0.2 c-1.4 0.1-2.8-0.1-4.1-0.6c-1.3-0.5-2.4-1.1-3.3-2c-0.9-0.9-1.7-1.9-2.2-3.2c-0.6-1.2-0.8-2.6-0.8-4v-7.9c0-0.8 0.4-1.3 1.1-1.6 l7.5-2.5c0.7-0.3 1.1 0 1.1 0.8v10.2c0 0.6 0.2 1 0.6 1.4c0.4 0.4 0.9 0.5 1.4 0.5l0.7 0c0.6 0 1-0.3 1.4-0.7 c0.4-0.4 0.6-0.9 0.6-1.4V37.3c-0.1-0.7-0.2-1.3-0.3-1.9c-0.2-0.5-0.5-1-1-1.4l-10.7-7.5c-0.8-0.7-1.4-1.5-1.8-2.2 c-0.4-0.7-0.5-1.8-0.5-3v-9.9c0-1.4 0.3-2.8 0.8-4.1c0.5-1.3 1.3-2.5 2.2-3.5c0.9-1 2-1.8 3.3-2.4c1.3-0.6 2.6-1 4.1-1.1l3.1-0.2 C448.5-0.1 449.9 0.1 451.2 0.6z"/><path class="st14" d="M81.8 99.7v55.6c0 0.8-0.4 1.2-1.2 1.2l-7.9 0.5c-0.8 0-1.2-0.3-1.2-1.1v-26.1L66 151.5 c-0.1 0.3-0.2 0.4-0.4 0.4c-0.2 0-0.3-0.1-0.4-0.4l-5.5-21v26.1c0 0.8-0.4 1.2-1.2 1.2l-7.9 0.5c-0.8 0-1.2-0.3-1.2-1.1v-55.6 c0-0.8 0.4-1.2 1.2-1.2l7-0.5c0.3 0 0.6 0.1 0.9 0.3c0.2 0.2 0.4 0.5 0.5 0.8l6.5 29.2l6.5-30c0.1-0.3 0.3-0.6 0.5-0.8 c0.2-0.3 0.5-0.4 0.9-0.4l7-0.5C81.4 98.5 81.8 98.9 81.8 99.7z"/><path class="st14" d="M109.5 146.1v7.4c0 0.8-0.4 1.2-1.2 1.2l-17.9 1.1c-0.8 0-1.2-0.3-1.2-1.1V99.2c0-0.8 0.4-1.2 1.2-1.2 l17.9-1.1c0.8 0 1.2 0.3 1.2 1.1v7.4c0 0.8-0.4 1.2-1.2 1.2l-9.4 0.6V119l8.2-0.5c0.8 0 1.2 0.3 1.2 1.1v7.4c0 0.8-0.4 1.2-1.2 1.2 l-8.2 0.5v17l9.4-0.6C109.1 145 109.5 145.4 109.5 146.1z"/><path class="st14" d="M140.5 151.5c0.1 0.8-0.2 1.2-1 1.2l-7.5 0.5c-0.7 0-1.1-0.3-1.2-1.1l-0.7-8.9l-5.1 0.3l-0.7 9 c-0.1 0.8-0.5 1.2-1.2 1.2l-7.5 0.5c-0.8 0-1.1-0.3-1-1.1l6.2-56c0.1-0.8 0.6-1.2 1.3-1.2l10.9-0.7c0.8 0 1.2 0.3 1.3 1.1 L140.5 151.5z M129.4 134l-1.6-22.3l-0.7 0l-1.6 22.5L129.4 134z"/><path class="st14" d="M172.4 93.9v55.6c0 0.8-0.4 1.2-1.2 1.2l-5.3 0.3c-0.3 0-0.6-0.1-1-0.3c-0.3-0.2-0.5-0.4-0.6-0.7l-8.8-26.8 v27.3c0 0.8-0.4 1.2-1.2 1.2l-7.4 0.5c-0.8 0-1.2-0.3-1.2-1.1V95.6c0-0.8 0.4-1.2 1.2-1.2l5.5-0.3c0.3 0 0.6 0.1 1 0.3 c0.3 0.2 0.5 0.4 0.6 0.7l8.6 26V94.5c0-0.8 0.4-1.2 1.2-1.2l7.4-0.5C172 92.7 172.4 93.1 172.4 93.9z"/><path class="st14" d="M212.4 119.2c0.8 0.7 1.3 1.6 1.7 2.6c0.4 1 0.6 2.2 0.6 3.4v12.2c0 1.4-0.3 2.8-0.8 4.1 c-0.6 1.3-1.3 2.5-2.2 3.5c-0.9 1-2 1.8-3.3 2.4c-1.3 0.6-2.6 1-4.1 1.1l-12.4 0.8c-0.8 0-1.2-0.3-1.2-1.1V92.7 c0-0.8 0.4-1.2 1.2-1.2l12.4-0.8c1.4-0.1 2.8 0.1 4.1 0.6c1.3 0.5 2.4 1.1 3.3 2c0.9 0.9 1.7 1.9 2.2 3.2c0.6 1.2 0.8 2.6 0.8 4 v8.3c0 2.5-0.8 4.7-2.3 6.5c-0.8 0.9-1.8 1.7-3 2.3C210.7 117.9 211.7 118.5 212.4 119.2z M205.1 101.5c0-0.5-0.2-1-0.6-1.4 c-0.4-0.4-0.9-0.5-1.4-0.5l-2.6 0.2v14.1l2.6-0.2c0.6 0 1-0.3 1.4-0.7c0.4-0.4 0.6-0.9 0.6-1.4V101.5z M205.1 124.5 c0-0.5-0.2-1-0.6-1.4c-0.4-0.4-0.9-0.5-1.4-0.5l-2.6 0.2V140l2.6-0.2c0.6 0 1-0.3 1.4-0.7c0.4-0.4 0.6-0.9 0.6-1.4V124.5z"/><path class="st14" d="M244.1 89.3v46.9c0 1.4-0.3 2.8-0.8 4.1c-0.6 1.3-1.3 2.5-2.2 3.5c-0.9 1-2 1.8-3.3 2.4 c-1.3 0.6-2.6 1-4.1 1.1l-3.1 0.2c-1.4 0.1-2.8-0.1-4.1-0.6c-1.3-0.5-2.4-1.1-3.3-2c-0.9-0.9-1.7-1.9-2.2-3.2 c-0.6-1.2-0.8-2.6-0.8-4V90.8c0-0.8 0.4-1.2 1.2-1.2l7.4-0.5c0.8 0 1.2 0.3 1.2 1.1v46.5c0 0.6 0.2 1 0.6 1.4 c0.4 0.4 0.9 0.5 1.4 0.5l0.7 0c0.5 0 1-0.3 1.4-0.7c0.4-0.4 0.6-0.9 0.6-1.4V89.9c0-0.8 0.4-1.2 1.2-1.2l7.4-0.5 C243.7 88.2 244.1 88.5 244.1 89.3z"/><path class="st14" d="M267.1 86.9c1.3 0.5 2.4 1.1 3.3 2c0.9 0.9 1.7 1.9 2.2 3.2c0.6 1.2 0.8 2.6 0.8 4v3.1c0 0.8-0.4 1.3-1.1 1.6 l-7.5 2.5c-0.7 0.3-1.1 0-1.1-0.8v-5.4c0-0.5-0.2-1-0.6-1.4c-0.4-0.4-0.9-0.5-1.4-0.5l-0.7 0c-0.6 0-1 0.3-1.4 0.7 c-0.4 0.4-0.6 0.9-0.6 1.4v7.5c0.1 0.6 0.2 1.1 0.3 1.6c0.2 0.4 0.5 0.9 0.9 1.3l10.8 7.4c0.9 0.7 1.4 1.5 1.7 2.2 c0.2 0.8 0.4 1.7 0.5 2.7v14.2c0 1.4-0.3 2.8-0.8 4.1c-0.6 1.3-1.3 2.5-2.2 3.5c-0.9 1-2 1.8-3.3 2.4c-1.3 0.6-2.6 1-4.1 1.1 l-3.1 0.2c-1.4 0.1-2.8-0.1-4.1-0.6c-1.3-0.5-2.4-1.1-3.3-2c-0.9-0.9-1.7-1.9-2.2-3.2c-0.6-1.2-0.8-2.6-0.8-4v-7.9 c0-0.8 0.4-1.3 1.1-1.6l7.5-2.5c0.7-0.3 1.1 0 1.1 0.8v10.2c0 0.6 0.2 1 0.6 1.4c0.4 0.4 0.9 0.5 1.4 0.5l0.7 0 c0.6 0 1-0.3 1.4-0.7c0.4-0.4 0.6-0.9 0.6-1.4v-10.9c-0.1-0.7-0.2-1.3-0.3-1.9c-0.2-0.5-0.5-1-1-1.4l-10.7-7.5 c-0.8-0.7-1.4-1.5-1.8-2.2c-0.4-0.7-0.5-1.8-0.5-3v-9.9c0-1.4 0.3-2.8 0.8-4.1c0.5-1.3 1.3-2.5 2.2-3.5c0.9-1 2-1.8 3.3-2.4 c1.3-0.6 2.6-1 4.1-1.1l3.1-0.2C264.5 86.2 265.8 86.4 267.1 86.9z"/><path class="st14" d="M289.3 142c0 0.8-0.4 1.2-1.2 1.2l-7.4 0.5c-0.8 0-1.2-0.3-1.2-1.1V87c0-0.8 0.4-1.2 1.2-1.2l7.4-0.5 c0.8 0 1.2 0.3 1.2 1.1V142z"/><path class="st14" d="M323.2 84.2v55.6c0 0.8-0.4 1.2-1.2 1.2l-5.3 0.3c-0.3 0-0.6-0.1-1-0.3c-0.3-0.2-0.5-0.4-0.6-0.7l-8.8-26.8 v27.3c0 0.8-0.4 1.2-1.2 1.2l-7.4 0.5c-0.8 0-1.2-0.3-1.2-1.1V85.9c0-0.8 0.4-1.2 1.2-1.2l5.5-0.3c0.3 0 0.6 0.1 1 0.3 c0.3 0.2 0.5 0.4 0.6 0.7l8.6 26V84.8c0-0.8 0.4-1.2 1.2-1.2l7.4-0.5C322.9 83.1 323.2 83.4 323.2 84.2z"/><path class="st14" d="M351 130.7v7.4c0 0.8-0.4 1.2-1.2 1.2l-17.9 1.1c-0.8 0-1.2-0.3-1.2-1.1V83.7c0-0.8 0.4-1.2 1.2-1.2l17.9-1.1 c0.8 0 1.2 0.3 1.2 1.1v7.4c0 0.8-0.4 1.2-1.2 1.2l-9.4 0.6v11.9l8.2-0.5c0.8 0 1.2 0.3 1.2 1.1v7.4c0 0.8-0.4 1.2-1.2 1.2 l-8.2 0.5v17l9.4-0.6C350.6 129.5 351 129.9 351 130.7z"/><path class="st14" d="M373.5 80.1c1.3 0.5 2.4 1.1 3.3 2c0.9 0.9 1.7 1.9 2.2 3.2c0.6 1.2 0.8 2.6 0.8 4v3.1c0 0.8-0.4 1.3-1.1 1.6 l-7.5 2.5c-0.7 0.3-1.1 0-1.1-0.8v-5.4c0-0.5-0.2-1-0.6-1.4c-0.4-0.4-0.9-0.5-1.4-0.5l-0.7 0c-0.6 0-1 0.3-1.4 0.7 c-0.4 0.4-0.6 0.9-0.6 1.4v7.5c0.1 0.6 0.2 1.1 0.3 1.6c0.2 0.4 0.5 0.9 0.9 1.3l10.8 7.4c0.9 0.7 1.4 1.5 1.7 2.2 c0.2 0.8 0.4 1.7 0.5 2.7v14.2c0 1.4-0.3 2.8-0.8 4.1c-0.6 1.3-1.3 2.5-2.2 3.5c-0.9 1-2 1.8-3.3 2.4c-1.3 0.6-2.6 1-4.1 1.1 l-3.1 0.2c-1.4 0.1-2.8-0.1-4.1-0.6c-1.3-0.5-2.4-1.1-3.3-2c-0.9-0.9-1.7-1.9-2.2-3.2c-0.6-1.2-0.8-2.6-0.8-4v-7.9 c0-0.8 0.4-1.3 1.1-1.6l7.5-2.5c0.7-0.3 1.1 0 1.1 0.8V128c0 0.6 0.2 1 0.6 1.4c0.4 0.4 0.9 0.5 1.4 0.5l0.7 0c0.6 0 1-0.3 1.4-0.7 c0.4-0.4 0.6-0.9 0.6-1.4v-10.9c-0.1-0.7-0.2-1.3-0.3-1.9c-0.2-0.5-0.5-1-1-1.4l-10.7-7.5c-0.8-0.7-1.4-1.5-1.8-2.2 c-0.4-0.7-0.5-1.8-0.5-3v-9.9c0-1.4 0.3-2.8 0.8-4.1c0.5-1.3 1.3-2.5 2.2-3.5c0.9-1 2-1.8 3.3-2.4c1.3-0.6 2.6-1 4.1-1.1l3.1-0.2 C370.9 79.4 372.3 79.6 373.5 80.1z"/><path class="st14" d="M402.5 78.2c1.3 0.5 2.4 1.1 3.3 2c0.9 0.9 1.7 1.9 2.2 3.2c0.6 1.2 0.8 2.6 0.8 4v3.1c0 0.8-0.4 1.3-1.1 1.6 l-7.5 2.5c-0.7 0.3-1.1 0-1.1-0.8v-5.4c0-0.5-0.2-1-0.6-1.4c-0.4-0.4-0.9-0.5-1.4-0.5l-0.7 0c-0.6 0-1 0.3-1.4 0.7 c-0.4 0.4-0.6 0.9-0.6 1.4v7.5c0.1 0.6 0.2 1.1 0.3 1.6s0.5 0.9 0.9 1.3l10.8 7.4c0.9 0.7 1.4 1.5 1.7 2.2c0.2 0.8 0.4 1.7 0.5 2.7 v14.2c0 1.4-0.3 2.8-0.8 4.1c-0.6 1.3-1.3 2.5-2.2 3.5c-0.9 1-2 1.8-3.3 2.4s-2.6 1-4.1 1.1l-3.1 0.2c-1.4 0.1-2.8-0.1-4.1-0.6 c-1.3-0.5-2.4-1.1-3.3-2c-0.9-0.9-1.7-1.9-2.2-3.2c-0.6-1.2-0.8-2.6-0.8-4v-7.9c0-0.8 0.4-1.3 1.1-1.6l7.5-2.5 c0.7-0.3 1.1 0 1.1 0.8v10.2c0 0.6 0.2 1 0.6 1.4c0.4 0.4 0.9 0.5 1.4 0.5l0.7 0c0.6 0 1-0.3 1.4-0.7c0.4-0.4 0.6-0.9 0.6-1.4 v-10.9c-0.1-0.7-0.2-1.3-0.3-1.9c-0.2-0.5-0.5-1-1-1.4l-10.7-7.5c-0.8-0.7-1.4-1.5-1.8-2.2c-0.4-0.7-0.5-1.8-0.5-3V89 c0-1.4 0.3-2.8 0.8-4.1c0.5-1.3 1.3-2.5 2.2-3.5c0.9-1 2-1.8 3.3-2.4c1.3-0.6 2.6-1 4.1-1.1l3.1-0.2 C399.9 77.6 401.2 77.8 402.5 78.2z"/></g></svg>