<?xml version="1.0" encoding="utf-8"?>
<!-- Generator: Adobe Illustrator 17.1.0, SVG Export Plug-In . SVG Version: 6.00 Build 0)  -->
<!DOCTYPE svg PUBLIC "-//W3C//DTD SVG 1.1//EN" "http://www.w3.org/Graphics/SVG/1.1/DTD/svg11.dtd">
<svg version="1.1" id="Layer_1"
	 xmlns="http://www.w3.org/2000/svg" xmlns:xlink="http://www.w3.org/1999/xlink" xmlns:a="http://ns.adobe.com/AdobeSVGViewerExtensions/3.0/"
	 x="0px" y="0px" viewBox="0 0 364.1 364.1" style="enable-background:new 0 0 364.1 364.1;" xml:space="preserve">
<style type="text/css">
	.st0{fill:#A5896F;}
	.st1{fill:#CDAB88;}
	.st2{fill:#4991A9;}
	.st3{fill:#DCEBEB;}
	.st4{clip-path:url(#SVGID_2_);}
	.st5{fill:#EEB7AC;}
	.st6{opacity:0.1;adobe-blending-mode:multiply;}
	.st7{fill:#FCD5C8;}
	.st8{fill:#216384;}
	.st9{fill:#EAEAEA;}
	.st10{adobe-blending-mode:overlay;}
	.st11{fill:#7DADA8;}
	.st12{fill:#B7DBDA;}
	.st13{fill:#6D9E9C;}
	.st14{fill:#FFFFFF;}
	.st15{fill:#BC918A;}
	.st16{fill:#E5B5A8;}
	.st17{fill:#878787;}
	.st18{fill:#B7B7B7;}
	.st19{fill:#383838;}
	.st20{clip-path:url(#SVGID_4_);}
	.st21{fill:#DDB98A;adobe-blending-mode:multiply;}
	.st22{fill:#EFEFEF;}
	.st23{fill:#32768A;}
	.st24{clip-path:url(#SVGID_6_);}
	.st25{clip-path:url(#SVGID_8_);}
	.st26{fill:#AD7F59;}
	.st27{fill:#544A41;}
	.st28{fill:#F7EDD7;}
	.st29{fill:#5E5747;}
	.st30{fill:none;stroke:#3F403F;stroke-width:2;stroke-miterlimit:10;}
	.st31{fill:#F7C534;}
	.st32{opacity:0.62;fill:#FFFFFF;adobe-blending-mode:overlay;}
	.st33{opacity:0.48;adobe-blending-mode:multiply;}
	.st34{fill:#AEA38C;adobe-blending-mode:normal;}
	.st35{fill:#CDAB88;adobe-blending-mode:multiply;}
	.st36{fill:#757065;}
	.st37{clip-path:url(#SVGID_10_);}
	.st38{clip-path:url(#SVGID_12_);}
	.st39{fill:#4D8A3F;}
	.st40{fill:none;}
	.st41{fill:#7CC24D;}
	.st42{fill:#5BA545;}
	.st43{fill:#3F6731;}
	.st44{fill:#1F9ED1;}
	.st45{fill:#0584C4;}
	.st46{fill:#303030;}
	.st47{fill:#010101;}
	.st48{fill:#DDEDED;}
	.st49{clip-path:url(#SVGID_14_);}
	.st50{fill:#4297AB;}
	.st51{opacity:0.5;adobe-blending-mode:multiply;}
	.st52{fill:#4297AB;adobe-blending-mode:normal;}
	.st53{clip-path:url(#SVGID_14_);fill:#F05124;}
	.st54{clip-path:url(#SVGID_14_);fill:#4297AB;}
	.st55{fill:#7B7B7B;}
	.st56{fill:#5D7F3F;}
	.st57{fill:#3B5126;}
	.st58{fill:#C4342C;}
	.st59{fill:#E04541;}
	.st60{fill:#F04B4C;}
	.st61{opacity:0.46;fill:#FFFFFF;}
	.st62{opacity:0.82;fill:#FFFFFF;}
	.st63{fill:#7A1718;}
	.st64{fill:#A02B27;}
	.st65{clip-path:url(#SVGID_16_);}
	.st66{fill:#4A4F3A;}
	.st67{fill:#5F634C;}
	.st68{fill:#8C8E6E;}
	.st69{fill:#642D10;}
	.st70{fill:#A7A07B;}
	.st71{fill:#D8D2A7;}
	.st72{fill:#C4952C;}
	.st73{fill:#BFBAA5;}
	.st74{fill:#E2DDBF;}
	.st75{fill:#4C1416;}
	.st76{fill:#661218;}
	.st77{fill:#DDBD92;}
	.st78{fill:#897154;}
	.st79{fill:#337D9C;}
</style>
<g>
	<circle class="st79" cx="182.1" cy="182.1" r="182.1"/>
	<g>
		<path class="st14" d="M209.1,139.6c0-16.1-13.1-29.2-29.2-29.2s-29.2,13.1-29.2,29.2c0,10.1,5.1,18.9,12.8,24.2l-49.7,187.2
			c5,2,10.1,3.8,15.3,5.4l4.9-21.1l35.7,8.1l-0.6,20.4c4.3,0.3,8.6,0.5,12.9,0.5c4.6,0,9.1-0.2,13.7-0.5l-1.1-19.6l34.2-8.5
			l5.3,21.1c4.2-1.2,8.3-2.6,12.3-4.2l-50.6-188.3C203.8,158.9,209.1,149.9,209.1,139.6z M175.3,168.4l-1.2,36.3l-9.8-1.3l8.2-35.6
			C173.5,168.1,174.4,168.3,175.3,168.4z M162.3,212.6l11.6,1.5l-1.4,44l-20.1-2.6L162.3,212.6z M139.1,313.4l10.1-43.8l22.9,3
			l-1.5,47.9L139.1,313.4z M193.4,321.4l-2.7-49.3l21.5-3.1l11.2,44.9L193.4,321.4z M190,257.7l-2.4-43.9l10.4-1.5l10.7,42.7
			L190,257.7z M195.8,203.2l-8.7,1.2l-1.9-36.1c0.6-0.1,1.2-0.2,1.8-0.4L195.8,203.2z"/>
		<path class="st14" d="M220.2,139.8c0,9.7-3.9,18.4-10.3,24.8c-0.2,0.2-0.5,0.5-0.7,0.7l7,8.2c0.4-0.4,0.9-0.8,1.3-1.3
			c8.3-8.3,13.4-19.8,13.4-32.4c0-12.6-5.1-24.1-13.4-32.4c-1.2-1.2-2.5-2.3-3.8-3.4l-7,8.2c1.1,0.9,2.2,1.8,3.2,2.9
			C216.3,121.4,220.2,130.1,220.2,139.8z"/>
		<path class="st14" d="M244.9,139.8c0,16.5-6.7,31.4-17.5,42.3c-0.7,0.7-1.4,1.3-2.1,2l7,8.2c0.9-0.8,1.8-1.7,2.7-2.5
			c12.8-12.7,20.7-30.4,20.7-49.9c0-19.5-7.9-37.1-20.7-49.9c-1.7-1.7-3.4-3.2-5.2-4.7l-7,8.2c1.6,1.3,3.1,2.7,4.6,4.1
			C238.2,108.4,244.9,123.3,244.9,139.8z"/>
		<path class="st14" d="M252.2,72.7c-2.1-2.1-4.3-4.1-6.6-6l-7,8.2c2.1,1.7,4.1,3.5,6,5.4c15.2,15.2,24.6,36.3,24.6,59.5
			c0,23.3-9.4,44.3-24.6,59.5c-1.1,1.1-2.3,2.2-3.4,3.2l7,8.2c1.4-1.2,2.7-2.5,4-3.8c17.2-17.2,27.8-40.9,27.8-67.1
			C280,113.6,269.4,89.9,252.2,72.7z"/>
		<path class="st14" d="M142.6,172.2c0.4,0.4,0.9,0.8,1.3,1.3l7-8.2c-0.2-0.2-0.5-0.5-0.7-0.7c-6.4-6.4-10.3-15.1-10.3-24.8
			c0-9.7,3.9-18.4,10.3-24.8c1-1,2.1-2,3.2-2.9l-7-8.2c-1.3,1.1-2.6,2.2-3.8,3.4c-8.3,8.3-13.4,19.8-13.4,32.4
			C129.2,152.5,134.3,164,142.6,172.2z"/>
		<path class="st14" d="M125.1,189.7c0.9,0.9,1.8,1.7,2.7,2.5l7-8.2c-0.7-0.6-1.4-1.3-2.1-2c-10.8-10.8-17.5-25.7-17.5-42.3
			c0-16.5,6.7-31.4,17.5-42.3c1.5-1.5,3-2.8,4.6-4.1l-7-8.2c-1.8,1.5-3.6,3.1-5.2,4.7c-12.8,12.7-20.7,30.4-20.7,49.9
			C104.5,159.3,112.4,176.9,125.1,189.7z"/>
		<path class="st14" d="M115.5,199.3c-15.2-15.2-24.6-36.3-24.6-59.5c0-23.3,9.4-44.3,24.6-59.5c1.9-1.9,3.9-3.7,6-5.4l-7-8.2
			c-2.3,1.9-4.5,3.9-6.6,6c-17.2,17.2-27.8,40.9-27.8,67.1c0,26.2,10.6,50,27.8,67.1c1.3,1.3,2.7,2.6,4,3.8l7-8.2
			C117.8,201.5,116.6,200.4,115.5,199.3z"/>
	</g>
</g>
</svg>
