<svg xmlns:x="http://ns.adobe.com/Extensibility/1.0/" xmlns:i="http://ns.adobe.com/AdobeIllustrator/10.0/" xmlns:graph="http://ns.adobe.com/Graphs/1.0/" xmlns="http://www.w3.org/2000/svg" xmlns:xlink="http://www.w3.org/1999/xlink" xmlns:a="http://ns.adobe.com/AdobeSVGViewerExtensions/3.0/" version="1.1" id="Layer_1" x="0px" y="0px" viewBox="0 0 246.5 246.5" style="enable-background:new 0 0 246.5 246.5;" xml:space="preserve"><style type="text/css">.st0{fill:#A5896F;}.st1{fill:#CDAB88;}.st2{fill:#4991A9;}.st3{fill:#DCEBEB;}.st4{clip-path:url(#SVGID_2_);}.st5{fill:#EEB7AC;}.st6{opacity:0.1;adobe-blending-mode:multiply;}.st7{fill:#FCD5C8;}.st8{fill:#216384;}.st9{fill:#EAEAEA;}.st10{adobe-blending-mode:overlay;}.st11{fill:#7DADA8;}.st12{fill:#B7DBDA;}.st13{fill:#6D9E9C;}.st14{fill:#FFFFFF;}.st15{fill:#BC918A;}.st16{fill:#E5B5A8;}.st17{fill:#878787;}.st18{fill:#B7B7B7;}.st19{fill:#383838;}.st20{clip-path:url(#SVGID_4_);}.st21{fill:#DDB98A;adobe-blending-mode:multiply;}.st22{fill:#EFEFEF;}.st23{fill:#32768A;}.st24{clip-path:url(#SVGID_6_);}.st25{clip-path:url(#SVGID_8_);}.st26{fill:#CDAB88;adobe-blending-mode:multiply;}.st27{fill:#544A41;}.st28{fill:#F7EDD7;}.st29{fill:#5E5747;}.st30{fill:none;stroke:#3F403F;stroke-width:2;stroke-miterlimit:10;}.st31{fill:#F7C534;}.st32{opacity:0.62;fill:#FFFFFF;adobe-blending-mode:overlay;}.st33{opacity:0.48;adobe-blending-mode:multiply;}.st34{fill:#757065;}.st35{clip-path:url(#SVGID_10_);}.st36{clip-path:url(#SVGID_12_);}.st37{fill:#4D8A3F;}.st38{fill:none;}.st39{fill:#7CC24D;}.st40{fill:#5BA545;}.st41{fill:#3F6731;}.st42{fill:#1F9ED1;}.st43{fill:#0584C4;}.st44{fill:#303030;}.st45{fill:#010101;}.st46{fill:#DDEDED;}.st47{clip-path:url(#SVGID_14_);}.st48{fill:#4297AB;}.st49{opacity:0.5;adobe-blending-mode:multiply;}.st50{fill:#4297AB;adobe-blending-mode:normal;}.st51{clip-path:url(#SVGID_14_);fill:#F05124;}.st52{clip-path:url(#SVGID_14_);fill:#4297AB;}.st53{fill:#7B7B7B;}.st54{fill:#5D7F3F;}.st55{fill:#3B5126;}.st56{fill:#C4342C;}.st57{fill:#E04541;}.st58{fill:#F04B4C;}.st59{opacity:0.46;fill:#FFFFFF;}.st60{opacity:0.82;fill:#FFFFFF;}.st61{fill:#7A1718;}.st62{fill:#A02B27;}.st63{clip-path:url(#SVGID_16_);}.st64{fill:#4A4F3A;}.st65{fill:#5F634C;}.st66{fill:#8C8E6E;}.st67{fill:#642D10;}.st68{fill:#A7A07B;}.st69{fill:#D8D2A7;}.st70{fill:#C4952C;}.st71{fill:#BFBAA5;}.st72{fill:#E2DDBF;}.st73{fill:#4C1416;}.st74{fill:#661218;}.st75{fill:#DDBD92;}.st76{fill:#897154;}</style><circle class="st3" cx="123.2" cy="123.2" r="123.2"/><g><defs><circle id="SVGID_11_" cx="123.2" cy="123.2" r="123.2"/></defs><clipPath id="SVGID_2_"><use xlink:href="#SVGID_11_" style="overflow:visible;"/></clipPath><g class="st4"><polygon class="st37" points="207.2,228.1 56,169.2 32.8,173.8 207.2,238 289.3,205.3 278.6,202.2"/><g><path class="st38" d="M172.4 172.6l-5.5-2.9c-0.9-0.5-2-0.6-3-0.2l-3.3 1.2c-8.5-2.8-15.6-0.3-16.9 0.2c-12 4.7 2.7 10.8-1 13 c-0.9 0.6-3.4 0.9-6.2-0.5c-2.7-1.4-1.8-2.4 0.5-3.5c1-0.5 0.9-0.9-0.2-1.3l-6.4-2.3c-1-0.3-2-0.4-2.9 0 c-3.2 1.5-7.7 4.2-4.3 7.9l-3.9 1.5c-1.1 0.4-1.3 1-0.3 1.4l5.3 2.9c1 0.5 2 0.6 3.2 0.1l3.7-1.4c9.6 3.1 18.1 0.6 19.4 0 c12.4-4.8-2.6-11.3 0.8-13.3c0.8-0.5 2.8-0.7 4.6 0.3c2.2 1.1 1.9 2.2 0.1 3.2c-0.9 0.5-0.9 0.9 0.3 1.3l6.7 2.2 c1.1 0.3 2 0.3 2.9-0.1c2.8-1.3 6.6-3.8 2.7-7.2l3.4-1.3C173.4 173.6 173.4 173.1 172.4 172.6z"/><g><path class="st39" d="M119.2 151.8c0 0-9.1 7.5-28.5 10.1c-31.8 4.3-61.5-2.7-61.5-2.7l177.3 69l84.7-30.8L119.2 151.8z"/></g></g><g><polygon class="st40" points="38.8,237.1 32.8,173.8 206.4,237.3 207.2,315.8"/><polygon class="st41" points="35.9,207.1 36.6,214.7 207.2,289.3 207.2,279.3"/><polygon class="st41" points="207.2,249.9 207.2,242.1 32.8,176 33.4,182.3"/><polygon class="st41" points="207.2,302.7 207.2,292.6 36.9,218.1 37.7,225.8"/><polygon class="st41" points="38,229.2 38.8,237.1 207.2,315.8 207.2,306"/><polygon class="st41" points="33.8,185.6 34.5,192.9 207.2,262.9 207.2,253.2"/><polygon class="st41" points="34.8,196.3 35.5,203.7 207.2,276 207.2,266.2"/></g><g><g><path class="st42" d="M78.1 97.3c-12.6 0-22.8 10.2-22.8 22.8c0 5.9 2.2 11.3 5.9 15.3l32.2-32.2C89.4 99.6 84 97.3 78.1 97.3z"/><path class="st43" d="M93.4 103.3l-32.2 32.2c4.2 4.6 10.2 7.4 16.8 7.4c12.6 0 22.8-10.2 22.8-22.8 C100.9 113.4 98 107.4 93.4 103.3z"/></g><g><path class="st42" d="M167.1 97.3c-12.6 0-22.8 10.2-22.8 22.8c0 5.9 2.2 11.3 5.9 15.3l32.2-32.2 C178.4 99.6 173 97.3 167.1 97.3z"/><path class="st43" d="M182.5 103.3l-32.2 32.2c4.2 4.6 10.2 7.4 16.8 7.4c12.6 0 22.8-10.2 22.8-22.8 C189.9 113.4 187 107.4 182.5 103.3z"/></g><g><path class="st38" d="M57.6 120.1c0 10.9 9.2 19.8 20.5 19.8c11.3 0 20.5-8.9 20.5-19.8c0-5.5-2.3-10.5-6.1-14.1 c-5-3.1-11-4.9-17.4-4.9c-1.2 0-2.3 0.1-3.4 0.2C63.5 103.9 57.6 111.4 57.6 120.1z"/><path class="st38" d="M152.8 106c-3.8 3.6-6.1 8.6-6.1 14.1c0 10.9 9.2 19.8 20.5 19.8c11.3 0 20.5-8.9 20.5-19.8 c0-8.7-5.9-16.2-14-18.8c-1.1-0.1-2.3-0.2-3.4-0.2C163.7 101.2 157.8 102.9 152.8 106z"/><path class="st44" d="M167.1 93.8c11.1 0 20.7 6.4 24.9 15.6c0 0 0.1 0.1 0.1 0.1l-1.7-5.8l-12.7-42.2l-5.4-18l-0.4-1.4h0 c0 0 0-0.1 0-0.1c-2.6-8.8-6.9-13-15.4-13c-8.5 0-15.4 4.5-15.4 13c0 0 0 0.1 0 0.1h0v17h-36.8v-17h0c0 0 0-0.1 0-0.1 c0-4.9-2.3-8.4-5.9-10.6c-1.5-0.9-3.3-1.6-5.2-2c-1.4-0.3-2.8-0.4-4.3-0.4c-8.5 0-12.8 4.1-15.4 13c0 0 0 0.1 0 0.1h0L57.8 93.9 l-4.7 15.5c0 0 0.1-0.1 0.1-0.1c4.3-9.2 13.8-15.6 24.9-15.6c12.3 0 22.7 7.9 26.1 18.7V98.1H141v14.4 C144.4 101.6 154.8 93.8 167.1 93.8z"/><path class="st45" d="M104.2 112.5c-3.4-10.8-13.8-18.7-26.1-18.7c-11.1 0-20.7 6.4-24.9 15.6c-1.5 3.3-2.4 6.9-2.4 10.7 c0 14.6 12.2 26.4 27.3 26.4c15.1 0 27.3-11.8 27.3-26.4C105.4 117.5 105 114.9 104.2 112.5z M78.1 139.9 c-11.3 0-20.5-8.9-20.5-19.8c0-8.7 5.9-16.2 14-18.8c2-0.6 4.2-1 6.4-1c5.6 0 10.7 2.2 14.4 5.7c3.8 3.6 6.1 8.6 6.1 14.1 C98.6 131 89.4 139.9 78.1 139.9z"/><path class="st45" d="M192 109.4c-4.3-9.2-13.8-15.6-24.9-15.6c-12.3 0-22.7 7.9-26.1 18.7c-0.8 2.4-1.2 5-1.2 7.6 c0 14.6 12.2 26.4 27.3 26.4s27.3-11.8 27.3-26.4C194.4 116.3 193.6 112.6 192 109.4z M167.1 139.9c-11.3 0-20.5-8.9-20.5-19.8 c0-5.5 2.3-10.5 6.1-14.1c3.7-3.5 8.8-5.7 14.4-5.7c2.2 0 4.4 0.4 6.4 1c8.2 2.6 14 10 14 18.8 C187.6 131 178.4 139.9 167.1 139.9z"/></g></g><path class="st41" d="M127 190.1l5.3 2.9c1 0.5 2 0.6 3.2 0.1l3.7-1.4c9.6 3.1 18.1 0.6 19.4 0c12.4-4.8-2.6-11.3 0.8-13.3 c0.8-0.5 2.8-0.7 4.6 0.3c2.2 1.1 1.9 2.2 0.1 3.2c-0.9 0.5-0.9 0.9 0.3 1.3l6.7 2.2c1.1 0.3 2 0.3 2.9-0.1 c2.8-1.3 6.6-3.8 2.7-7.2l3.4-1.3c1.1-0.4 1.1-0.8 0.1-1.3l-5.5-2.9c-0.9-0.5-2-0.6-3-0.2l-3.3 1.2c-8.5-2.8-15.6-0.3-16.9 0.2 c-12 4.7 2.7 10.8-1 13c-0.9 0.6-3.4 0.9-6.2-0.5c-2.7-1.4-1.8-2.4 0.5-3.5c1-0.5 0.9-0.9-0.2-1.3l-6.4-2.3c-1-0.3-2-0.4-2.9 0 c-3.2 1.5-7.7 4.2-4.3 7.9l-3.9 1.5C126.2 189.1 126.1 189.6 127 190.1z"/></g></g><g><defs><circle id="SVGID_13_" cx="479" cy="123.2" r="123.2"/></defs><clipPath id="SVGID_4_"><use xlink:href="#SVGID_13_" style="overflow:visible;"/></clipPath></g></svg>