<svg xmlns:x="http://ns.adobe.com/Extensibility/1.0/" xmlns:i="http://ns.adobe.com/AdobeIllustrator/10.0/" xmlns:graph="http://ns.adobe.com/Graphs/1.0/" xmlns="http://www.w3.org/2000/svg" xmlns:xlink="http://www.w3.org/1999/xlink" xmlns:a="http://ns.adobe.com/AdobeSVGViewerExtensions/3.0/" version="1.1" id="Layer_1" x="0px" y="0px" viewBox="0 0 246.5 246.5" style="enable-background:new 0 0 246.5 246.5;" xml:space="preserve"><style type="text/css">.st0{fill:#A5896F;}.st1{fill:#CDAB88;}.st2{fill:#4991A9;}.st3{fill:#DCEBEB;}.st4{clip-path:url(#SVGID_2_);}.st5{fill:#EEB7AC;}.st6{opacity:0.1;adobe-blending-mode:multiply;}.st7{fill:#FCD5C8;}.st8{fill:#216384;}.st9{fill:#EAEAEA;}.st10{adobe-blending-mode:overlay;}.st11{fill:#7DADA8;}.st12{fill:#B7DBDA;}.st13{fill:#6D9E9C;}.st14{fill:#FFFFFF;}.st15{fill:#BC918A;}.st16{fill:#E5B5A8;}.st17{fill:#878787;}.st18{fill:#B7B7B7;}.st19{fill:#383838;}.st20{clip-path:url(#SVGID_4_);}.st21{fill:#DDB98A;adobe-blending-mode:multiply;}.st22{fill:#EFEFEF;}.st23{fill:#32768A;}.st24{clip-path:url(#SVGID_6_);}.st25{clip-path:url(#SVGID_8_);}.st26{fill:#AD7F59;}.st27{fill:#544A41;}.st28{fill:#F7EDD7;}.st29{fill:#5E5747;}.st30{fill:none;stroke:#3F403F;stroke-width:2;stroke-miterlimit:10;}.st31{fill:#F7C534;}.st32{opacity:0.62;fill:#FFFFFF;adobe-blending-mode:overlay;}.st33{opacity:0.48;adobe-blending-mode:multiply;}.st34{fill:#AEA38C;adobe-blending-mode:normal;}.st35{fill:#CDAB88;adobe-blending-mode:multiply;}.st36{fill:#757065;}.st37{clip-path:url(#SVGID_10_);}.st38{clip-path:url(#SVGID_12_);}.st39{fill:#4D8A3F;}.st40{fill:none;}.st41{fill:#7CC24D;}.st42{fill:#5BA545;}.st43{fill:#3F6731;}.st44{fill:#1F9ED1;}.st45{fill:#0584C4;}.st46{fill:#303030;}.st47{fill:#010101;}.st48{fill:#DDEDED;}.st49{clip-path:url(#SVGID_14_);}.st50{fill:#4297AB;}.st51{opacity:0.5;adobe-blending-mode:multiply;}.st52{fill:#4297AB;adobe-blending-mode:normal;}.st53{clip-path:url(#SVGID_14_);fill:#F05124;}.st54{clip-path:url(#SVGID_14_);fill:#4297AB;}.st55{fill:#7B7B7B;}.st56{fill:#5D7F3F;}.st57{fill:#3B5126;}.st58{fill:#C4342C;}.st59{fill:#E04541;}.st60{fill:#F04B4C;}.st61{opacity:0.46;fill:#FFFFFF;}.st62{opacity:0.82;fill:#FFFFFF;}.st63{fill:#7A1718;}.st64{fill:#A02B27;}.st65{clip-path:url(#SVGID_16_);}.st66{fill:#4A4F3A;}.st67{fill:#5F634C;}.st68{fill:#8C8E6E;}.st69{fill:#642D10;}.st70{fill:#A7A07B;}.st71{fill:#D8D2A7;}.st72{fill:#C4952C;}.st73{fill:#BFBAA5;}.st74{fill:#E2DDBF;}.st75{fill:#4C1416;}.st76{fill:#661218;}.st77{fill:#DDBD92;}.st78{fill:#897154;}</style><circle class="st1" cx="123.2" cy="123.2" r="123.2"/><g><defs><circle id="SVGID_7_" cx="123.2" cy="123.2" r="123.2"/></defs><clipPath id="SVGID_2_"><use xlink:href="#SVGID_7_" style="overflow:visible;"/></clipPath><g class="st4"><polygon class="st26" points="212.1,57.5 40,57.5 31.8,65.6 31.8,189 204,189 212.1,180.9"/><rect x="40" y="57.5" class="st27" width="172.1" height="123.4"/><rect x="57" y="73.2" class="st28" width="138.2" height="92.1"/><g><polyline class="st29" points="76.4,92.2 176,92.2 176,89.7 76.4,89.7"/><polyline class="st29" points="76.4,104.6 176,104.6 176,102.1 76.4,102.1"/><polyline class="st29" points="87.1,151.5 165.4,151.5 165.4,148.9 87.1,148.9"/></g><g><path class="st30" d="M98.7 145.6c0 0-5.6-4.7-5.7-9.4c-0.1-4.6 2.7-5.7 4-5.3c1.3 0.4 7.7 3.4 2.6 17.1 c-5.1 13.6-5.1 13.6-5.1 13.6s-2.8-10.8 2.7-13.3s7.8-4.3 7.8-4.3s3.2-2 4.9 1.2s7.2 0.5 7.2 0.5"/><path class="st30" d="M126.9 139.4l-2.4 14.1c0 0 13.5 0.2 15.1-7.1c1.5-7.3-17.3-11.8-17.3-11.8"/><path class="st30" d="M125.1 150.4c0 0 1.2-3 6.3-4.1s15.6 0 15.6 0s2.1 0.8 8.2-0.5s8.2-6.8 8.2-6.8"/></g><polygon class="st31" points="125.1,111.7 128,110.3 129.5,113.2 132.8,113.7 132.3,117 134.6,119.4 132.3,121.7 132.8,125 129.5,125.5 128,128.4 125.1,127 122.1,128.4 120.6,125.5 117.3,125 117.8,121.7 115.5,119.4 117.8,117 117.3,113.7 120.6,113.2 122.1,110.3"/><polygon class="st32" points="57.1,165.4 57.1,73.3 195.3,73.3"/><g class="st33"><polygon class="st34" points="195.2,73.2 57,73.2 57,76.2 192.7,76.2 192.7,165.3 195.2,165.3"/></g></g></g><g><defs><circle id="SVGID_13_" cx="840.4" cy="123.2" r="123.2"/></defs><clipPath id="SVGID_4_"><use xlink:href="#SVGID_13_" style="overflow:visible;"/></clipPath></g></svg>