<svg xmlns:x="http://ns.adobe.com/Extensibility/1.0/" xmlns:i="http://ns.adobe.com/AdobeIllustrator/10.0/" xmlns:graph="http://ns.adobe.com/Graphs/1.0/" xmlns="http://www.w3.org/2000/svg" xmlns:xlink="http://www.w3.org/1999/xlink" xmlns:a="http://ns.adobe.com/AdobeSVGViewerExtensions/3.0/" version="1.1" id="Layer_1" x="0px" y="0px" viewBox="0 0 246.5 246.5" style="enable-background:new 0 0 246.5 246.5;" xml:space="preserve"><style type="text/css">.st0{fill:#A5896F;}.st1{fill:#CDAB88;}.st2{fill:#4991A9;}.st3{fill:#DCEBEB;}.st4{clip-path:url(#SVGID_2_);}.st5{fill:#EEB7AC;}.st6{opacity:0.1;adobe-blending-mode:multiply;}.st7{fill:#FCD5C8;}.st8{fill:#216384;}.st9{fill:#EAEAEA;}.st10{adobe-blending-mode:overlay;}.st11{fill:#7DADA8;}.st12{fill:#B7DBDA;}.st13{fill:#6D9E9C;}.st14{fill:#FFFFFF;}.st15{fill:#BC918A;}.st16{fill:#E5B5A8;}.st17{fill:#878787;}.st18{fill:#B7B7B7;}.st19{fill:#383838;}.st20{clip-path:url(#SVGID_4_);}.st21{fill:#DDB98A;adobe-blending-mode:multiply;}.st22{fill:#EFEFEF;}.st23{fill:#32768A;}.st24{clip-path:url(#SVGID_6_);}.st25{clip-path:url(#SVGID_8_);}.st26{fill:#CDAB88;adobe-blending-mode:multiply;}.st27{fill:#544A41;}.st28{fill:#F7EDD7;}.st29{fill:#5E5747;}.st30{fill:none;stroke:#3F403F;stroke-width:2;stroke-miterlimit:10;}.st31{fill:#F7C534;}.st32{opacity:0.62;fill:#FFFFFF;adobe-blending-mode:overlay;}.st33{opacity:0.48;adobe-blending-mode:multiply;}.st34{fill:#757065;}.st35{clip-path:url(#SVGID_10_);}.st36{clip-path:url(#SVGID_12_);}.st37{fill:#4D8A3F;}.st38{fill:none;}.st39{fill:#7CC24D;}.st40{fill:#5BA545;}.st41{fill:#3F6731;}.st42{fill:#1F9ED1;}.st43{fill:#0584C4;}.st44{fill:#303030;}.st45{fill:#010101;}.st46{fill:#DDEDED;}.st47{clip-path:url(#SVGID_14_);}.st48{fill:#4297AB;}.st49{opacity:0.5;adobe-blending-mode:multiply;}.st50{fill:#4297AB;adobe-blending-mode:normal;}.st51{clip-path:url(#SVGID_14_);fill:#F05124;}.st52{clip-path:url(#SVGID_14_);fill:#4297AB;}.st53{fill:#7B7B7B;}.st54{fill:#5D7F3F;}.st55{fill:#3B5126;}.st56{fill:#C4342C;}.st57{fill:#E04541;}.st58{fill:#F04B4C;}.st59{opacity:0.46;fill:#FFFFFF;}.st60{opacity:0.82;fill:#FFFFFF;}.st61{fill:#7A1718;}.st62{fill:#A02B27;}.st63{clip-path:url(#SVGID_16_);}.st64{fill:#4A4F3A;}.st65{fill:#5F634C;}.st66{fill:#8C8E6E;}.st67{fill:#642D10;}.st68{fill:#A7A07B;}.st69{fill:#D8D2A7;}.st70{fill:#C4952C;}.st71{fill:#BFBAA5;}.st72{fill:#E2DDBF;}.st73{fill:#4C1416;}.st74{fill:#661218;}.st75{fill:#DDBD92;}.st76{fill:#897154;}</style><g><defs><circle id="SVGID_15_" cx="123.2" cy="123.2" r="123.2"/></defs><clipPath id="SVGID_2_"><use xlink:href="#SVGID_15_" style="overflow:visible;"/></clipPath><g class="st4"><g><polygon class="st64" points="410.4,-47.4 188.8,-47.4 410.4,117.6"/><polygon class="st65" points="187.8,-46.3 115.2,-46.3 409.4,170.1 409.4,118.7"/><polygon class="st65" points="46.4,-46.3 409.4,220.5 409.4,170.1 115.2,-46.3"/><polygon class="st66" points="-51.7,-46.3 -51.7,246.5 409.4,246.5 409.4,220.5 46.4,-46.3"/></g><g><path class="st67" d="M31.6 172.7h194.6v-2.3c0-0.6-0.4-1-1-1H29.9c-0.6 0-1 0.4-1 1v28.5c0 0.6 0.4 1 1 1h195.4c0.6 0 1-0.4 1-1 v-2.3H31.6V172.7z"/><rect x="31.6" y="172.7" class="st68" width="190.6" height="8"/><g><polygon class="st69" points="222.3,186.4 222.3,180.7 31.6,180.7 31.6,196.5 222.3,196.5 222.3,188.5 208.7,186.4"/></g></g><g><path class="st70" d="M38.5 141.7H215v-2.3c0-0.6-0.4-1-1-1H36.7c-0.6 0-1 0.4-1 1v28.5c0 0.6 0.4 1 1 1H214c0.6 0 1-0.4 1-1 v-2.3H38.5V141.7z"/><rect x="38.5" y="141.7" class="st71" width="172.5" height="8"/><g><polygon class="st72" points="211,155.4 211,149.7 38.5,149.7 38.5,165.5 211,165.5 211,157.6 197.4,155.4"/></g></g><g><path class="st54" d="M122 50L122 50c0.4 0.1 0.7 0.1 1.1 0.2c0.9-2.8 2.1-5.6 3.5-7.8c3.9-6 12.8-8.5 16.5-9.2l-1-1.7 c0 0-8.6 1.2-15.1 7.4c-2.7 2.6-4.4 7-5.4 11.3c0 0 0 0 0.1 0C121.8 50 121.9 50 122 50z"/><path class="st55" d="M126.6 42.4c-1.5 2.2-2.6 5-3.5 7.8c0.5 0.1 0.9 0.2 1.4 0.3c0.6-1.5 1.1-2.9 1.6-3.9 c1.9-4 3.8-6.1 7.4-8.1c4.3-2.4 11-2.9 11-2.9l-1.4-2.5C139.4 33.9 130.5 36.4 126.6 42.4z"/><path class="st56" d="M149.6 75.8c0-9.3-2.5-18.1-6.8-25.7c-1.9-0.2-3.9-0.3-6.1-0.1c-2.3 0.2-4.7 0.5-7.4 1.2 c2.1 5.2 3.2 11 3.2 16.9c0 25.4-20.6 46.1-46 46.2c2.3 5 4.9 9.7 7.5 13.5c1.1 0.1 2.3 0.1 3.4 0.1 C126.3 127.9 149.6 104.6 149.6 75.8z"/><path class="st57" d="M132.7 68.1c0-6-1.1-11.7-3.2-16.9c-0.6 0.1-1.2 0.3-1.9 0.5c-1-0.5-2-0.9-3.1-1.2 c-0.5 1.2-0.9 2.5-1.4 3.8c-0.4-0.1-0.8-0.1-1.2-0.2c-0.4 0-0.7-0.1-1.1-0.1c0.2-1.3 0.5-2.6 0.8-4c-0.1 0-0.1 0-0.2 0v0 c-1.5 0.1-2.9 0.5-4.3 1c0.2 1.8 0.4 3.6 0.4 5.5c0 21.3-15.8 38.9-36.4 41.6c1.2 5.5 3.2 11.1 5.5 16.2 C112.1 114.2 132.7 93.6 132.7 68.1z"/><path class="st57" d="M121.9 54.1c0.3-1.3 0.7-2.6 1.1-3.9c-0.4-0.1-0.7-0.1-1.1-0.1v0c-0.1 0-0.2 0-0.3 0c0 0 0 0-0.1 0 c-0.3 1.4-0.6 2.7-0.8 4C121.2 54 121.6 54 121.9 54.1z"/><path class="st57" d="M121.9 54.1c0.4 0 0.8 0.1 1.2 0.2c0.4-1.3 0.9-2.6 1.4-3.8c-0.5-0.1-0.9-0.2-1.4-0.3 C122.6 51.5 122.2 52.8 121.9 54.1z"/><path class="st58" d="M117.5 56.5c0-1.9-0.1-3.7-0.4-5.5c-0.4 0.2-0.9 0.4-1.3 0.6c-3.4-0.9-6.4-1.4-9.2-1.6 c-21.8-1.5-26.9 17.2-26.8 36.4c0 3.8 0.5 7.7 1.4 11.6C101.7 95.4 117.5 77.8 117.5 56.5z M94.3 73.5c-4.2 0-7.7-3.4-7.7-7.7 c0-4.2 3.4-7.7 7.7-7.7c4.2 0 7.7 3.4 7.7 7.7C102 70 98.5 73.5 94.3 73.5z"/><path class="st58" d="M94.3 58.1c-4.2 0-7.7 3.4-7.7 7.7c0 4.2 3.4 7.7 7.7 7.7c4.2 0 7.7-3.4 7.7-7.7 C102 61.6 98.5 58.1 94.3 58.1z M93 67.9c-1.7 0-3.1-1.4-3.1-3.1s1.4-3.1 3.1-3.1c1.7 0 3.1 1.4 3.1 3.1S94.7 67.9 93 67.9z"/><path class="st59" d="M94.3 58.1c-4.2 0-7.7 3.4-7.7 7.7c0 4.2 3.4 7.7 7.7 7.7c4.2 0 7.7-3.4 7.7-7.7 C102 61.6 98.5 58.1 94.3 58.1z M93 67.9c-1.7 0-3.1-1.4-3.1-3.1s1.4-3.1 3.1-3.1c1.7 0 3.1 1.4 3.1 3.1S94.7 67.9 93 67.9z"/><circle class="st58" cx="93" cy="64.8" r="3.1"/><circle class="st59" cx="93" cy="64.8" r="3.1"/><circle class="st60" cx="93" cy="64.8" r="3.1"/><path class="st61" d="M163.4 79c-1.1 22.1-13.3 41.2-31.1 52h14.6c7.8-10.1 16.7-28.6 16.8-44.6C163.7 84 163.6 81.5 163.4 79z"/><path class="st73" d="M117.6 137.7c1.2 0.5 2.4 0.7 3.6 0.9l0 0.1c0.2 0 0.3 0 0.5 0c0.2 0 0.3 0 0.5 0l0-0.1 c2.4-0.2 4.8-1.1 6.9-2.6c2.4 1.2 5 2.1 7.3 2.5c0.5 0.1 1 0.1 1.5 0.1c1.4 0 3.4-1.3 5.6-3.5c1.1-1.1 2.2-2.4 3.4-4h-14.6 C127.8 133.9 122.8 136.1 117.6 137.7z"/><path class="st62" d="M163.4 79c-1.1-14.5-6.2-27.1-20.5-28.9c4.3 7.6 6.8 16.3 6.8 25.7c0 28.8-23.3 52.1-52.1 52.1 c-1.2 0-2.3 0-3.4-0.1c0.8 1.2 1.6 2.3 2.4 3.3h35.8C150.1 120.2 162.3 101.1 163.4 79z"/><path class="st74" d="M96.5 131.1c1.2 1.5 2.3 2.9 3.4 4c2.2 2.3 4.2 3.5 5.6 3.5c0.5 0 1 0 1.5-0.1c2.3-0.3 4.9-1.3 7.3-2.5 c1.1 0.7 2.2 1.3 3.3 1.7c5.2-1.6 10.2-3.8 14.7-6.6H96.5z"/></g><g><rect x="-51.7" y="199.9" class="st75" width="461.1" height="27.7"/><rect x="-51.7" y="227.6" class="st76" width="461.1" height="18.9"/></g></g></g></svg>